<?xml version="1.0" encoding="iso-8859-1" standalone="no"?>
<!DOCTYPE svg PUBLIC "-//W3C//DTD SVG 1.0//EN" "http://www.w3.org/TR/2001/REC-SVG-20010904/DTD/svg10.dtd">
<svg xmlns="http://www.w3.org/2000/svg" width="300" height="300">
<g>
<path style="fill:rgb(0, 0, 255);fill-opacity:1.0;fill-rule:evenodd;stroke:rgb(0, 0, 0);stroke-width:1.0;" d="M 158.563, 40.0271 L 122.25, 41.6167 L 99.889, 0 L 174.365, 0 z "/>
<text x="138.3378526419967" y="18.08135003729568" dy="0.3em" style="font-size:10px;fill:black;font-family:Sans;text-anchor:middle;text-align:center"></text>
</g>
<g>
<path style="fill:rgb(0, 0, 255);fill-opacity:1.0;fill-rule:evenodd;stroke:rgb(0, 0, 0);stroke-width:1.0;" d="M 62.8702, 300 L 0, 300 L 0, 240.125 L 44.5479, 145.284 z "/>
<text x="31.29604725582924" y="244.13268529181843" dy="0.3em" style="font-size:10px;fill:black;font-family:Sans;text-anchor:middle;text-align:center"></text>
</g>
<g>
<path style="fill:rgb(0, 0, 255);fill-opacity:1.0;fill-rule:evenodd;stroke:rgb(0, 0, 0);stroke-width:1.0;" d="M 300, 163.301 L 300, 300 L 293.476, 300 L 223.562, 223.756 L 223.929, 182.356 L 223.993, 180.671 L 249.045, 167.285 L 275.524, 161.638 z "/>
<text x="268.265134762076" y="218.78403198684083" dy="0.3em" style="font-size:10px;fill:black;font-family:Sans;text-anchor:middle;text-align:center"></text>
</g>
<g>
<path style="fill:rgb(0, 0, 255);fill-opacity:1.0;fill-rule:evenodd;stroke:rgb(0, 0, 0);stroke-width:1.0;" d="M 254.841, 63.6667 L 242.995, 93.9858 L 214.876, 108.737 L 169.712, 101.143 L 176.068, 84.4626 L 238.731, 30.8456 z "/>
<text x="217.45256184227105" y="76.67997068179315" dy="0.3em" style="font-size:10px;fill:black;font-family:Sans;text-anchor:middle;text-align:center"></text>
</g>
<g>
<path style="fill:rgb(0, 0, 255);fill-opacity:1.0;fill-rule:evenodd;stroke:rgb(0, 0, 0);stroke-width:1.0;" d="M 107.742, 120.937 L 110.184, 130.755 L 44.5977, 144.775 L 0, 128.888 L 0, 0 L 32.4406, 0 z "/>
<text x="41.17472225152537" y="81.53862120293138" dy="0.3em" style="font-size:10px;fill:black;font-family:Sans;text-anchor:middle;text-align:center"></text>
</g>
<g>
<path style="fill:rgb(0, 0, 255);fill-opacity:1.0;fill-rule:evenodd;stroke:rgb(0, 0, 0);stroke-width:1.0;" d="M 238.731, 30.8456 L 176.068, 84.4626 L 158.563, 40.0271 L 174.365, 0 L 241.055, 0 z "/>
<text x="197.18799825715578" y="32.37291089563304" dy="0.3em" style="font-size:10px;fill:black;font-family:Sans;text-anchor:middle;text-align:center"></text>
</g>
<g>
<path style="fill:rgb(0, 0, 255);fill-opacity:1.0;fill-rule:evenodd;stroke:rgb(0, 0, 0);stroke-width:1.0;" d="M 300, 87.1997 L 300, 163.301 L 275.524, 161.638 L 242.995, 93.9858 L 254.841, 63.6667 z "/>
<text x="276.0069355333304" y="112.8537034038728" dy="0.3em" style="font-size:10px;fill:black;font-family:Sans;text-anchor:middle;text-align:center"></text>
</g>
<g>
<path style="fill:rgb(0, 0, 255);fill-opacity:1.0;fill-rule:evenodd;stroke:rgb(0, 0, 0);stroke-width:1.0;" d="M 176.068, 84.4626 L 169.712, 101.143 L 128.217, 139.314 L 110.184, 130.755 L 107.742, 120.937 L 122.25, 41.6167 L 158.563, 40.0271 z "/>
<text x="139.60399263225767" y="86.72717883539616" dy="0.3em" style="font-size:10px;fill:black;font-family:Sans;text-anchor:middle;text-align:center"></text>
</g>
<g>
<path style="fill:rgb(0, 0, 255);fill-opacity:1.0;fill-rule:evenodd;stroke:rgb(0, 0, 0);stroke-width:1.0;" d="M 275.524, 161.638 L 249.045, 167.285 L 214.876, 108.737 L 242.995, 93.9858 z "/>
<text x="245.31717492379175" y="131.7779466120593" dy="0.3em" style="font-size:10px;fill:black;font-family:Sans;text-anchor:middle;text-align:center"></text>
</g>
<g>
<path style="fill:rgb(255, 255, 255);fill-opacity:1.0;fill-rule:evenodd;stroke:rgb(0, 0, 0);stroke-width:1.0;" d="M 223.562, 223.756 L 121.746, 287.233 L 122.857, 278.162 L 223.929, 182.356 z "/>
<text x="184.3069032398719" y="234.05302141349702" dy="0.3em" style="font-size:10px;fill:black;font-family:Sans;text-anchor:middle;text-align:center"></text>
</g>
<g>
<path style="fill:rgb(255, 0, 0);fill-opacity:1.0;fill-rule:evenodd;stroke:rgb(0, 0, 0);stroke-width:1.0;" d="M 235.734, 144.477 L 249.045, 167.285 L 223.993, 180.671 L 218.721, 179.107 L 164.678, 156.261 L 165.132, 154.415 L 182.583, 136.623 z "/>
<text x="208.9537287914942" y="157.19557324818092" dy="0.3em" style="font-size:10px;fill:black;font-family:Sans;text-anchor:middle;text-align:center">.</text>
</g>
<g>
<path style="fill:rgb(255, 0, 0);fill-opacity:1.0;fill-rule:evenodd;stroke:rgb(0, 0, 0);stroke-width:1.0;" d="M 165.132, 154.415 L 164.678, 156.261 L 129.212, 141.268 L 128.217, 139.314 L 152.775, 116.723 z "/>
<text x="148.60460379054197" y="137.91694695983975" dy="0.3em" style="font-size:10px;fill:black;font-family:Sans;text-anchor:middle;text-align:center">.</text>
</g>
<g>
<path style="fill:rgb(255, 0, 0);fill-opacity:1.0;fill-rule:evenodd;stroke:rgb(0, 0, 0);stroke-width:1.0;" d="M 182.583, 136.623 L 165.132, 154.415 L 152.775, 116.723 L 158.053, 111.869 z "/>
<text x="166.30731644017018" y="132.7786171426076" dy="0.3em" style="font-size:10px;fill:black;font-family:Sans;text-anchor:middle;text-align:center">.</text>
</g>
<g>
<path style="fill:rgb(255, 0, 0);fill-opacity:1.0;fill-rule:evenodd;stroke:rgb(0, 0, 0);stroke-width:1.0;" d="M 214.876, 108.737 L 235.734, 144.477 L 182.583, 136.623 L 158.053, 111.869 L 169.712, 101.143 z "/>
<text x="196.37475046804084" y="122.26454630739957" dy="0.3em" style="font-size:10px;fill:black;font-family:Sans;text-anchor:middle;text-align:center">.</text>
</g>
<g>
<path style="fill:rgb(255, 127, 0);fill-opacity:1.0;fill-rule:evenodd;stroke:rgb(0, 0, 0);stroke-width:1.0;" d="M 293.476, 300 L 237.481, 300 L 242.706, 265.95 L 253.619, 256.535 z "/>
<text x="259.5460510135104" y="284.183895442268" dy="0.3em" style="font-size:10px;fill:black;font-family:Sans;text-anchor:middle;text-align:center">.</text>
</g>
<g>
<path style="fill:rgb(255, 127, 0);fill-opacity:1.0;fill-rule:evenodd;stroke:rgb(0, 0, 0);stroke-width:1.0;" d="M 253.619, 256.535 L 242.706, 265.95 L 175.752, 260.991 L 172.777, 255.417 L 223.562, 223.756 z "/>
<text x="216.09781604062914" y="249.62503507672665" dy="0.3em" style="font-size:10px;fill:black;font-family:Sans;text-anchor:middle;text-align:center">.</text>
</g>
<g>
<path style="fill:rgb(255, 127, 0);fill-opacity:1.0;fill-rule:evenodd;stroke:rgb(0, 0, 0);stroke-width:1.0;" d="M 175.752, 260.991 L 180.777, 300 L 116.825, 300 L 121.746, 287.233 L 172.777, 255.417 z "/>
<text x="154.4605762240484" y="284.19243686960795" dy="0.3em" style="font-size:10px;fill:black;font-family:Sans;text-anchor:middle;text-align:center">.</text>
</g>
<g>
<path style="fill:rgb(255, 127, 0);fill-opacity:1.0;fill-rule:evenodd;stroke:rgb(0, 0, 0);stroke-width:1.0;" d="M 242.706, 265.95 L 237.481, 300 L 180.777, 300 L 175.752, 260.991 z "/>
<text x="208.53888241582794" y="281.20434523893476" dy="0.3em" style="font-size:10px;fill:black;font-family:Sans;text-anchor:middle;text-align:center">.</text>
</g>
<g>
<path style="fill:rgb(255, 255, 0);fill-opacity:1.0;fill-rule:evenodd;stroke:rgb(0, 0, 0);stroke-width:1.0;" d="M 263.527, 22.8937 L 241.817, 37.1314 L 238.731, 30.8456 L 240.239, 10.8374 z "/>
<text x="247.64182902921453" y="23.90484194844848" dy="0.3em" style="font-size:10px;fill:black;font-family:Sans;text-anchor:middle;text-align:center">.</text>
</g>
<g>
<path style="fill:rgb(255, 255, 0);fill-opacity:1.0;fill-rule:evenodd;stroke:rgb(0, 0, 0);stroke-width:1.0;" d="M 300, 45.4569 L 300, 87.1997 L 254.841, 63.6667 L 241.817, 37.1314 L 263.527, 22.8937 L 269.567, 20.2131 z "/>
<text x="274.8266076459217" y="51.65368862907254" dy="0.3em" style="font-size:10px;fill:black;font-family:Sans;text-anchor:middle;text-align:center">.</text>
</g>
<g>
<path style="fill:rgb(255, 255, 0);fill-opacity:1.0;fill-rule:evenodd;stroke:rgb(0, 0, 0);stroke-width:1.0;" d="M 300, 45.4569 L 269.567, 20.2131 L 268.858, 0 L 300, 0 z "/>
<text x="286.60955046839996" y="17.15144406957202" dy="0.3em" style="font-size:10px;fill:black;font-family:Sans;text-anchor:middle;text-align:center">.</text>
</g>
<g>
<path style="fill:rgb(255, 255, 0);fill-opacity:1.0;fill-rule:evenodd;stroke:rgb(0, 0, 0);stroke-width:1.0;" d="M 269.567, 20.2131 L 263.527, 22.8937 L 240.239, 10.8374 L 241.055, 0 L 268.858, 0 z "/>
<text x="256.51976762524936" y="9.3743284717991" dy="0.3em" style="font-size:10px;fill:black;font-family:Sans;text-anchor:middle;text-align:center">.</text>
</g>
<g>
<path style="fill:rgb(0, 255, 0);fill-opacity:1.0;fill-rule:evenodd;stroke:rgb(0, 0, 0);stroke-width:1.0;" d="M 77.6502, 39.6153 L 50.9993, 29.8058 L 49.9721, 28.1561 L 87.9804, 15.3498 z "/>
<text x="71.36049077864261" y="27.905261429228954" dy="0.3em" style="font-size:10px;fill:black;font-family:Sans;text-anchor:middle;text-align:center">.</text>
</g>
<g>
<path style="fill:rgb(0, 255, 0);fill-opacity:1.0;fill-rule:evenodd;stroke:rgb(0, 0, 0);stroke-width:1.0;" d="M 100.521, 1.17574 L 87.9804, 15.3498 L 49.9721, 28.1561 L 32.4406, 0 L 99.889, 0 z "/>
<text x="64.51268197286255" y="10.28307859213185" dy="0.3em" style="font-size:10px;fill:black;font-family:Sans;text-anchor:middle;text-align:center">.</text>
</g>
<g>
<path style="fill:rgb(0, 255, 0);fill-opacity:1.0;fill-rule:evenodd;stroke:rgb(0, 0, 0);stroke-width:1.0;" d="M 122.25, 41.6167 L 107.742, 120.937 L 70.508, 61.1375 L 77.6502, 39.6153 L 87.9804, 15.3498 L 100.521, 1.17574 z "/>
<text x="98.43484417583421" y="56.968787231915854" dy="0.3em" style="font-size:10px;fill:black;font-family:Sans;text-anchor:middle;text-align:center">.</text>
</g>
<g>
<path style="fill:rgb(0, 255, 0);fill-opacity:1.0;fill-rule:evenodd;stroke:rgb(0, 0, 0);stroke-width:1.0;" d="M 77.6502, 39.6153 L 70.508, 61.1375 L 50.9993, 29.8058 z "/>
<text x="66.38582641203443" y="43.51952337471911" dy="0.3em" style="font-size:10px;fill:black;font-family:Sans;text-anchor:middle;text-align:center">.</text>
</g>
<g>
<path style="fill:rgb(150, 0, 255);fill-opacity:1.0;fill-rule:evenodd;stroke:rgb(0, 0, 0);stroke-width:1.0;" d="M 124.119, 266.283 L 122.857, 278.162 L 121.746, 287.233 L 116.825, 300 L 62.8702, 300 L 55.8737, 240.921 L 91.099, 228.751 z "/>
<text x="88.4706996150948" y="268.5354376644706" dy="0.3em" style="font-size:10px;fill:black;font-family:Sans;text-anchor:middle;text-align:center">.</text>
</g>
<g>
<path style="fill:rgb(150, 0, 255);fill-opacity:1.0;fill-rule:evenodd;stroke:rgb(0, 0, 0);stroke-width:1.0;" d="M 128.217, 139.314 L 129.212, 141.268 L 126.347, 212.106 L 93.515, 206.399 L 73.2733, 138.645 L 110.184, 130.755 z "/>
<text x="105.44924252737852" y="168.59309205047893" dy="0.3em" style="font-size:10px;fill:black;font-family:Sans;text-anchor:middle;text-align:center">.</text>
</g>
<g>
<path style="fill:rgb(150, 0, 255);fill-opacity:1.0;fill-rule:evenodd;stroke:rgb(0, 0, 0);stroke-width:1.0;" d="M 93.515, 206.399 L 91.099, 228.751 L 55.8737, 240.921 L 44.5479, 145.284 L 44.5977, 144.775 L 73.2733, 138.645 z "/>
<text x="68.1054127347866" y="190.13731595114965" dy="0.3em" style="font-size:10px;fill:black;font-family:Sans;text-anchor:middle;text-align:center">.</text>
</g>
<g>
<path style="fill:rgb(150, 0, 255);fill-opacity:1.0;fill-rule:evenodd;stroke:rgb(0, 0, 0);stroke-width:1.0;" d="M 126.347, 212.106 L 124.178, 265.723 L 124.119, 266.283 L 91.099, 228.751 L 93.515, 206.399 z "/>
<text x="110.95457093682718" y="230.03102696033739" dy="0.3em" style="font-size:10px;fill:black;font-family:Sans;text-anchor:middle;text-align:center">.</text>
</g>
<g>
<path style="fill:rgb(255, 0, 255);fill-opacity:1.0;fill-rule:evenodd;stroke:rgb(0, 0, 0);stroke-width:1.0;" d="M 154.555, 248.115 L 151.255, 251.243 L 142.425, 249.006 L 150.283, 241.807 z "/>
<text x="149.1860380229624" y="247.26407977851215" dy="0.3em" style="font-size:10px;fill:black;font-family:Sans;text-anchor:middle;text-align:center">.</text>
</g>
<g>
<path style="fill:rgb(255, 0, 255);fill-opacity:1.0;fill-rule:evenodd;stroke:rgb(0, 0, 0);stroke-width:1.0;" d="M 175.304, 228.447 L 154.555, 248.115 L 150.283, 241.807 L 170.662, 223.137 z "/>
<text x="162.6006085663041" y="235.4966391419693" dy="0.3em" style="font-size:10px;fill:black;font-family:Sans;text-anchor:middle;text-align:center">.</text>
</g>
<g>
<path style="fill:rgb(255, 0, 255);fill-opacity:1.0;fill-rule:evenodd;stroke:rgb(0, 0, 0);stroke-width:1.0;" d="M 151.255, 251.243 L 122.857, 278.162 L 124.178, 265.723 L 142.425, 249.006 z "/>
<text x="135.1918372918738" y="261.42410195298606" dy="0.3em" style="font-size:10px;fill:black;font-family:Sans;text-anchor:middle;text-align:center">.</text>
</g>
<g>
<path style="fill:rgb(255, 0, 255);fill-opacity:1.0;fill-rule:evenodd;stroke:rgb(0, 0, 0);stroke-width:1.0;" d="M 223.993, 180.671 L 223.929, 182.356 L 175.304, 228.447 L 170.662, 223.137 L 218.721, 179.107 z "/>
<text x="196.73588608492582" y="203.68109494411124" dy="0.3em" style="font-size:10px;fill:black;font-family:Sans;text-anchor:middle;text-align:center">.</text>
</g>
<g>
<path style="fill:rgb(0, 255, 255);fill-opacity:1.0;fill-rule:evenodd;stroke:rgb(0, 0, 0);stroke-width:1.0;" d="M 154.066, 199.365 L 160.59, 232.364 L 124.178, 265.723 L 127.185, 191.389 z "/>
<text x="139.7350046018859" y="224.45852079249056" dy="0.3em" style="font-size:10px;fill:black;font-family:Sans;text-anchor:middle;text-align:center">.</text>
</g>
<g>
<path style="fill:rgb(0, 255, 255);fill-opacity:1.0;fill-rule:evenodd;stroke:rgb(0, 0, 0);stroke-width:1.0;" d="M 177.508, 161.685 L 175.946, 174.869 L 154.066, 199.365 L 127.185, 191.389 L 129.212, 141.268 z "/>
<text x="148.74529881502963" y="171.60684596814545" dy="0.3em" style="font-size:10px;fill:black;font-family:Sans;text-anchor:middle;text-align:center">.</text>
</g>
<g>
<path style="fill:rgb(0, 255, 255);fill-opacity:1.0;fill-rule:evenodd;stroke:rgb(0, 0, 0);stroke-width:1.0;" d="M 192.007, 203.581 L 160.59, 232.364 L 154.066, 199.365 L 175.946, 174.869 z "/>
<text x="171.21594974586407" y="203.05299151347626" dy="0.3em" style="font-size:10px;fill:black;font-family:Sans;text-anchor:middle;text-align:center">.</text>
</g>
<g>
<path style="fill:rgb(0, 255, 255);fill-opacity:1.0;fill-rule:evenodd;stroke:rgb(0, 0, 0);stroke-width:1.0;" d="M 218.721, 179.107 L 192.007, 203.581 L 175.946, 174.869 L 177.508, 161.685 z "/>
<text x="193.96473255122268" y="181.24826902029434" dy="0.3em" style="font-size:10px;fill:black;font-family:Sans;text-anchor:middle;text-align:center">.</text>
</g>
<g>
<path style="fill:rgb(150, 150, 150);fill-opacity:1.0;fill-rule:evenodd;stroke:rgb(0, 0, 0);stroke-width:1.0;" d="M 5.32766, 130.786 L 20.9597, 195.502 L 20.9338, 195.557 L 11.1797, 192.116 L 0, 162.254 L 0, 128.888 z "/>
<text x="8.179055623029834" y="163.8471478323095" dy="0.3em" style="font-size:10px;fill:black;font-family:Sans;text-anchor:middle;text-align:center">.</text>
</g>
<g>
<path style="fill:rgb(150, 150, 150);fill-opacity:1.0;fill-rule:evenodd;stroke:rgb(0, 0, 0);stroke-width:1.0;" d="M 20.9338, 195.557 L 0, 240.125 L 0, 194.149 L 11.1797, 192.116 z "/>
<text x="7.190812627280577" y="209.02945800652995" dy="0.3em" style="font-size:10px;fill:black;font-family:Sans;text-anchor:middle;text-align:center">.</text>
</g>
<g>
<path style="fill:rgb(150, 150, 150);fill-opacity:1.0;fill-rule:evenodd;stroke:rgb(0, 0, 0);stroke-width:1.0;" d="M 44.5977, 144.775 L 44.5479, 145.284 L 20.9597, 195.502 L 5.32766, 130.786 z "/>
<text x="23.681562203580498" y="157.04064754365206" dy="0.3em" style="font-size:10px;fill:black;font-family:Sans;text-anchor:middle;text-align:center">.</text>
</g>
<g>
<path style="fill:rgb(150, 150, 150);fill-opacity:1.0;fill-rule:evenodd;stroke:rgb(0, 0, 0);stroke-width:1.0;" d="M 11.1797, 192.116 L 0, 194.149 L 0, 162.254 z "/>
<text x="3.7265526960533846" y="182.83963139907348" dy="0.3em" style="font-size:10px;fill:black;font-family:Sans;text-anchor:middle;text-align:center">.</text>
</g>
</svg>