<?xml version="1.0" encoding="iso-8859-1" standalone="no"?>
<!DOCTYPE svg PUBLIC "-//W3C//DTD SVG 1.0//EN" "http://www.w3.org/TR/2001/REC-SVG-20010904/DTD/svg10.dtd">
<svg xmlns="http://www.w3.org/2000/svg" width="300" height="300">
<g>
<path style="fill:rgb(0, 0, 255);fill-opacity:1.0;fill-rule:evenodd;stroke:rgb(0, 0, 0);stroke-width:1.0;" d="M 138.973, 10.8031 L 107.555, 61.3989 L 8.07392, 105.013 L 0, 101.656 L 0, 0 L 136.862, 0 z "/>
<text x="56.67498321238209" y="40.95390575043455" dy="0.3em" style="font-size:10px;fill:black;font-family:Sans;text-anchor:middle;text-align:center"></text>
</g>
<g>
<path style="fill:rgb(0, 0, 255);fill-opacity:1.0;fill-rule:evenodd;stroke:rgb(0, 0, 0);stroke-width:1.0;" d="M 300, 300 L 224.523, 300 L 243.074, 271.877 L 300, 237.924 z "/>
<text x="271.5833238157988" y="277.69860844140976" dy="0.3em" style="font-size:10px;fill:black;font-family:Sans;text-anchor:middle;text-align:center"></text>
</g>
<g>
<path style="fill:rgb(0, 0, 255);fill-opacity:1.0;fill-rule:evenodd;stroke:rgb(0, 0, 0);stroke-width:1.0;" d="M 262.101, 163.923 L 224.902, 208.382 L 213.5, 214.596 L 159.455, 189.017 L 164.169, 177.541 L 194.956, 151.709 z "/>
<text x="208.83929717621993" y="180.61293879509347" dy="0.3em" style="font-size:10px;fill:black;font-family:Sans;text-anchor:middle;text-align:center"></text>
</g>
<g>
<path style="fill:rgb(0, 0, 255);fill-opacity:1.0;fill-rule:evenodd;stroke:rgb(0, 0, 0);stroke-width:1.0;" d="M 106.561, 193.17 L 97.1515, 272.688 L 86.2104, 300 L 85.3292, 300 L 44.6623, 246.051 L 78.3068, 190.612 z "/>
<text x="79.91339267768222" y="239.64024538010878" dy="0.3em" style="font-size:10px;fill:black;font-family:Sans;text-anchor:middle;text-align:center"></text>
</g>
<g>
<path style="fill:rgb(0, 0, 255);fill-opacity:1.0;fill-rule:evenodd;stroke:rgb(0, 0, 0);stroke-width:1.0;" d="M 300, 222.613 L 224.902, 208.382 L 262.101, 163.923 L 300, 159.879 z "/>
<text x="271.86356250729636" y="192.15170560570638" dy="0.3em" style="font-size:10px;fill:black;font-family:Sans;text-anchor:middle;text-align:center"></text>
</g>
<g>
<path style="fill:rgb(0, 0, 255);fill-opacity:1.0;fill-rule:evenodd;stroke:rgb(0, 0, 0);stroke-width:1.0;" d="M 121.008, 109.882 L 102.051, 114.134 L 31.5494, 120.376 L 8.07392, 105.013 L 107.555, 61.3989 z "/>
<text x="73.33622675684525" y="97.08691449297916" dy="0.3em" style="font-size:10px;fill:black;font-family:Sans;text-anchor:middle;text-align:center"></text>
</g>
<g>
<path style="fill:rgb(0, 0, 255);fill-opacity:1.0;fill-rule:evenodd;stroke:rgb(0, 0, 0);stroke-width:1.0;" d="M 8.07392, 105.013 L 31.5494, 120.376 L 78.3068, 190.612 L 44.6623, 246.051 L 0, 246.089 L 0, 101.656 z "/>
<text x="29.42172119325255" y="183.39100297355373" dy="0.3em" style="font-size:10px;fill:black;font-family:Sans;text-anchor:middle;text-align:center"></text>
</g>
<g>
<path style="fill:rgb(0, 0, 255);fill-opacity:1.0;fill-rule:evenodd;stroke:rgb(0, 0, 0);stroke-width:1.0;" d="M 300, 51.9914 L 206.611, 82.7404 L 173.755, 67.6907 L 138.973, 10.8031 L 136.862, 0 L 300, 0 z "/>
<text x="223.23389985971565" y="33.56884794694055" dy="0.3em" style="font-size:10px;fill:black;font-family:Sans;text-anchor:middle;text-align:center"></text>
</g>
<g>
<path style="fill:rgb(255, 200, 150);fill-opacity:1.0;fill-rule:evenodd;stroke:rgb(0, 0, 0);stroke-width:1.0;" d="M 300, 222.613 L 300, 237.924 L 278.569, 250.706 L 265.14, 242.508 L 252.272, 213.569 z "/>
<text x="277.84651387959974" y="231.07907300416878" dy="0.3em" style="font-size:10px;fill:black;font-family:Sans;text-anchor:middle;text-align:center"></text>
</g>
<g>
<path style="fill:rgb(255, 200, 150);fill-opacity:1.0;fill-rule:evenodd;stroke:rgb(0, 0, 0);stroke-width:1.0;" d="M 278.569, 250.706 L 243.074, 271.877 L 232.156, 250.73 L 265.14, 242.508 z "/>
<text x="253.32198491763032" y="255.0349281909105" dy="0.3em" style="font-size:10px;fill:black;font-family:Sans;text-anchor:middle;text-align:center"></text>
</g>
<g>
<path style="fill:rgb(255, 200, 150);fill-opacity:1.0;fill-rule:evenodd;stroke:rgb(0, 0, 0);stroke-width:1.0;" d="M 247.944, 212.748 L 222.145, 231.341 L 213.5, 214.596 L 224.902, 208.382 z "/>
<text x="228.08881838252327" y="217.6820905041975" dy="0.3em" style="font-size:10px;fill:black;font-family:Sans;text-anchor:middle;text-align:center">.</text>
</g>
<g>
<path style="fill:rgb(255, 200, 150);fill-opacity:1.0;fill-rule:evenodd;stroke:rgb(0, 0, 0);stroke-width:1.0;" d="M 252.272, 213.569 L 265.14, 242.508 L 232.156, 250.73 L 222.145, 231.341 L 247.944, 212.748 z "/>
<text x="243.70059742412462" y="233.26242375941942" dy="0.3em" style="font-size:10px;fill:black;font-family:Sans;text-anchor:middle;text-align:center">.</text>
</g>
<g>
<path style="fill:rgb(255, 200, 150);fill-opacity:1.0;fill-rule:evenodd;stroke:rgb(0, 0, 0);stroke-width:1.0;" d="M 165.453, 124.838 L 149.467, 137.784 L 144.387, 140.227 L 129.118, 111.428 L 158.377, 82.7589 z "/>
<text x="149.30278816217117" y="113.66854889013787" dy="0.3em" style="font-size:10px;fill:black;font-family:Sans;text-anchor:middle;text-align:center">.</text>
</g>
<g>
<path style="fill:rgb(255, 200, 150);fill-opacity:1.0;fill-rule:evenodd;stroke:rgb(0, 0, 0);stroke-width:1.0;" d="M 206.611, 82.7404 L 198.187, 132.588 L 165.453, 124.838 L 158.377, 82.7589 L 173.755, 67.6907 z "/>
<text x="182.3221059254183" y="100.0008666467155" dy="0.3em" style="font-size:10px;fill:black;font-family:Sans;text-anchor:middle;text-align:center">.</text>
</g>
<g>
<path style="fill:rgb(255, 200, 150);fill-opacity:1.0;fill-rule:evenodd;stroke:rgb(0, 0, 0);stroke-width:1.0;" d="M 176.428, 167.255 L 164.169, 177.541 L 144.387, 140.227 L 149.467, 137.784 z "/>
<text x="160.45584314844885" y="158.4148286979792" dy="0.3em" style="font-size:10px;fill:black;font-family:Sans;text-anchor:middle;text-align:center">.</text>
</g>
<g>
<path style="fill:rgb(255, 200, 150);fill-opacity:1.0;fill-rule:evenodd;stroke:rgb(0, 0, 0);stroke-width:1.0;" d="M 198.187, 132.588 L 194.956, 151.709 L 176.428, 167.255 L 149.467, 137.784 L 165.453, 124.838 z "/>
<text x="175.7676675647308" y="143.26728803599295" dy="0.3em" style="font-size:10px;fill:black;font-family:Sans;text-anchor:middle;text-align:center">.</text>
</g>
<g>
<path style="fill:rgb(255, 0, 0);fill-opacity:1.0;fill-rule:evenodd;stroke:rgb(0, 0, 0);stroke-width:1.0;" d="M 162.446, 49.1938 L 148.715, 54.9425 L 135.133, 39.0581 L 133.778, 19.1694 L 138.973, 10.8031 z "/>
<text x="145.40792448831476" y="35.646488138627724" dy="0.3em" style="font-size:10px;fill:black;font-family:Sans;text-anchor:middle;text-align:center">.</text>
</g>
<g>
<path style="fill:rgb(255, 0, 0);fill-opacity:1.0;fill-rule:evenodd;stroke:rgb(0, 0, 0);stroke-width:1.0;" d="M 173.755, 67.6907 L 129.118, 111.428 L 121.008, 109.882 L 115.702, 90.7609 L 148.715, 54.9425 L 162.446, 49.1938 z "/>
<text x="143.4972642412375" y="79.88625535497701" dy="0.3em" style="font-size:10px;fill:black;font-family:Sans;text-anchor:middle;text-align:center">.</text>
</g>
<g>
<path style="fill:rgb(255, 0, 0);fill-opacity:1.0;fill-rule:evenodd;stroke:rgb(0, 0, 0);stroke-width:1.0;" d="M 135.133, 39.0581 L 107.866, 62.5178 L 107.555, 61.3989 L 133.778, 19.1694 z "/>
<text x="124.95945567329552" y="40.761141446017184" dy="0.3em" style="font-size:10px;fill:black;font-family:Sans;text-anchor:middle;text-align:center">.</text>
</g>
<g>
<path style="fill:rgb(255, 0, 0);fill-opacity:1.0;fill-rule:evenodd;stroke:rgb(0, 0, 0);stroke-width:1.0;" d="M 148.715, 54.9425 L 115.702, 90.7609 L 107.866, 62.5178 L 135.133, 39.0581 z "/>
<text x="126.5723606738432" y="62.81315290779466" dy="0.3em" style="font-size:10px;fill:black;font-family:Sans;text-anchor:middle;text-align:center">.</text>
</g>
<g>
<path style="fill:rgb(255, 127, 0);fill-opacity:1.0;fill-rule:evenodd;stroke:rgb(0, 0, 0);stroke-width:1.0;" d="M 36.0344, 289.231 L 37.5859, 300 L 0, 300 L 0, 282.136 z "/>
<text x="16.848030366791026" y="292.75444676249424" dy="0.3em" style="font-size:10px;fill:black;font-family:Sans;text-anchor:middle;text-align:center">.</text>
</g>
<g>
<path style="fill:rgb(255, 127, 0);fill-opacity:1.0;fill-rule:evenodd;stroke:rgb(0, 0, 0);stroke-width:1.0;" d="M 47.0385, 249.203 L 36.0344, 289.231 L 0, 282.136 L 0, 246.089 L 44.6623, 246.051 z "/>
<text x="21.744615258829324" y="265.15135908350436" dy="0.3em" style="font-size:10px;fill:black;font-family:Sans;text-anchor:middle;text-align:center">.</text>
</g>
<g>
<path style="fill:rgb(255, 127, 0);fill-opacity:1.0;fill-rule:evenodd;stroke:rgb(0, 0, 0);stroke-width:1.0;" d="M 85.3292, 300 L 51.2194, 300 L 64.2394, 272.022 z "/>
<text x="66.92931471251669" y="290.67408934995933" dy="0.3em" style="font-size:10px;fill:black;font-family:Sans;text-anchor:middle;text-align:center">.</text>
</g>
<g>
<path style="fill:rgb(255, 127, 0);fill-opacity:1.0;fill-rule:evenodd;stroke:rgb(0, 0, 0);stroke-width:1.0;" d="M 64.2394, 272.022 L 51.2194, 300 L 37.5859, 300 L 36.0344, 289.231 L 47.0385, 249.203 z "/>
<text x="48.91500068532313" y="278.27996749860546" dy="0.3em" style="font-size:10px;fill:black;font-family:Sans;text-anchor:middle;text-align:center">.</text>
</g>
<g>
<path style="fill:rgb(255, 255, 0);fill-opacity:1.0;fill-rule:evenodd;stroke:rgb(0, 0, 0);stroke-width:1.0;" d="M 129.118, 111.428 L 139.422, 130.863 L 113.565, 161.703 L 102.051, 114.134 L 121.008, 109.882 z "/>
<text x="119.6222081079196" y="130.66451640090588" dy="0.3em" style="font-size:10px;fill:black;font-family:Sans;text-anchor:middle;text-align:center">.</text>
</g>
<g>
<path style="fill:rgb(255, 255, 0);fill-opacity:1.0;fill-rule:evenodd;stroke:rgb(0, 0, 0);stroke-width:1.0;" d="M 164.169, 177.541 L 160.871, 185.57 L 119.041, 184.328 L 115.47, 169.572 L 157.574, 165.101 z "/>
<text x="140.63075971528968" y="176.05230629609738" dy="0.3em" style="font-size:10px;fill:black;font-family:Sans;text-anchor:middle;text-align:center">.</text>
</g>
<g>
<path style="fill:rgb(255, 255, 0);fill-opacity:1.0;fill-rule:evenodd;stroke:rgb(0, 0, 0);stroke-width:1.0;" d="M 160.871, 185.57 L 159.455, 189.017 L 153.849, 194.057 L 141.606, 194.798 L 121.184, 193.179 L 119.041, 184.328 z "/>
<text x="139.09349826049146" y="189.3574404997433" dy="0.3em" style="font-size:10px;fill:black;font-family:Sans;text-anchor:middle;text-align:center">.</text>
</g>
<g>
<path style="fill:rgb(255, 255, 0);fill-opacity:1.0;fill-rule:evenodd;stroke:rgb(0, 0, 0);stroke-width:1.0;" d="M 157.574, 165.101 L 115.47, 169.572 L 113.565, 161.703 L 139.422, 130.863 z "/>
<text x="135.33335618641237" y="155.01241761886234" dy="0.3em" style="font-size:10px;fill:black;font-family:Sans;text-anchor:middle;text-align:center">.</text>
</g>
<g>
<path style="fill:rgb(0, 255, 0);fill-opacity:1.0;fill-rule:evenodd;stroke:rgb(0, 0, 0);stroke-width:1.0;" d="M 117.601, 280.458 L 112.892, 300 L 86.2104, 300 L 97.1515, 272.688 L 103.513, 261.542 z "/>
<text x="103.32698011160778" y="285.20811788488413" dy="0.3em" style="font-size:10px;fill:black;font-family:Sans;text-anchor:middle;text-align:center">.</text>
</g>
<g>
<path style="fill:rgb(0, 255, 0);fill-opacity:1.0;fill-rule:evenodd;stroke:rgb(0, 0, 0);stroke-width:1.0;" d="M 156.195, 213.036 L 130.065, 272.192 L 117.601, 280.458 L 103.513, 261.542 L 141.606, 194.798 L 153.849, 194.057 z "/>
<text x="131.56092299704875" y="237.60866236596607" dy="0.3em" style="font-size:10px;fill:black;font-family:Sans;text-anchor:middle;text-align:center">.</text>
</g>
<g>
<path style="fill:rgb(0, 255, 0);fill-opacity:1.0;fill-rule:evenodd;stroke:rgb(0, 0, 0);stroke-width:1.0;" d="M 165.948, 291.928 L 166.946, 300 L 112.892, 300 L 117.601, 280.458 L 130.065, 272.192 z "/>
<text x="137.34619927272308" y="289.6894051213684" dy="0.3em" style="font-size:10px;fill:black;font-family:Sans;text-anchor:middle;text-align:center">.</text>
</g>
<g>
<path style="fill:rgb(0, 255, 0);fill-opacity:1.0;fill-rule:evenodd;stroke:rgb(0, 0, 0);stroke-width:1.0;" d="M 165.948, 291.928 L 130.065, 272.192 L 156.195, 213.036 z "/>
<text x="150.7359613056648" y="259.051932522598" dy="0.3em" style="font-size:10px;fill:black;font-family:Sans;text-anchor:middle;text-align:center">.</text>
</g>
<g>
<path style="fill:rgb(150, 0, 255);fill-opacity:1.0;fill-rule:evenodd;stroke:rgb(0, 0, 0);stroke-width:1.0;" d="M 194.698, 205.697 L 183.788, 229.056 L 183.494, 229.103 L 153.914, 194.577 L 153.849, 194.057 L 159.455, 189.017 z "/>
<text x="175.6857904453708" y="207.0071041970142" dy="0.3em" style="font-size:10px;fill:black;font-family:Sans;text-anchor:middle;text-align:center">.</text>
</g>
<g>
<path style="fill:rgb(150, 0, 255);fill-opacity:1.0;fill-rule:evenodd;stroke:rgb(0, 0, 0);stroke-width:1.0;" d="M 213.5, 214.596 L 234.703, 255.663 L 183.788, 229.056 L 194.698, 205.697 z "/>
<text x="207.19745248181363" y="228.7754490918372" dy="0.3em" style="font-size:10px;fill:black;font-family:Sans;text-anchor:middle;text-align:center">.</text>
</g>
<g>
<path style="fill:rgb(150, 0, 255);fill-opacity:1.0;fill-rule:evenodd;stroke:rgb(0, 0, 0);stroke-width:1.0;" d="M 234.703, 255.663 L 243.074, 271.877 L 224.523, 300 L 166.946, 300 L 160.473, 247.639 L 183.494, 229.103 L 183.788, 229.056 z "/>
<text x="197.76868062404262" y="269.1448003345557" dy="0.3em" style="font-size:10px;fill:black;font-family:Sans;text-anchor:middle;text-align:center">.</text>
</g>
<g>
<path style="fill:rgb(150, 0, 255);fill-opacity:1.0;fill-rule:evenodd;stroke:rgb(0, 0, 0);stroke-width:1.0;" d="M 183.494, 229.103 L 160.473, 247.639 L 153.914, 194.577 z "/>
<text x="165.96014094969877" y="223.77315680063276" dy="0.3em" style="font-size:10px;fill:black;font-family:Sans;text-anchor:middle;text-align:center">.</text>
</g>
<g>
<path style="fill:rgb(255, 0, 255);fill-opacity:1.0;fill-rule:evenodd;stroke:rgb(0, 0, 0);stroke-width:1.0;" d="M 245.296, 135.278 L 243.034, 160.455 L 194.956, 151.709 L 204.094, 97.6347 z "/>
<text x="218.9817428067962" y="134.98245487379342" dy="0.3em" style="font-size:10px;fill:black;font-family:Sans;text-anchor:middle;text-align:center">.</text>
</g>
<g>
<path style="fill:rgb(255, 0, 255);fill-opacity:1.0;fill-rule:evenodd;stroke:rgb(0, 0, 0);stroke-width:1.0;" d="M 250.979, 110.161 L 245.296, 135.278 L 204.094, 97.6347 L 206.611, 82.7404 L 247.74, 69.1984 z "/>
<text x="231.68866154871716" y="98.32463199980856" dy="0.3em" style="font-size:10px;fill:black;font-family:Sans;text-anchor:middle;text-align:center">.</text>
</g>
<g>
<path style="fill:rgb(255, 0, 255);fill-opacity:1.0;fill-rule:evenodd;stroke:rgb(0, 0, 0);stroke-width:1.0;" d="M 300, 118.475 L 250.979, 110.161 L 247.74, 69.1984 L 300, 51.9914 z "/>
<text x="276.6462201266039" y="86.92949304902466" dy="0.3em" style="font-size:10px;fill:black;font-family:Sans;text-anchor:middle;text-align:center">.</text>
</g>
<g>
<path style="fill:rgb(255, 0, 255);fill-opacity:1.0;fill-rule:evenodd;stroke:rgb(0, 0, 0);stroke-width:1.0;" d="M 300, 118.475 L 300, 159.879 L 262.101, 163.923 L 243.034, 160.455 L 245.296, 135.278 L 250.979, 110.161 z "/>
<text x="271.9497485872254" y="138.60507581558255" dy="0.3em" style="font-size:10px;fill:black;font-family:Sans;text-anchor:middle;text-align:center">.</text>
</g>
<g>
<path style="fill:rgb(0, 255, 255);fill-opacity:1.0;fill-rule:evenodd;stroke:rgb(0, 0, 0);stroke-width:1.0;" d="M 121.184, 193.179 L 141.606, 194.798 L 128.726, 217.366 L 114.111, 197.682 L 113.045, 193.174 z "/>
<text x="127.17818148604304" y="201.6933079699847" dy="0.3em" style="font-size:10px;fill:black;font-family:Sans;text-anchor:middle;text-align:center">.</text>
</g>
<g>
<path style="fill:rgb(0, 255, 255);fill-opacity:1.0;fill-rule:evenodd;stroke:rgb(0, 0, 0);stroke-width:1.0;" d="M 113.045, 193.174 L 114.111, 197.682 L 105.142, 205.162 L 106.561, 193.17 z "/>
<text x="109.21474657436285" y="197.74570753814896" dy="0.3em" style="font-size:10px;fill:black;font-family:Sans;text-anchor:middle;text-align:center">.</text>
</g>
<g>
<path style="fill:rgb(0, 255, 255);fill-opacity:1.0;fill-rule:evenodd;stroke:rgb(0, 0, 0);stroke-width:1.0;" d="M 122.338, 228.559 L 97.1515, 272.688 L 102.472, 227.721 z "/>
<text x="107.32054384938083" y="242.9893676309891" dy="0.3em" style="font-size:10px;fill:black;font-family:Sans;text-anchor:middle;text-align:center">.</text>
</g>
<g>
<path style="fill:rgb(0, 255, 255);fill-opacity:1.0;fill-rule:evenodd;stroke:rgb(0, 0, 0);stroke-width:1.0;" d="M 128.726, 217.366 L 122.338, 228.559 L 102.472, 227.721 L 105.142, 205.162 L 114.111, 197.682 z "/>
<text x="114.35238391626137" y="215.74198103870793" dy="0.3em" style="font-size:10px;fill:black;font-family:Sans;text-anchor:middle;text-align:center">.</text>
</g>
<g>
<path style="fill:rgb(150, 150, 150);fill-opacity:1.0;fill-rule:evenodd;stroke:rgb(0, 0, 0);stroke-width:1.0;" d="M 108.468, 140.646 L 88.0067, 138.019 L 71.0313, 116.88 L 102.051, 114.134 z "/>
<text x="92.37125412054752" y="126.4019421425585" dy="0.3em" style="font-size:10px;fill:black;font-family:Sans;text-anchor:middle;text-align:center">.</text>
</g>
<g>
<path style="fill:rgb(150, 150, 150);fill-opacity:1.0;fill-rule:evenodd;stroke:rgb(0, 0, 0);stroke-width:1.0;" d="M 108.468, 140.646 L 110.194, 147.774 L 89.3247, 191.61 L 78.3068, 190.612 L 65.3067, 171.084 L 88.0067, 138.019 z "/>
<text x="88.06007248448319" y="163.63311365313302" dy="0.3em" style="font-size:10px;fill:black;font-family:Sans;text-anchor:middle;text-align:center">.</text>
</g>
<g>
<path style="fill:rgb(150, 150, 150);fill-opacity:1.0;fill-rule:evenodd;stroke:rgb(0, 0, 0);stroke-width:1.0;" d="M 88.0067, 138.019 L 65.3067, 171.084 L 31.5494, 120.376 L 71.0313, 116.88 z "/>
<text x="62.16055241291774" y="138.05045238790908" dy="0.3em" style="font-size:10px;fill:black;font-family:Sans;text-anchor:middle;text-align:center">.</text>
</g>
<g>
<path style="fill:rgb(150, 150, 150);fill-opacity:1.0;fill-rule:evenodd;stroke:rgb(0, 0, 0);stroke-width:1.0;" d="M 121.184, 193.179 L 106.561, 193.17 L 89.3247, 191.61 L 110.194, 147.774 z "/>
<text x="106.88171236703647" y="177.7571837779912" dy="0.3em" style="font-size:10px;fill:black;font-family:Sans;text-anchor:middle;text-align:center">.</text>
</g>
</svg>