<?xml version="1.0" encoding="iso-8859-1" standalone="no"?>
<!DOCTYPE svg PUBLIC "-//W3C//DTD SVG 1.0//EN" "http://www.w3.org/TR/2001/REC-SVG-20010904/DTD/svg10.dtd">
<svg xmlns="http://www.w3.org/2000/svg" width="300" height="300">
<g>
<path style="fill:rgb(0, 0, 255);fill-opacity:1.0;fill-rule:evenodd;stroke:rgb(0, 0, 0);stroke-width:1.0;" d="M 300, 114.055 L 241.79, 92.4405 L 239.778, 0 L 300, 0 z "/>
<text x="271.4411348191713" y="51.49249181244056" dy="0.3em" style="font-size:10px;fill:black;font-family:Sans;text-anchor:middle;text-align:center"></text>
</g>
<g>
<path style="fill:rgb(0, 0, 255);fill-opacity:1.0;fill-rule:evenodd;stroke:rgb(0, 0, 0);stroke-width:1.0;" d="M 300, 114.055 L 300, 160.379 L 253.082, 188.268 L 222.436, 189.335 L 202.841, 163.348 L 220.227, 94.4019 L 241.79, 92.4405 z "/>
<text x="251.0280888181716" y="141.50719224931802" dy="0.3em" style="font-size:10px;fill:black;font-family:Sans;text-anchor:middle;text-align:center"></text>
</g>
<g>
<path style="fill:rgb(0, 0, 255);fill-opacity:1.0;fill-rule:evenodd;stroke:rgb(0, 0, 0);stroke-width:1.0;" d="M 144.471, 130.425 L 117.297, 140.578 L 57.8119, 132.589 L 41.2115, 108.921 L 136.273, 83.0059 z "/>
<text x="100.07803863422416" y="114.88719240836686" dy="0.3em" style="font-size:10px;fill:black;font-family:Sans;text-anchor:middle;text-align:center"></text>
</g>
<g>
<path style="fill:rgb(0, 0, 255);fill-opacity:1.0;fill-rule:evenodd;stroke:rgb(0, 0, 0);stroke-width:1.0;" d="M 206.758, 300 L 206.336, 300 L 162.62, 264.184 L 143.239, 219.182 L 201.446, 211.729 z "/>
<text x="181.25433701265393" y="247.2245986624592" dy="0.3em" style="font-size:10px;fill:black;font-family:Sans;text-anchor:middle;text-align:center"></text>
</g>
<g>
<path style="fill:rgb(0, 0, 255);fill-opacity:1.0;fill-rule:evenodd;stroke:rgb(0, 0, 0);stroke-width:1.0;" d="M 143.239, 219.182 L 162.62, 264.184 L 127.94, 277.935 L 77.1362, 235.05 L 85.4557, 224.77 L 121.425, 214.403 z "/>
<text x="123.05123089727256" y="243.78251301791136" dy="0.3em" style="font-size:10px;fill:black;font-family:Sans;text-anchor:middle;text-align:center"></text>
</g>
<g>
<path style="fill:rgb(0, 0, 255);fill-opacity:1.0;fill-rule:evenodd;stroke:rgb(0, 0, 0);stroke-width:1.0;" d="M 41.2115, 108.921 L 57.8119, 132.589 L 81.8177, 201.891 L 85.4557, 224.77 L 77.1362, 235.05 L 67.6451, 241.118 L 5.20417e-16, 132.899 L 5.20417e-16, 90.1488 z "/>
<text x="42.627031864346975" y="161.2151267116505" dy="0.3em" style="font-size:10px;fill:black;font-family:Sans;text-anchor:middle;text-align:center"></text>
</g>
<g>
<path style="fill:rgb(0, 0, 255);fill-opacity:1.0;fill-rule:evenodd;stroke:rgb(0, 0, 0);stroke-width:1.0;" d="M 206.336, 300 L 141.18, 300 L 127.94, 277.935 L 162.62, 264.184 z "/>
<text x="162.50030840895593" y="285.9379422408356" dy="0.3em" style="font-size:10px;fill:black;font-family:Sans;text-anchor:middle;text-align:center"></text>
</g>
<g>
<path style="fill:rgb(255, 200, 150);fill-opacity:1.0;fill-rule:evenodd;stroke:rgb(0, 0, 0);stroke-width:1.0;" d="M 121.425, 214.403 L 85.4557, 224.77 L 84.0507, 215.934 L 131.725, 190.531 z "/>
<text x="108.15951459650013" y="210.0941144297835" dy="0.3em" style="font-size:10px;fill:black;font-family:Sans;text-anchor:middle;text-align:center">.</text>
</g>
<g>
<path style="fill:rgb(255, 200, 150);fill-opacity:1.0;fill-rule:evenodd;stroke:rgb(0, 0, 0);stroke-width:1.0;" d="M 131.979, 189.942 L 115.27, 167.112 L 146.97, 155.196 z "/>
<text x="131.40638948984824" y="170.75010693411502" dy="0.3em" style="font-size:10px;fill:black;font-family:Sans;text-anchor:middle;text-align:center"></text>
</g>
<g>
<path style="fill:rgb(255, 200, 150);fill-opacity:1.0;fill-rule:evenodd;stroke:rgb(0, 0, 0);stroke-width:1.0;" d="M 115.27, 167.112 L 131.979, 189.942 L 131.725, 190.531 L 84.0507, 215.934 L 81.8177, 201.891 L 102.774, 165.675 z "/>
<text x="104.97146894781952" y="189.51792174997027" dy="0.3em" style="font-size:10px;fill:black;font-family:Sans;text-anchor:middle;text-align:center"></text>
</g>
<g>
<path style="fill:rgb(255, 200, 150);fill-opacity:1.0;fill-rule:evenodd;stroke:rgb(0, 0, 0);stroke-width:1.0;" d="M 152.814, 141.653 L 146.97, 155.196 L 115.27, 167.112 L 102.774, 165.675 L 117.297, 140.578 L 144.471, 130.425 z "/>
<text x="129.33431070889316" y="149.61537676642376" dy="0.3em" style="font-size:10px;fill:black;font-family:Sans;text-anchor:middle;text-align:center"></text>
</g>
<g>
<path style="fill:rgb(255, 200, 150);fill-opacity:1.0;fill-rule:evenodd;stroke:rgb(0, 0, 0);stroke-width:1.0;" d="M 53.7376, 286.389 L 26.2873, 275.194 L 51.2501, 254.626 z "/>
<text x="43.758313808512035" y="272.0697215322927" dy="0.3em" style="font-size:10px;fill:black;font-family:Sans;text-anchor:middle;text-align:center"></text>
</g>
<g>
<path style="fill:rgb(255, 200, 150);fill-opacity:1.0;fill-rule:evenodd;stroke:rgb(0, 0, 0);stroke-width:1.0;" d="M 53.7376, 286.389 L 62.0318, 300 L 5.20417e-16, 300 L 0, 296.852 L 26.2873, 275.194 z "/>
<text x="31.183913658217907" y="291.01595939914193" dy="0.3em" style="font-size:10px;fill:black;font-family:Sans;text-anchor:middle;text-align:center">.</text>
</g>
<g>
<path style="fill:rgb(255, 200, 150);fill-opacity:1.0;fill-rule:evenodd;stroke:rgb(0, 0, 0);stroke-width:1.0;" d="M 127.94, 277.935 L 141.18, 300 L 88.8607, 300 L 71.4889, 238.661 L 77.1362, 235.05 z "/>
<text x="101.86523167761742" y="275.49854785859816" dy="0.3em" style="font-size:10px;fill:black;font-family:Sans;text-anchor:middle;text-align:center">.</text>
</g>
<g>
<path style="fill:rgb(255, 200, 150);fill-opacity:1.0;fill-rule:evenodd;stroke:rgb(0, 0, 0);stroke-width:1.0;" d="M 88.8607, 300 L 62.0318, 300 L 53.7376, 286.389 L 51.2501, 254.626 L 67.6451, 241.118 L 71.4889, 238.661 z "/>
<text x="68.07080490041086" y="273.9389520833751" dy="0.3em" style="font-size:10px;fill:black;font-family:Sans;text-anchor:middle;text-align:center">.</text>
</g>
<g>
<path style="fill:rgb(255, 200, 150);fill-opacity:1.0;fill-rule:evenodd;stroke:rgb(0, 0, 0);stroke-width:1.0;" d="M 300, 221.631 L 300, 248.647 L 266.226, 254.025 L 258.272, 214.233 L 263.571, 212.859 z "/>
<text x="279.66152972867246" y="233.46495650365864" dy="0.3em" style="font-size:10px;fill:black;font-family:Sans;text-anchor:middle;text-align:center">.</text>
</g>
<g>
<path style="fill:rgb(255, 200, 150);fill-opacity:1.0;fill-rule:evenodd;stroke:rgb(0, 0, 0);stroke-width:1.0;" d="M 300, 221.631 L 263.571, 212.859 L 300, 172.216 z "/>
<text x="287.85687395761613" y="202.23519598431696" dy="0.3em" style="font-size:10px;fill:black;font-family:Sans;text-anchor:middle;text-align:center"></text>
</g>
<g>
<path style="fill:rgb(255, 200, 150);fill-opacity:1.0;fill-rule:evenodd;stroke:rgb(0, 0, 0);stroke-width:1.0;" d="M 300, 300 L 275.415, 300 L 266.226, 254.025 L 300, 248.647 z "/>
<text x="285.5085554341839" y="274.31132527288395" dy="0.3em" style="font-size:10px;fill:black;font-family:Sans;text-anchor:middle;text-align:center"></text>
</g>
<g>
<path style="fill:rgb(255, 200, 150);fill-opacity:1.0;fill-rule:evenodd;stroke:rgb(0, 0, 0);stroke-width:1.0;" d="M 300, 172.216 L 263.571, 212.859 L 258.272, 214.233 L 253.082, 188.268 L 300, 160.379 z "/>
<text x="274.55745867516697" y="187.31214330075167" dy="0.3em" style="font-size:10px;fill:black;font-family:Sans;text-anchor:middle;text-align:center"></text>
</g>
<g>
<path style="fill:rgb(255, 0, 0);fill-opacity:1.0;fill-rule:evenodd;stroke:rgb(0, 0, 0);stroke-width:1.0;" d="M 253.898, 254.513 L 211.799, 300 L 206.758, 300 L 204.267, 258.606 L 231.169, 245.856 z "/>
<text x="223.35544079824209" y="268.8134120403866" dy="0.3em" style="font-size:10px;fill:black;font-family:Sans;text-anchor:middle;text-align:center">.</text>
</g>
<g>
<path style="fill:rgb(255, 0, 0);fill-opacity:1.0;fill-rule:evenodd;stroke:rgb(0, 0, 0);stroke-width:1.0;" d="M 231.169, 245.856 L 204.267, 258.606 L 201.446, 211.729 L 214.943, 197.329 z "/>
<text x="213.74064241970268" y="230.42540949775517" dy="0.3em" style="font-size:10px;fill:black;font-family:Sans;text-anchor:middle;text-align:center">.</text>
</g>
<g>
<path style="fill:rgb(255, 0, 0);fill-opacity:1.0;fill-rule:evenodd;stroke:rgb(0, 0, 0);stroke-width:1.0;" d="M 265.81, 251.944 L 253.898, 254.513 L 231.169, 245.856 L 214.943, 197.329 L 222.436, 189.335 L 253.082, 188.268 z "/>
<text x="241.50298677089336" y="219.49896836991763" dy="0.3em" style="font-size:10px;fill:black;font-family:Sans;text-anchor:middle;text-align:center">.</text>
</g>
<g>
<path style="fill:rgb(255, 0, 0);fill-opacity:1.0;fill-rule:evenodd;stroke:rgb(0, 0, 0);stroke-width:1.0;" d="M 275.415, 300 L 211.799, 300 L 253.898, 254.513 L 265.81, 251.944 z "/>
<text x="250.1168284364397" y="282.097655495242" dy="0.3em" style="font-size:10px;fill:black;font-family:Sans;text-anchor:middle;text-align:center">.</text>
</g>
<g>
<path style="fill:rgb(255, 127, 0);fill-opacity:1.0;fill-rule:evenodd;stroke:rgb(0, 0, 0);stroke-width:1.0;" d="M 151.769, 53.4985 L 136.273, 83.0059 L 71.7226, 100.604 L 46.3362, 67.6847 L 72.6861, 37.7122 z "/>
<text x="95.9822704246113" y="67.858454834337" dy="0.3em" style="font-size:10px;fill:black;font-family:Sans;text-anchor:middle;text-align:center">.</text>
</g>
<g>
<path style="fill:rgb(255, 127, 0);fill-opacity:1.0;fill-rule:evenodd;stroke:rgb(0, 0, 0);stroke-width:1.0;" d="M 71.7226, 100.604 L 41.2115, 108.921 L 5.20417e-16, 90.1488 L 5.20417e-16, 75.4279 L 46.3362, 67.6847 z "/>
<text x="34.51398472629798" y="88.00326813015376" dy="0.3em" style="font-size:10px;fill:black;font-family:Sans;text-anchor:middle;text-align:center">.</text>
</g>
<g>
<path style="fill:rgb(255, 127, 0);fill-opacity:1.0;fill-rule:evenodd;stroke:rgb(0, 0, 0);stroke-width:1.0;" d="M 154.608, 48.0937 L 151.769, 53.4985 L 72.6861, 37.7122 L 53.763, 0 L 152.589, 0 z "/>
<text x="111.17936309897185" y="22.279537128607537" dy="0.3em" style="font-size:10px;fill:black;font-family:Sans;text-anchor:middle;text-align:center">.</text>
</g>
<g>
<path style="fill:rgb(255, 127, 0);fill-opacity:1.0;fill-rule:evenodd;stroke:rgb(0, 0, 0);stroke-width:1.0;" d="M 72.6861, 37.7122 L 46.3362, 67.6847 L 5.20417e-16, 75.4279 L 5.20417e-16, 0 L 53.763, 0 z "/>
<text x="30.512241081432524" y="34.92472046221595" dy="0.3em" style="font-size:10px;fill:black;font-family:Sans;text-anchor:middle;text-align:center">.</text>
</g>
<g>
<path style="fill:rgb(255, 255, 0);fill-opacity:1.0;fill-rule:evenodd;stroke:rgb(0, 0, 0);stroke-width:1.0;" d="M 167.274, 145.353 L 182.632, 153.124 L 123.057, 214.76 L 121.425, 214.403 L 152.814, 141.653 z "/>
<text x="152.1573943135426" y="170.35130203057565" dy="0.3em" style="font-size:10px;fill:black;font-family:Sans;text-anchor:middle;text-align:center">.</text>
</g>
<g>
<path style="fill:rgb(255, 255, 0);fill-opacity:1.0;fill-rule:evenodd;stroke:rgb(0, 0, 0);stroke-width:1.0;" d="M 196.647, 160.214 L 191.309, 169.722 L 153.857, 217.822 L 143.239, 219.182 L 123.057, 214.76 L 182.632, 153.124 z "/>
<text x="161.797755152002" y="189.34743355101438" dy="0.3em" style="font-size:10px;fill:black;font-family:Sans;text-anchor:middle;text-align:center">.</text>
</g>
<g>
<path style="fill:rgb(255, 255, 0);fill-opacity:1.0;fill-rule:evenodd;stroke:rgb(0, 0, 0);stroke-width:1.0;" d="M 198.002, 212.17 L 153.857, 217.822 L 191.309, 169.722 z "/>
<text x="181.0561239480871" y="199.90474770884964" dy="0.3em" style="font-size:10px;fill:black;font-family:Sans;text-anchor:middle;text-align:center">.</text>
</g>
<g>
<path style="fill:rgb(255, 255, 0);fill-opacity:1.0;fill-rule:evenodd;stroke:rgb(0, 0, 0);stroke-width:1.0;" d="M 202.841, 163.348 L 222.436, 189.335 L 201.446, 211.729 L 198.002, 212.17 L 191.309, 169.722 L 196.647, 160.214 z "/>
<text x="204.13518578414096" y="185.90182292690713" dy="0.3em" style="font-size:10px;fill:black;font-family:Sans;text-anchor:middle;text-align:center">.</text>
</g>
<g>
<path style="fill:rgb(0, 255, 0);fill-opacity:1.0;fill-rule:evenodd;stroke:rgb(0, 0, 0);stroke-width:1.0;" d="M 200.311, 118.558 L 189.604, 114.301 L 203.414, 95.0968 z "/>
<text x="197.77644828412997" y="109.3186690657286" dy="0.3em" style="font-size:10px;fill:black;font-family:Sans;text-anchor:middle;text-align:center">.</text>
</g>
<g>
<path style="fill:rgb(0, 255, 0);fill-opacity:1.0;fill-rule:evenodd;stroke:rgb(0, 0, 0);stroke-width:1.0;" d="M 200.311, 118.558 L 212.542, 124.879 L 208.847, 139.529 L 181.469, 125.614 L 189.604, 114.301 z "/>
<text x="198.22611338018817" y="126.22952408524083" dy="0.3em" style="font-size:10px;fill:black;font-family:Sans;text-anchor:middle;text-align:center">.</text>
</g>
<g>
<path style="fill:rgb(0, 255, 0);fill-opacity:1.0;fill-rule:evenodd;stroke:rgb(0, 0, 0);stroke-width:1.0;" d="M 220.227, 94.4019 L 212.542, 124.879 L 200.311, 118.558 L 203.414, 95.0968 L 207.977, 88.752 z "/>
<text x="209.67021558865156" y="106.12498757745885" dy="0.3em" style="font-size:10px;fill:black;font-family:Sans;text-anchor:middle;text-align:center">.</text>
</g>
<g>
<path style="fill:rgb(0, 255, 0);fill-opacity:1.0;fill-rule:evenodd;stroke:rgb(0, 0, 0);stroke-width:1.0;" d="M 208.847, 139.529 L 202.841, 163.348 L 167.274, 145.353 L 181.469, 125.614 z "/>
<text x="189.88257115502003" y="143.92814424614906" dy="0.3em" style="font-size:10px;fill:black;font-family:Sans;text-anchor:middle;text-align:center">.</text>
</g>
<g>
<path style="fill:rgb(150, 0, 255);fill-opacity:1.0;fill-rule:evenodd;stroke:rgb(0, 0, 0);stroke-width:1.0;" d="M 117.297, 140.578 L 99.1193, 171.992 L 91.9857, 157.004 L 89.9807, 136.91 z "/>
<text x="101.21143096807114" y="150.424109813089" dy="0.3em" style="font-size:10px;fill:black;font-family:Sans;text-anchor:middle;text-align:center">.</text>
</g>
<g>
<path style="fill:rgb(150, 0, 255);fill-opacity:1.0;fill-rule:evenodd;stroke:rgb(0, 0, 0);stroke-width:1.0;" d="M 88.5716, 136.72 L 67.1082, 159.426 L 57.8119, 132.589 z "/>
<text x="71.16390598624511" y="142.91188443954505" dy="0.3em" style="font-size:10px;fill:black;font-family:Sans;text-anchor:middle;text-align:center">.</text>
</g>
<g>
<path style="fill:rgb(150, 0, 255);fill-opacity:1.0;fill-rule:evenodd;stroke:rgb(0, 0, 0);stroke-width:1.0;" d="M 89.9807, 136.91 L 91.9857, 157.004 L 69.7897, 167.168 L 67.1082, 159.426 L 88.5716, 136.72 z "/>
<text x="81.15856718253963" y="153.49764156831188" dy="0.3em" style="font-size:10px;fill:black;font-family:Sans;text-anchor:middle;text-align:center">.</text>
</g>
<g>
<path style="fill:rgb(150, 0, 255);fill-opacity:1.0;fill-rule:evenodd;stroke:rgb(0, 0, 0);stroke-width:1.0;" d="M 99.1193, 171.992 L 81.8177, 201.891 L 69.7897, 167.168 L 91.9857, 157.004 z "/>
<text x="84.5811600512228" y="175.91088310633512" dy="0.3em" style="font-size:10px;fill:black;font-family:Sans;text-anchor:middle;text-align:center">.</text>
</g>
<g>
<path style="fill:rgb(255, 0, 255);fill-opacity:1.0;fill-rule:evenodd;stroke:rgb(0, 0, 0);stroke-width:1.0;" d="M 240.939, 53.3413 L 230.142, 50.656 L 201.924, 23.3975 L 196.488, 0 L 239.778, 0 z "/>
<text x="222.75406759955857" y="21.210960496705066" dy="0.3em" style="font-size:10px;fill:black;font-family:Sans;text-anchor:middle;text-align:center">.</text>
</g>
<g>
<path style="fill:rgb(255, 0, 255);fill-opacity:1.0;fill-rule:evenodd;stroke:rgb(0, 0, 0);stroke-width:1.0;" d="M 201.924, 23.3975 L 154.489, 45.2762 L 152.589, 0 L 196.488, 0 z "/>
<text x="174.13813942829555" y="18.071672946550756" dy="0.3em" style="font-size:10px;fill:black;font-family:Sans;text-anchor:middle;text-align:center">.</text>
</g>
<g>
<path style="fill:rgb(255, 0, 255);fill-opacity:1.0;fill-rule:evenodd;stroke:rgb(0, 0, 0);stroke-width:1.0;" d="M 230.142, 50.656 L 169, 59.0586 L 154.608, 48.0937 L 154.489, 45.2762 L 201.924, 23.3975 z "/>
<text x="191.39882400770162" y="43.8597582810945" dy="0.3em" style="font-size:10px;fill:black;font-family:Sans;text-anchor:middle;text-align:center">.</text>
</g>
<g>
<path style="fill:rgb(255, 0, 255);fill-opacity:1.0;fill-rule:evenodd;stroke:rgb(0, 0, 0);stroke-width:1.0;" d="M 240.939, 53.3413 L 241.79, 92.4405 L 220.227, 94.4019 L 207.977, 88.752 L 169, 59.0586 L 230.142, 50.656 z "/>
<text x="214.90053752881084" y="70.74259077035701" dy="0.3em" style="font-size:10px;fill:black;font-family:Sans;text-anchor:middle;text-align:center">.</text>
</g>
<g>
<path style="fill:rgb(0, 255, 255);fill-opacity:1.0;fill-rule:evenodd;stroke:rgb(0, 0, 0);stroke-width:1.0;" d="M 57.8725, 225.484 L 67.6451, 241.118 L 5.20417e-16, 296.852 L 5.20417e-16, 214.713 z "/>
<text x="24.975066136254608" y="247.90177950742907" dy="0.3em" style="font-size:10px;fill:black;font-family:Sans;text-anchor:middle;text-align:center">.</text>
</g>
<g>
<path style="fill:rgb(0, 255, 255);fill-opacity:1.0;fill-rule:evenodd;stroke:rgb(0, 0, 0);stroke-width:1.0;" d="M 29.9118, 180.752 L 25.6603, 182.592 L 5.20417e-16, 176.604 L 5.20417e-16, 132.899 z "/>
<text x="10.42102483648942" y="164.29034452387177" dy="0.3em" style="font-size:10px;fill:black;font-family:Sans;text-anchor:middle;text-align:center">.</text>
</g>
<g>
<path style="fill:rgb(0, 255, 255);fill-opacity:1.0;fill-rule:evenodd;stroke:rgb(0, 0, 0);stroke-width:1.0;" d="M 57.8725, 225.484 L 5.20417e-16, 214.713 L 5.20417e-16, 211.191 L 25.6603, 182.592 L 29.9118, 180.752 z "/>
<text x="28.114080335386607" y="206.31305202553114" dy="0.3em" style="font-size:10px;fill:black;font-family:Sans;text-anchor:middle;text-align:center">.</text>
</g>
<g>
<path style="fill:rgb(0, 255, 255);fill-opacity:1.0;fill-rule:evenodd;stroke:rgb(0, 0, 0);stroke-width:1.0;" d="M 25.6603, 182.592 L 5.20417e-16, 211.191 L 5.20417e-16, 176.604 z "/>
<text x="8.553418426182189" y="190.12875991811163" dy="0.3em" style="font-size:10px;fill:black;font-family:Sans;text-anchor:middle;text-align:center">.</text>
</g>
<g>
<path style="fill:rgb(150, 150, 150);fill-opacity:1.0;fill-rule:evenodd;stroke:rgb(0, 0, 0);stroke-width:1.0;" d="M 196.85, 80.2748 L 176.181, 92.3144 L 137.611, 90.7419 L 136.273, 83.0059 L 136.515, 82.5457 L 171.46, 60.9321 z "/>
<text x="166.14861610937686" y="79.771215194886" dy="0.3em" style="font-size:10px;fill:black;font-family:Sans;text-anchor:middle;text-align:center">.</text>
</g>
<g>
<path style="fill:rgb(150, 150, 150);fill-opacity:1.0;fill-rule:evenodd;stroke:rgb(0, 0, 0);stroke-width:1.0;" d="M 176.181, 92.3144 L 182.237, 124.546 L 167.274, 145.353 L 152.814, 141.653 L 144.471, 130.425 L 137.611, 90.7419 z "/>
<text x="160.31146545015753" y="115.28601324364539" dy="0.3em" style="font-size:10px;fill:black;font-family:Sans;text-anchor:middle;text-align:center">.</text>
</g>
<g>
<path style="fill:rgb(150, 150, 150);fill-opacity:1.0;fill-rule:evenodd;stroke:rgb(0, 0, 0);stroke-width:1.0;" d="M 171.46, 60.9321 L 136.515, 82.5457 L 154.608, 48.0937 z "/>
<text x="154.19408085004596" y="63.85717882128501" dy="0.3em" style="font-size:10px;fill:black;font-family:Sans;text-anchor:middle;text-align:center">.</text>
</g>
<g>
<path style="fill:rgb(150, 150, 150);fill-opacity:1.0;fill-rule:evenodd;stroke:rgb(0, 0, 0);stroke-width:1.0;" d="M 207.977, 88.752 L 182.237, 124.546 L 176.181, 92.3144 L 196.85, 80.2748 z "/>
<text x="189.90935713893782" y="98.50503503226285" dy="0.3em" style="font-size:10px;fill:black;font-family:Sans;text-anchor:middle;text-align:center">.</text>
</g>
</svg>