<?xml version="1.0" encoding="iso-8859-1" standalone="no"?>
<!DOCTYPE svg PUBLIC "-//W3C//DTD SVG 1.0//EN" "http://www.w3.org/TR/2001/REC-SVG-20010904/DTD/svg10.dtd">
<svg xmlns="http://www.w3.org/2000/svg" width="300" height="300">
<g>
<path style="fill:rgb(0, 0, 255);fill-opacity:1.0;fill-rule:evenodd;stroke:rgb(0, 0, 0);stroke-width:1.0;" d="M 115.671, 179.294 L 145.366, 251.477 L 66.9157, 260.802 L 57.2653, 247.134 L 59.1735, 238.425 L 100.081, 171.747 z "/>
<text x="100.69782871640312" y="224.89171782067774" dy="0.3em" style="font-size:10px;fill:black;font-family:Sans;text-anchor:middle;text-align:center"></text>
</g>
<g>
<path style="fill:rgb(0, 0, 255);fill-opacity:1.0;fill-rule:evenodd;stroke:rgb(0, 0, 0);stroke-width:1.0;" d="M 298.774, 45.3598 L 166.448, 99.2069 L 133.78, 96.5771 L 104.839, 86.9663 L 110.409, 45.656 L 169.019, 27.0636 z "/>
<text x="180.96010688546505" y="60.96088315196163" dy="0.3em" style="font-size:10px;fill:black;font-family:Sans;text-anchor:middle;text-align:center"></text>
</g>
<g>
<path style="fill:rgb(0, 0, 255);fill-opacity:1.0;fill-rule:evenodd;stroke:rgb(0, 0, 0);stroke-width:1.0;" d="M 300, 300 L 176.855, 300 L 166.608, 256.425 L 207.857, 208.658 L 300, 188.346 z "/>
<text x="241.69595972286487" y="252.08572225034047" dy="0.3em" style="font-size:10px;fill:black;font-family:Sans;text-anchor:middle;text-align:center"></text>
</g>
<g>
<path style="fill:rgb(0, 0, 255);fill-opacity:1.0;fill-rule:evenodd;stroke:rgb(0, 0, 0);stroke-width:1.0;" d="M 133.78, 96.5771 L 162.784, 176.18 L 115.671, 179.294 L 100.081, 171.747 L 79.3386, 107.121 L 104.839, 86.9663 z "/>
<text x="119.18512657184615" y="136.23162497257948" dy="0.3em" style="font-size:10px;fill:black;font-family:Sans;text-anchor:middle;text-align:center"></text>
</g>
<g>
<path style="fill:rgb(0, 0, 255);fill-opacity:1.0;fill-rule:evenodd;stroke:rgb(0, 0, 0);stroke-width:1.0;" d="M 0, 75.6157 L 0, 0 L 73.5871, 0 z "/>
<text x="24.52903064015228" y="25.20523960160598" dy="0.3em" style="font-size:10px;fill:black;font-family:Sans;text-anchor:middle;text-align:center"></text>
</g>
<g>
<path style="fill:rgb(0, 0, 255);fill-opacity:1.0;fill-rule:evenodd;stroke:rgb(0, 0, 0);stroke-width:1.0;" d="M 110.409, 45.656 L 104.839, 86.9663 L 79.3386, 107.121 L 62.5306, 108.286 L 0, 86.635 L 0, 75.6157 L 73.5871, 0 L 95.9888, 0 z "/>
<text x="64.08256447836469" y="59.40634486936257" dy="0.3em" style="font-size:10px;fill:black;font-family:Sans;text-anchor:middle;text-align:center"></text>
</g>
<g>
<path style="fill:rgb(0, 0, 255);fill-opacity:1.0;fill-rule:evenodd;stroke:rgb(0, 0, 0);stroke-width:1.0;" d="M 62.5306, 108.286 L 43.963, 144.563 L 18.8745, 172.886 L 0, 180.275 L 0, 86.635 z "/>
<text x="22.761859832342182" y="129.58497688294437" dy="0.3em" style="font-size:10px;fill:black;font-family:Sans;text-anchor:middle;text-align:center"></text>
</g>
<g>
<path style="fill:rgb(0, 0, 255);fill-opacity:1.0;fill-rule:evenodd;stroke:rgb(0, 0, 0);stroke-width:1.0;" d="M 166.448, 99.2069 L 181.333, 129.315 L 182.16, 184.12 L 162.784, 176.18 L 133.78, 96.5771 z "/>
<text x="163.05698111290621" y="135.38120081179642" dy="0.3em" style="font-size:10px;fill:black;font-family:Sans;text-anchor:middle;text-align:center"></text>
</g>
<g>
<path style="fill:rgb(0, 0, 255);fill-opacity:1.0;fill-rule:evenodd;stroke:rgb(0, 0, 0);stroke-width:1.0;" d="M 166.608, 256.425 L 176.855, 300 L 63.7774, 300 L 66.9157, 260.802 L 145.366, 251.477 z "/>
<text x="119.98926960902122" y="278.24457576749955" dy="0.3em" style="font-size:10px;fill:black;font-family:Sans;text-anchor:middle;text-align:center"></text>
</g>
<g>
<path style="fill:rgb(255, 200, 150);fill-opacity:1.0;fill-rule:evenodd;stroke:rgb(0, 0, 0);stroke-width:1.0;" d="M 57.2653, 247.134 L 66.9157, 260.802 L 66.6029, 264.708 L 31.6881, 274.396 L 22.1945, 269.653 L 0, 238.674 L 0, 238.353 z "/>
<text x="35.01741698126961" y="256.1407822769594" dy="0.3em" style="font-size:10px;fill:black;font-family:Sans;text-anchor:middle;text-align:center"></text>
</g>
<g>
<path style="fill:rgb(255, 200, 150);fill-opacity:1.0;fill-rule:evenodd;stroke:rgb(0, 0, 0);stroke-width:1.0;" d="M 31.6881, 274.396 L 25.6695, 300 L 0, 300 L 0, 285.04 L 22.1945, 269.653 z "/>
<text x="15.974844636175028" y="287.01027510541803" dy="0.3em" style="font-size:10px;fill:black;font-family:Sans;text-anchor:middle;text-align:center"></text>
</g>
<g>
<path style="fill:rgb(255, 200, 150);fill-opacity:1.0;fill-rule:evenodd;stroke:rgb(0, 0, 0);stroke-width:1.0;" d="M 22.1945, 269.653 L 0, 285.04 L 0, 238.674 z "/>
<text x="7.398177232106912" y="264.45554940078176" dy="0.3em" style="font-size:10px;fill:black;font-family:Sans;text-anchor:middle;text-align:center">.</text>
</g>
<g>
<path style="fill:rgb(255, 200, 150);fill-opacity:1.0;fill-rule:evenodd;stroke:rgb(0, 0, 0);stroke-width:1.0;" d="M 63.7774, 300 L 25.6695, 300 L 31.6881, 274.396 L 66.6029, 264.708 z "/>
<text x="47.91743067873262" y="284.9653894346787" dy="0.3em" style="font-size:10px;fill:black;font-family:Sans;text-anchor:middle;text-align:center"></text>
</g>
<g>
<path style="fill:rgb(255, 0, 0);fill-opacity:1.0;fill-rule:evenodd;stroke:rgb(0, 0, 0);stroke-width:1.0;" d="M 169.019, 27.0636 L 152.917, 32.1715 L 144.36, 15.5802 L 152.62, 0 L 168.858, 0 z "/>
<text x="158.27689406417977" y="15.069802015901367" dy="0.3em" style="font-size:10px;fill:black;font-family:Sans;text-anchor:middle;text-align:center">.</text>
</g>
<g>
<path style="fill:rgb(255, 0, 0);fill-opacity:1.0;fill-rule:evenodd;stroke:rgb(0, 0, 0);stroke-width:1.0;" d="M 124.511, 22.9266 L 108.494, 39.5917 L 95.9888, 0 L 117.742, 0 z "/>
<text x="110.81081265481949" y="15.932330851662392" dy="0.3em" style="font-size:10px;fill:black;font-family:Sans;text-anchor:middle;text-align:center">.</text>
</g>
<g>
<path style="fill:rgb(255, 0, 0);fill-opacity:1.0;fill-rule:evenodd;stroke:rgb(0, 0, 0);stroke-width:1.0;" d="M 152.917, 32.1715 L 110.409, 45.656 L 108.494, 39.5917 L 124.511, 22.9266 L 144.36, 15.5802 z "/>
<text x="131.22710267688285" y="30.79997390343841" dy="0.3em" style="font-size:10px;fill:black;font-family:Sans;text-anchor:middle;text-align:center">.</text>
</g>
<g>
<path style="fill:rgb(255, 0, 0);fill-opacity:1.0;fill-rule:evenodd;stroke:rgb(0, 0, 0);stroke-width:1.0;" d="M 144.36, 15.5802 L 124.511, 22.9266 L 117.742, 0 L 152.62, 0 z "/>
<text x="133.72846971659976" y="8.873764615499525" dy="0.3em" style="font-size:10px;fill:black;font-family:Sans;text-anchor:middle;text-align:center">.</text>
</g>
<g>
<path style="fill:rgb(255, 127, 0);fill-opacity:1.0;fill-rule:evenodd;stroke:rgb(0, 0, 0);stroke-width:1.0;" d="M 25.3283, 181.9 L 28.6193, 218.84 L 18.9475, 223.413 L 0, 197.414 L 0, 180.275 L 18.8745, 172.886 z "/>
<text x="15.165810071715068" y="196.61077147630738" dy="0.3em" style="font-size:10px;fill:black;font-family:Sans;text-anchor:middle;text-align:center">.</text>
</g>
<g>
<path style="fill:rgb(255, 127, 0);fill-opacity:1.0;fill-rule:evenodd;stroke:rgb(0, 0, 0);stroke-width:1.0;" d="M 18.9475, 223.413 L 6.52069, 239.353 L 0, 238.353 L 0, 197.414 z "/>
<text x="6.599352391986633" y="221.55017627369872" dy="0.3em" style="font-size:10px;fill:black;font-family:Sans;text-anchor:middle;text-align:center">.</text>
</g>
<g>
<path style="fill:rgb(255, 127, 0);fill-opacity:1.0;fill-rule:evenodd;stroke:rgb(0, 0, 0);stroke-width:1.0;" d="M 51.5752, 218.561 L 53.9577, 224.789 L 28.6193, 218.84 L 25.3283, 181.9 z "/>
<text x="36.55540317481772" y="208.50260549726698" dy="0.3em" style="font-size:10px;fill:black;font-family:Sans;text-anchor:middle;text-align:center">.</text>
</g>
<g>
<path style="fill:rgb(255, 127, 0);fill-opacity:1.0;fill-rule:evenodd;stroke:rgb(0, 0, 0);stroke-width:1.0;" d="M 53.9577, 224.789 L 59.1735, 238.425 L 57.2653, 247.134 L 6.52069, 239.353 L 18.9475, 223.413 L 28.6193, 218.84 z "/>
<text x="35.60184456429684" y="233.39585209479722" dy="0.3em" style="font-size:10px;fill:black;font-family:Sans;text-anchor:middle;text-align:center">.</text>
</g>
<g>
<path style="fill:rgb(255, 255, 0);fill-opacity:1.0;fill-rule:evenodd;stroke:rgb(0, 0, 0);stroke-width:1.0;" d="M 96.7071, 161.235 L 100.081, 171.747 L 82.9975, 199.593 L 59.8041, 165.695 L 55.3856, 154.376 z "/>
<text x="79.66511562412633" y="172.58289490216524" dy="0.3em" style="font-size:10px;fill:black;font-family:Sans;text-anchor:middle;text-align:center">.</text>
</g>
<g>
<path style="fill:rgb(255, 255, 0);fill-opacity:1.0;fill-rule:evenodd;stroke:rgb(0, 0, 0);stroke-width:1.0;" d="M 82.9975, 199.593 L 59.1735, 238.425 L 52.6667, 221.414 L 59.8041, 165.695 z "/>
<text x="65.09302609836661" y="202.84348084519908" dy="0.3em" style="font-size:10px;fill:black;font-family:Sans;text-anchor:middle;text-align:center">.</text>
</g>
<g>
<path style="fill:rgb(255, 255, 0);fill-opacity:1.0;fill-rule:evenodd;stroke:rgb(0, 0, 0);stroke-width:1.0;" d="M 96.7071, 161.235 L 55.3856, 154.376 L 44.045, 145.36 L 43.963, 144.563 L 62.5306, 108.286 L 79.3386, 107.121 z "/>
<text x="70.60592223380493" y="136.16627611857044" dy="0.3em" style="font-size:10px;fill:black;font-family:Sans;text-anchor:middle;text-align:center">.</text>
</g>
<g>
<path style="fill:rgb(255, 255, 0);fill-opacity:1.0;fill-rule:evenodd;stroke:rgb(0, 0, 0);stroke-width:1.0;" d="M 55.3856, 154.376 L 59.8041, 165.695 L 52.6667, 221.414 L 51.5752, 218.561 L 44.045, 145.36 z "/>
<text x="52.103583035307466" y="176.67896705468007" dy="0.3em" style="font-size:10px;fill:black;font-family:Sans;text-anchor:middle;text-align:center">.</text>
</g>
<g>
<path style="fill:rgb(0, 255, 0);fill-opacity:1.0;fill-rule:evenodd;stroke:rgb(0, 0, 0);stroke-width:1.0;" d="M 300, 168.876 L 257.805, 154.809 L 262.989, 120.088 L 300, 110.036 z "/>
<text x="281.84127435444526" y="139.1776436045426" dy="0.3em" style="font-size:10px;fill:black;font-family:Sans;text-anchor:middle;text-align:center">.</text>
</g>
<g>
<path style="fill:rgb(0, 255, 0);fill-opacity:1.0;fill-rule:evenodd;stroke:rgb(0, 0, 0);stroke-width:1.0;" d="M 235.625, 101.472 L 193.898, 133.504 L 181.333, 129.315 L 166.448, 99.2069 L 230.849, 73.0003 z "/>
<text x="202.67199845816768" y="103.41818422474323" dy="0.3em" style="font-size:10px;fill:black;font-family:Sans;text-anchor:middle;text-align:center">.</text>
</g>
<g>
<path style="fill:rgb(0, 255, 0);fill-opacity:1.0;fill-rule:evenodd;stroke:rgb(0, 0, 0);stroke-width:1.0;" d="M 300, 110.036 L 262.989, 120.088 L 235.625, 101.472 L 230.849, 73.0003 L 298.774, 45.3598 L 300, 45.1405 z "/>
<text x="270.2277878631771" y="85.21178798251576" dy="0.3em" style="font-size:10px;fill:black;font-family:Sans;text-anchor:middle;text-align:center">.</text>
</g>
<g>
<path style="fill:rgb(0, 255, 0);fill-opacity:1.0;fill-rule:evenodd;stroke:rgb(0, 0, 0);stroke-width:1.0;" d="M 262.989, 120.088 L 257.805, 154.809 L 193.898, 133.504 L 235.625, 101.472 z "/>
<text x="235.16155953007038" y="128.75331920572256" dy="0.3em" style="font-size:10px;fill:black;font-family:Sans;text-anchor:middle;text-align:center">.</text>
</g>
<g>
<path style="fill:rgb(150, 0, 255);fill-opacity:1.0;fill-rule:evenodd;stroke:rgb(0, 0, 0);stroke-width:1.0;" d="M 300, 1.40554 L 254.326, 39.0924 L 227.4, 35.2957 L 238.499, 0 L 300, 0 z "/>
<text x="257.71538081725106" y="16.41346684798777" dy="0.3em" style="font-size:10px;fill:black;font-family:Sans;text-anchor:middle;text-align:center">.</text>
</g>
<g>
<path style="fill:rgb(150, 0, 255);fill-opacity:1.0;fill-rule:evenodd;stroke:rgb(0, 0, 0);stroke-width:1.0;" d="M 300, 45.1405 L 298.774, 45.3598 L 254.326, 39.0924 L 300, 1.40554 z "/>
<text x="284.77191740790755" y="28.672867250838127" dy="0.3em" style="font-size:10px;fill:black;font-family:Sans;text-anchor:middle;text-align:center">.</text>
</g>
<g>
<path style="fill:rgb(150, 0, 255);fill-opacity:1.0;fill-rule:evenodd;stroke:rgb(0, 0, 0);stroke-width:1.0;" d="M 197.644, 31.0999 L 169.019, 27.0636 L 168.858, 0 L 184.185, 0 z "/>
<text x="180.4335653665823" y="15.949664470513548" dy="0.3em" style="font-size:10px;fill:black;font-family:Sans;text-anchor:middle;text-align:center">.</text>
</g>
<g>
<path style="fill:rgb(150, 0, 255);fill-opacity:1.0;fill-rule:evenodd;stroke:rgb(0, 0, 0);stroke-width:1.0;" d="M 227.4, 35.2957 L 197.644, 31.0999 L 184.185, 0 L 238.499, 0 z "/>
<text x="212.44728142501228" y="14.998591095509044" dy="0.3em" style="font-size:10px;fill:black;font-family:Sans;text-anchor:middle;text-align:center">.</text>
</g>
<g>
<path style="fill:rgb(255, 0, 255);fill-opacity:1.0;fill-rule:evenodd;stroke:rgb(0, 0, 0);stroke-width:1.0;" d="M 169.4, 228.597 L 176.42, 237.814 L 158.285, 254.486 L 145.366, 251.477 L 135.359, 227.151 z "/>
<text x="155.44850201797493" y="238.91249956599162" dy="0.3em" style="font-size:10px;fill:black;font-family:Sans;text-anchor:middle;text-align:center">.</text>
</g>
<g>
<path style="fill:rgb(255, 0, 255);fill-opacity:1.0;fill-rule:evenodd;stroke:rgb(0, 0, 0);stroke-width:1.0;" d="M 180.157, 240.736 L 166.608, 256.425 L 158.285, 254.486 L 176.42, 237.814 z "/>
<text x="169.73554400561466" y="247.92084175050707" dy="0.3em" style="font-size:10px;fill:black;font-family:Sans;text-anchor:middle;text-align:center">.</text>
</g>
<g>
<path style="fill:rgb(255, 0, 255);fill-opacity:1.0;fill-rule:evenodd;stroke:rgb(0, 0, 0);stroke-width:1.0;" d="M 207.857, 208.658 L 180.157, 240.736 L 176.42, 237.814 L 169.4, 228.597 L 191.075, 192.633 z "/>
<text x="187.81853666003482" y="216.81677269840114" dy="0.3em" style="font-size:10px;fill:black;font-family:Sans;text-anchor:middle;text-align:center">.</text>
</g>
<g>
<path style="fill:rgb(255, 0, 255);fill-opacity:1.0;fill-rule:evenodd;stroke:rgb(0, 0, 0);stroke-width:1.0;" d="M 182.16, 184.12 L 191.075, 192.633 L 169.4, 228.597 L 135.359, 227.151 L 115.671, 179.294 L 162.784, 176.18 z "/>
<text x="153.3635089883269" y="200.50575940152495" dy="0.3em" style="font-size:10px;fill:black;font-family:Sans;text-anchor:middle;text-align:center">.</text>
</g>
<g>
<path style="fill:rgb(0, 255, 255);fill-opacity:1.0;fill-rule:evenodd;stroke:rgb(0, 0, 0);stroke-width:1.0;" d="M 48.3466, 187.175 L 51.5752, 218.561 L 25.9468, 182.764 L 29.7782, 180.293 z "/>
<text x="41.26642539420037" y="194.95551766946573" dy="0.3em" style="font-size:10px;fill:black;font-family:Sans;text-anchor:middle;text-align:center">.</text>
</g>
<g>
<path style="fill:rgb(0, 255, 255);fill-opacity:1.0;fill-rule:evenodd;stroke:rgb(0, 0, 0);stroke-width:1.0;" d="M 46.186, 166.173 L 48.3466, 187.175 L 29.7782, 180.293 L 37.081, 166.024 z "/>
<text x="40.46493848502618" y="176.05544796853678" dy="0.3em" style="font-size:10px;fill:black;font-family:Sans;text-anchor:middle;text-align:center">.</text>
</g>
<g>
<path style="fill:rgb(0, 255, 255);fill-opacity:1.0;fill-rule:evenodd;stroke:rgb(0, 0, 0);stroke-width:1.0;" d="M 37.081, 166.024 L 29.7782, 180.293 L 25.9468, 182.764 L 18.8745, 172.886 L 31.249, 158.916 z "/>
<text x="28.29647746092421" y="170.9990443207063" dy="0.3em" style="font-size:10px;fill:black;font-family:Sans;text-anchor:middle;text-align:center">.</text>
</g>
<g>
<path style="fill:rgb(0, 255, 255);fill-opacity:1.0;fill-rule:evenodd;stroke:rgb(0, 0, 0);stroke-width:1.0;" d="M 46.186, 166.173 L 37.081, 166.024 L 31.249, 158.916 L 43.963, 144.563 z "/>
<text x="40.07065032217309" y="157.7835067440777" dy="0.3em" style="font-size:10px;fill:black;font-family:Sans;text-anchor:middle;text-align:center">.</text>
</g>
<g>
<path style="fill:rgb(150, 150, 150);fill-opacity:1.0;fill-rule:evenodd;stroke:rgb(0, 0, 0);stroke-width:1.0;" d="M 238.983, 201.797 L 207.857, 208.658 L 182.16, 184.12 L 182.099, 180.103 L 234.581, 162.961 z "/>
<text x="214.7975223602013" y="186.85664446125713" dy="0.3em" style="font-size:10px;fill:black;font-family:Sans;text-anchor:middle;text-align:center">.</text>
</g>
<g>
<path style="fill:rgb(150, 150, 150);fill-opacity:1.0;fill-rule:evenodd;stroke:rgb(0, 0, 0);stroke-width:1.0;" d="M 300, 168.876 L 300, 188.346 L 257.154, 197.791 L 284.027, 163.551 z "/>
<text x="283.30770475550673" y="181.26307520280125" dy="0.3em" style="font-size:10px;fill:black;font-family:Sans;text-anchor:middle;text-align:center">.</text>
</g>
<g>
<path style="fill:rgb(150, 150, 150);fill-opacity:1.0;fill-rule:evenodd;stroke:rgb(0, 0, 0);stroke-width:1.0;" d="M 284.027, 163.551 L 257.154, 197.791 L 238.983, 201.797 L 234.581, 162.961 L 233.916, 146.845 z "/>
<text x="253.31273677097272" y="173.43457751019685" dy="0.3em" style="font-size:10px;fill:black;font-family:Sans;text-anchor:middle;text-align:center">.</text>
</g>
<g>
<path style="fill:rgb(150, 150, 150);fill-opacity:1.0;fill-rule:evenodd;stroke:rgb(0, 0, 0);stroke-width:1.0;" d="M 233.916, 146.845 L 234.581, 162.961 L 182.099, 180.103 L 181.333, 129.315 z "/>
<text x="203.44530183782248" y="154.82326703872363" dy="0.3em" style="font-size:10px;fill:black;font-family:Sans;text-anchor:middle;text-align:center">.</text>
</g>
</svg>