<?xml version="1.0" encoding="iso-8859-1" standalone="no"?>
<!DOCTYPE svg PUBLIC "-//W3C//DTD SVG 1.0//EN" "http://www.w3.org/TR/2001/REC-SVG-20010904/DTD/svg10.dtd">
<svg xmlns="http://www.w3.org/2000/svg" width="300" height="300">
<g>
<path style="fill:rgb(0, 0, 255);fill-opacity:1.0;fill-rule:evenodd;stroke:rgb(0, 0, 0);stroke-width:1.0;" d="M 300, 79.9265 L 203.762, 65.405 L 200.15, 57.0878 L 283.608, 0 L 300, 0 z "/>
<text x="263.7046741244782" y="44.779121708815545" dy="0.3em" style="font-size:10px;fill:black;font-family:Sans;text-anchor:middle;text-align:center"></text>
</g>
<g>
<path style="fill:rgb(0, 0, 255);fill-opacity:1.0;fill-rule:evenodd;stroke:rgb(0, 0, 0);stroke-width:1.0;" d="M 96.8475, 243.142 L 25.096, 267.173 L 0, 270.159 L 0, 233.829 L 53.9024, 194.411 z "/>
<text x="42.111843188259265" y="236.31142212134134" dy="0.3em" style="font-size:10px;fill:black;font-family:Sans;text-anchor:middle;text-align:center"></text>
</g>
<g>
<path style="fill:rgb(0, 0, 255);fill-opacity:1.0;fill-rule:evenodd;stroke:rgb(0, 0, 0);stroke-width:1.0;" d="M 300, 300 L 219.516, 300 L 213.23, 273.76 L 220.324, 234.576 L 300, 212.072 z "/>
<text x="260.42360329253614" y="261.73114011580344" dy="0.3em" style="font-size:10px;fill:black;font-family:Sans;text-anchor:middle;text-align:center"></text>
</g>
<g>
<path style="fill:rgb(0, 0, 255);fill-opacity:1.0;fill-rule:evenodd;stroke:rgb(0, 0, 0);stroke-width:1.0;" d="M 179.467, 127.785 L 192.094, 132.301 L 193.927, 188.078 L 123.763, 184.377 L 91.0551, 161.449 L 86.4477, 118.393 z "/>
<text x="142.60209883661395" y="153.19185343222975" dy="0.3em" style="font-size:10px;fill:black;font-family:Sans;text-anchor:middle;text-align:center"></text>
</g>
<g>
<path style="fill:rgb(0, 0, 255);fill-opacity:1.0;fill-rule:evenodd;stroke:rgb(0, 0, 0);stroke-width:1.0;" d="M 120.341, 243.685 L 126.569, 259.797 L 118.487, 270.91 L 25.096, 267.173 L 96.8475, 243.142 z "/>
<text x="88.68815458685795" y="258.7767912572597" dy="0.3em" style="font-size:10px;fill:black;font-family:Sans;text-anchor:middle;text-align:center"></text>
</g>
<g>
<path style="fill:rgb(0, 0, 255);fill-opacity:1.0;fill-rule:evenodd;stroke:rgb(0, 0, 0);stroke-width:1.0;" d="M 200.15, 57.0878 L 203.762, 65.405 L 211.705, 94.804 L 192.094, 132.301 L 179.467, 127.785 L 109.503, 45.0287 L 115.326, 20.0788 z "/>
<text x="165.17419483932576" y="73.59756775663762" dy="0.3em" style="font-size:10px;fill:black;font-family:Sans;text-anchor:middle;text-align:center"></text>
</g>
<g>
<path style="fill:rgb(0, 0, 255);fill-opacity:1.0;fill-rule:evenodd;stroke:rgb(0, 0, 0);stroke-width:1.0;" d="M 115.326, 20.0788 L 109.503, 45.0287 L 86.4085, 118.262 L 27.3911, 112.555 L 0, 19.0795 L 0, 0 L 107.484, 0 z "/>
<text x="57.82623430536244" y="51.577805423387034" dy="0.3em" style="font-size:10px;fill:black;font-family:Sans;text-anchor:middle;text-align:center"></text>
</g>
<g>
<path style="fill:rgb(0, 0, 255);fill-opacity:1.0;fill-rule:evenodd;stroke:rgb(0, 0, 0);stroke-width:1.0;" d="M 300, 79.9265 L 300, 126.51 L 284.465, 128.066 L 211.705, 94.804 L 203.762, 65.405 z "/>
<text x="258.4556067492918" y="94.35608715498702" dy="0.3em" style="font-size:10px;fill:black;font-family:Sans;text-anchor:middle;text-align:center"></text>
</g>
<g>
<path style="fill:rgb(0, 0, 255);fill-opacity:1.0;fill-rule:evenodd;stroke:rgb(0, 0, 0);stroke-width:1.0;" d="M 86.4085, 118.262 L 86.4477, 118.393 L 91.0551, 161.449 L 53.9024, 194.411 L 0, 233.829 L 0, 120.396 L 27.3911, 112.555 z "/>
<text x="38.22593352810032" y="160.53268456538117" dy="0.3em" style="font-size:10px;fill:black;font-family:Sans;text-anchor:middle;text-align:center"></text>
</g>
<g>
<path style="fill:rgb(255, 255, 255);fill-opacity:1.0;fill-rule:evenodd;stroke:rgb(0, 0, 0);stroke-width:1.0;" d="M 118.487, 270.91 L 113.242, 300 L 0, 300 L 0, 270.159 L 25.096, 267.173 z "/>
<text x="57.19295556353191" y="284.33961270084984" dy="0.3em" style="font-size:10px;fill:black;font-family:Sans;text-anchor:middle;text-align:center"></text>
</g>
<g>
<path style="fill:rgb(255, 0, 0);fill-opacity:1.0;fill-rule:evenodd;stroke:rgb(0, 0, 0);stroke-width:1.0;" d="M 193.927, 188.078 L 201.626, 194.311 L 220.324, 234.576 L 219.049, 241.619 L 141.582, 217.399 L 172.05, 186.924 z "/>
<text x="184.7230422002265" y="212.84900668403307" dy="0.3em" style="font-size:10px;fill:black;font-family:Sans;text-anchor:middle;text-align:center">.</text>
</g>
<g>
<path style="fill:rgb(255, 0, 0);fill-opacity:1.0;fill-rule:evenodd;stroke:rgb(0, 0, 0);stroke-width:1.0;" d="M 172.05, 186.924 L 141.582, 217.399 L 137.407, 216.743 L 150.031, 185.762 z "/>
<text x="152.67154313505344" y="198.31558648688284" dy="0.3em" style="font-size:10px;fill:black;font-family:Sans;text-anchor:middle;text-align:center">.</text>
</g>
<g>
<path style="fill:rgb(255, 0, 0);fill-opacity:1.0;fill-rule:evenodd;stroke:rgb(0, 0, 0);stroke-width:1.0;" d="M 141.582, 217.399 L 219.049, 241.619 L 213.23, 273.76 L 126.569, 259.797 L 120.341, 243.685 L 121.665, 220.732 L 137.407, 216.743 z "/>
<text x="167.12014953533964" y="246.01072956041074" dy="0.3em" style="font-size:10px;fill:black;font-family:Sans;text-anchor:middle;text-align:center">.</text>
</g>
<g>
<path style="fill:rgb(255, 0, 0);fill-opacity:1.0;fill-rule:evenodd;stroke:rgb(0, 0, 0);stroke-width:1.0;" d="M 150.031, 185.762 L 137.407, 216.743 L 121.665, 220.732 L 123.763, 184.377 z "/>
<text x="133.2453520003354" y="200.33876713534065" dy="0.3em" style="font-size:10px;fill:black;font-family:Sans;text-anchor:middle;text-align:center">.</text>
</g>
<g>
<path style="fill:rgb(255, 127, 0);fill-opacity:1.0;fill-rule:evenodd;stroke:rgb(0, 0, 0);stroke-width:1.0;" d="M 213.23, 273.76 L 219.516, 300 L 205.21, 300 L 210.874, 273.38 z "/>
<text x="212.2274595780123" y="289.94569664903185" dy="0.3em" style="font-size:10px;fill:black;font-family:Sans;text-anchor:middle;text-align:center">.</text>
</g>
<g>
<path style="fill:rgb(255, 127, 0);fill-opacity:1.0;fill-rule:evenodd;stroke:rgb(0, 0, 0);stroke-width:1.0;" d="M 210.874, 273.38 L 205.21, 300 L 172.175, 300 L 181.412, 268.633 z "/>
<text x="191.92998639138764" y="285.64826746387223" dy="0.3em" style="font-size:10px;fill:black;font-family:Sans;text-anchor:middle;text-align:center">.</text>
</g>
<g>
<path style="fill:rgb(255, 127, 0);fill-opacity:1.0;fill-rule:evenodd;stroke:rgb(0, 0, 0);stroke-width:1.0;" d="M 181.412, 268.633 L 172.175, 300 L 164.499, 300 L 127.053, 259.874 z "/>
<text x="159.38420513409307" y="277.70724770403973" dy="0.3em" style="font-size:10px;fill:black;font-family:Sans;text-anchor:middle;text-align:center">.</text>
</g>
<g>
<path style="fill:rgb(255, 127, 0);fill-opacity:1.0;fill-rule:evenodd;stroke:rgb(0, 0, 0);stroke-width:1.0;" d="M 127.053, 259.874 L 164.499, 300 L 113.242, 300 L 118.487, 270.91 L 126.569, 259.797 z "/>
<text x="133.60067794148034" y="285.74036363015233" dy="0.3em" style="font-size:10px;fill:black;font-family:Sans;text-anchor:middle;text-align:center">.</text>
</g>
<g>
<path style="fill:rgb(255, 255, 0);fill-opacity:1.0;fill-rule:evenodd;stroke:rgb(0, 0, 0);stroke-width:1.0;" d="M 19.4641, 85.5035 L 0, 91.1005 L 0, 73.5516 L 14.6921, 69.2182 z "/>
<text x="8.604412887398787" y="80.23308134616686" dy="0.3em" style="font-size:10px;fill:black;font-family:Sans;text-anchor:middle;text-align:center">.</text>
</g>
<g>
<path style="fill:rgb(255, 255, 0);fill-opacity:1.0;fill-rule:evenodd;stroke:rgb(0, 0, 0);stroke-width:1.0;" d="M 14.6921, 69.2182 L 0, 73.5516 L 0, 19.0795 z "/>
<text x="4.897353992879322" y="53.949762936147934" dy="0.3em" style="font-size:10px;fill:black;font-family:Sans;text-anchor:middle;text-align:center">.</text>
</g>
<g>
<path style="fill:rgb(255, 255, 0);fill-opacity:1.0;fill-rule:evenodd;stroke:rgb(0, 0, 0);stroke-width:1.0;" d="M 25.0794, 104.666 L 0, 108.133 L 0, 91.1005 L 19.4641, 85.5035 z "/>
<text x="11.51506479443799" y="97.63152927307422" dy="0.3em" style="font-size:10px;fill:black;font-family:Sans;text-anchor:middle;text-align:center">.</text>
</g>
<g>
<path style="fill:rgb(255, 255, 0);fill-opacity:1.0;fill-rule:evenodd;stroke:rgb(0, 0, 0);stroke-width:1.0;" d="M 27.3911, 112.555 L 0, 120.396 L 0, 108.133 L 25.0794, 104.666 z "/>
<text x="12.306976753259345" y="111.70244833626867" dy="0.3em" style="font-size:10px;fill:black;font-family:Sans;text-anchor:middle;text-align:center">.</text>
</g>
<g>
<path style="fill:rgb(0, 255, 0);fill-opacity:1.0;fill-rule:evenodd;stroke:rgb(0, 0, 0);stroke-width:1.0;" d="M 284.465, 128.066 L 238.97, 164.447 L 222.799, 144.605 L 222.807, 139.198 L 268.574, 120.801 z "/>
<text x="250.5298000564478" y="140.38933957697222" dy="0.3em" style="font-size:10px;fill:black;font-family:Sans;text-anchor:middle;text-align:center">.</text>
</g>
<g>
<path style="fill:rgb(0, 255, 0);fill-opacity:1.0;fill-rule:evenodd;stroke:rgb(0, 0, 0);stroke-width:1.0;" d="M 222.807, 139.198 L 222.799, 144.605 L 193.808, 184.464 L 192.094, 132.301 L 199.867, 117.439 z "/>
<text x="204.06899824688205" y="147.22244691703673" dy="0.3em" style="font-size:10px;fill:black;font-family:Sans;text-anchor:middle;text-align:center">.</text>
</g>
<g>
<path style="fill:rgb(0, 255, 0);fill-opacity:1.0;fill-rule:evenodd;stroke:rgb(0, 0, 0);stroke-width:1.0;" d="M 268.574, 120.801 L 222.807, 139.198 L 199.867, 117.439 L 211.705, 94.804 z "/>
<text x="228.45670260409383" y="117.9789452665102" dy="0.3em" style="font-size:10px;fill:black;font-family:Sans;text-anchor:middle;text-align:center">.</text>
</g>
<g>
<path style="fill:rgb(0, 255, 0);fill-opacity:1.0;fill-rule:evenodd;stroke:rgb(0, 0, 0);stroke-width:1.0;" d="M 238.97, 164.447 L 201.626, 194.311 L 193.927, 188.078 L 193.808, 184.464 L 222.799, 144.605 z "/>
<text x="215.90646987560973" y="170.25324232049257" dy="0.3em" style="font-size:10px;fill:black;font-family:Sans;text-anchor:middle;text-align:center">.</text>
</g>
<g>
<path style="fill:rgb(150, 0, 255);fill-opacity:1.0;fill-rule:evenodd;stroke:rgb(0, 0, 0);stroke-width:1.0;" d="M 203.43, 24.3279 L 108.429, 2.41889 L 107.484, 0 L 204.794, 0 z "/>
<text x="169.29563283931495" y="8.174749744391995" dy="0.3em" style="font-size:10px;fill:black;font-family:Sans;text-anchor:middle;text-align:center">.</text>
</g>
<g>
<path style="fill:rgb(150, 0, 255);fill-opacity:1.0;fill-rule:evenodd;stroke:rgb(0, 0, 0);stroke-width:1.0;" d="M 205.361, 42.0741 L 206.923, 52.4546 L 200.15, 57.0878 L 115.326, 20.0788 L 113.423, 15.2071 z "/>
<text x="168.92188006236248" y="37.32398507191751" dy="0.3em" style="font-size:10px;fill:black;font-family:Sans;text-anchor:middle;text-align:center">.</text>
</g>
<g>
<path style="fill:rgb(150, 0, 255);fill-opacity:1.0;fill-rule:evenodd;stroke:rgb(0, 0, 0);stroke-width:1.0;" d="M 203.43, 24.3279 L 205.361, 42.0741 L 113.423, 15.2071 L 108.429, 2.41889 z "/>
<text x="160.76899064225893" y="21.761019269203295" dy="0.3em" style="font-size:10px;fill:black;font-family:Sans;text-anchor:middle;text-align:center">.</text>
</g>
<g>
<path style="fill:rgb(150, 0, 255);fill-opacity:1.0;fill-rule:evenodd;stroke:rgb(0, 0, 0);stroke-width:1.0;" d="M 206.923, 52.4546 L 205.361, 42.0741 L 203.43, 24.3279 L 204.794, 0 L 283.608, 0 z "/>
<text x="230.95439603801512" y="17.75912250087312" dy="0.3em" style="font-size:10px;fill:black;font-family:Sans;text-anchor:middle;text-align:center">.</text>
</g>
<g>
<path style="fill:rgb(255, 0, 255);fill-opacity:1.0;fill-rule:evenodd;stroke:rgb(0, 0, 0);stroke-width:1.0;" d="M 120.686, 237.711 L 120.341, 243.685 L 98.1412, 243.172 L 100.543, 237.25 z "/>
<text x="109.91816787308831" y="240.50268527685697" dy="0.3em" style="font-size:10px;fill:black;font-family:Sans;text-anchor:middle;text-align:center">.</text>
</g>
<g>
<path style="fill:rgb(255, 0, 255);fill-opacity:1.0;fill-rule:evenodd;stroke:rgb(0, 0, 0);stroke-width:1.0;" d="M 122.268, 210.291 L 120.686, 237.711 L 100.543, 237.25 L 107.15, 208.176 z "/>
<text x="112.46591147415432" y="223.98147387140799" dy="0.3em" style="font-size:10px;fill:black;font-family:Sans;text-anchor:middle;text-align:center">.</text>
</g>
<g>
<path style="fill:rgb(255, 0, 255);fill-opacity:1.0;fill-rule:evenodd;stroke:rgb(0, 0, 0);stroke-width:1.0;" d="M 123.763, 184.377 L 122.268, 210.291 L 107.15, 208.176 L 68.8088, 181.186 L 91.0551, 161.449 z "/>
<text x="100.19503664920782" y="186.3797344598449" dy="0.3em" style="font-size:10px;fill:black;font-family:Sans;text-anchor:middle;text-align:center">.</text>
</g>
<g>
<path style="fill:rgb(255, 0, 255);fill-opacity:1.0;fill-rule:evenodd;stroke:rgb(0, 0, 0);stroke-width:1.0;" d="M 107.15, 208.176 L 100.543, 237.25 L 98.1412, 243.172 L 96.8475, 243.142 L 53.9024, 194.411 L 68.8088, 181.186 z "/>
<text x="83.51220220269298" y="209.35454538524985" dy="0.3em" style="font-size:10px;fill:black;font-family:Sans;text-anchor:middle;text-align:center">.</text>
</g>
<g>
<path style="fill:rgb(0, 255, 255);fill-opacity:1.0;fill-rule:evenodd;stroke:rgb(0, 0, 0);stroke-width:1.0;" d="M 138.223, 78.9993 L 112.472, 94.701 L 96.5504, 86.1027 L 109.503, 45.0287 z "/>
<text x="114.98189059676527" y="73.77627414761318" dy="0.3em" style="font-size:10px;fill:black;font-family:Sans;text-anchor:middle;text-align:center">.</text>
</g>
<g>
<path style="fill:rgb(0, 255, 255);fill-opacity:1.0;fill-rule:evenodd;stroke:rgb(0, 0, 0);stroke-width:1.0;" d="M 159.76, 104.475 L 122.207, 115.612 L 112.472, 94.701 L 138.223, 78.9993 z "/>
<text x="134.29097468572687" y="98.50229820785614" dy="0.3em" style="font-size:10px;fill:black;font-family:Sans;text-anchor:middle;text-align:center">.</text>
</g>
<g>
<path style="fill:rgb(0, 255, 255);fill-opacity:1.0;fill-rule:evenodd;stroke:rgb(0, 0, 0);stroke-width:1.0;" d="M 112.472, 94.701 L 122.207, 115.612 L 121.418, 121.924 L 86.4477, 118.393 L 86.4085, 118.262 L 96.5504, 86.1027 z "/>
<text x="104.22194679987385" y="107.14135155701359" dy="0.3em" style="font-size:10px;fill:black;font-family:Sans;text-anchor:middle;text-align:center">.</text>
</g>
<g>
<path style="fill:rgb(0, 255, 255);fill-opacity:1.0;fill-rule:evenodd;stroke:rgb(0, 0, 0);stroke-width:1.0;" d="M 179.467, 127.785 L 121.418, 121.924 L 122.207, 115.612 L 159.76, 104.475 z "/>
<text x="150.57606684985413" y="117.42941897643084" dy="0.3em" style="font-size:10px;fill:black;font-family:Sans;text-anchor:middle;text-align:center">.</text>
</g>
<g>
<path style="fill:rgb(150, 150, 150);fill-opacity:1.0;fill-rule:evenodd;stroke:rgb(0, 0, 0);stroke-width:1.0;" d="M 300, 212.072 L 291.935, 214.35 L 279.067, 179.989 L 288.213, 127.691 L 300, 126.51 z "/>
<text x="291.8372239848708" y="169.8747380626251" dy="0.3em" style="font-size:10px;fill:black;font-family:Sans;text-anchor:middle;text-align:center">.</text>
</g>
<g>
<path style="fill:rgb(150, 150, 150);fill-opacity:1.0;fill-rule:evenodd;stroke:rgb(0, 0, 0);stroke-width:1.0;" d="M 279.067, 179.989 L 256.301, 204.99 L 235.856, 166.937 L 284.465, 128.066 L 288.213, 127.691 z "/>
<text x="263.998781748771" y="166.77541761617246" dy="0.3em" style="font-size:10px;fill:black;font-family:Sans;text-anchor:middle;text-align:center">.</text>
</g>
<g>
<path style="fill:rgb(150, 150, 150);fill-opacity:1.0;fill-rule:evenodd;stroke:rgb(0, 0, 0);stroke-width:1.0;" d="M 291.935, 214.35 L 250.882, 225.945 L 256.301, 204.99 L 279.067, 179.989 z "/>
<text x="271.8274883864068" y="206.20108171505706" dy="0.3em" style="font-size:10px;fill:black;font-family:Sans;text-anchor:middle;text-align:center">.</text>
</g>
<g>
<path style="fill:rgb(150, 150, 150);fill-opacity:1.0;fill-rule:evenodd;stroke:rgb(0, 0, 0);stroke-width:1.0;" d="M 256.301, 204.99 L 250.882, 225.945 L 220.324, 234.576 L 201.626, 194.311 L 235.856, 166.937 z "/>
<text x="230.43277933356057" y="203.2775311329943" dy="0.3em" style="font-size:10px;fill:black;font-family:Sans;text-anchor:middle;text-align:center">.</text>
</g>
</svg>