<?xml version="1.0" encoding="iso-8859-1" standalone="no"?>
<!DOCTYPE svg PUBLIC "-//W3C//DTD SVG 1.0//EN" "http://www.w3.org/TR/2001/REC-SVG-20010904/DTD/svg10.dtd">
<svg xmlns="http://www.w3.org/2000/svg" width="300" height="300">
<g>
<path style="fill:rgb(0, 0, 255);fill-opacity:1.0;fill-rule:evenodd;stroke:rgb(0, 0, 0);stroke-width:1.0;" d="M 300, 290.308 L 300, 300 L 241.053, 300 L 253.056, 256.159 z "/>
<text x="267.64441164382066" y="284.9026761835869" dy="0.3em" style="font-size:10px;fill:black;font-family:Sans;text-anchor:middle;text-align:center"></text>
</g>
<g>
<path style="fill:rgb(0, 0, 255);fill-opacity:1.0;fill-rule:evenodd;stroke:rgb(0, 0, 0);stroke-width:1.0;" d="M 159.787, 221.553 L 185.91, 300 L 4.16334e-15, 300 L 4.16334e-15, 288.261 L 153.816, 220.283 z "/>
<text x="108.04258360236325" y="272.34633131951637" dy="0.3em" style="font-size:10px;fill:black;font-family:Sans;text-anchor:middle;text-align:center"></text>
</g>
<g>
<path style="fill:rgb(0, 0, 255);fill-opacity:1.0;fill-rule:evenodd;stroke:rgb(0, 0, 0);stroke-width:1.0;" d="M 195.903, 39.0998 L 212.139, 75.7926 L 188.843, 108.866 L 171.008, 108.965 L 159.908, 31.1311 z "/>
<text x="183.926299282151" y="69.621968732076" dy="0.3em" style="font-size:10px;fill:black;font-family:Sans;text-anchor:middle;text-align:center"></text>
</g>
<g>
<path style="fill:rgb(0, 0, 255);fill-opacity:1.0;fill-rule:evenodd;stroke:rgb(0, 0, 0);stroke-width:1.0;" d="M 300, 111.029 L 266.924, 113.032 L 240.289, 77.9791 L 300, 23.6772 z "/>
<text x="278.01635430743755" y="76.51418098364614" dy="0.3em" style="font-size:10px;fill:black;font-family:Sans;text-anchor:middle;text-align:center"></text>
</g>
<g>
<path style="fill:rgb(0, 0, 255);fill-opacity:1.0;fill-rule:evenodd;stroke:rgb(0, 0, 0);stroke-width:1.0;" d="M 300, 176.096 L 300, 188.679 L 262.005, 180.588 L 235.047, 146.438 L 259.197, 124.058 z "/>
<text x="267.72980504058506" y="159.30815164785673" dy="0.3em" style="font-size:10px;fill:black;font-family:Sans;text-anchor:middle;text-align:center"></text>
</g>
<g>
<path style="fill:rgb(0, 0, 255);fill-opacity:1.0;fill-rule:evenodd;stroke:rgb(0, 0, 0);stroke-width:1.0;" d="M 80.6811, 97.4964 L 4.16334e-15, 223.269 L 4.16334e-15, 0 L 49.6755, 0 z "/>
<text x="30.402327810204405" y="91.1520492908281" dy="0.3em" style="font-size:10px;fill:black;font-family:Sans;text-anchor:middle;text-align:center"></text>
</g>
<g>
<path style="fill:rgb(0, 0, 255);fill-opacity:1.0;fill-rule:evenodd;stroke:rgb(0, 0, 0);stroke-width:1.0;" d="M 300, 23.6772 L 240.289, 77.9791 L 238.65, 78.0762 L 212.139, 75.7926 L 195.903, 39.0998 L 232.751, 0 L 300, 0 z "/>
<text x="246.61123266143514" y="34.39313928945719" dy="0.3em" style="font-size:10px;fill:black;font-family:Sans;text-anchor:middle;text-align:center"></text>
</g>
<g>
<path style="fill:rgb(0, 0, 255);fill-opacity:1.0;fill-rule:evenodd;stroke:rgb(0, 0, 0);stroke-width:1.0;" d="M 300, 188.679 L 300, 223.57 L 253.01, 254.055 L 206.571, 223.526 L 262.005, 180.588 z "/>
<text x="260.189762545681" y="215.87054336174313" dy="0.3em" style="font-size:10px;fill:black;font-family:Sans;text-anchor:middle;text-align:center"></text>
</g>
<g>
<path style="fill:rgb(255, 200, 150);fill-opacity:1.0;fill-rule:evenodd;stroke:rgb(0, 0, 0);stroke-width:1.0;" d="M 195.903, 39.0998 L 190.63, 37.9324 L 171.499, 18.8245 L 166.55, 0 L 232.751, 0 z "/>
<text x="195.657476672279" y="14.268170901049015" dy="0.3em" style="font-size:10px;fill:black;font-family:Sans;text-anchor:middle;text-align:center">.</text>
</g>
<g>
<path style="fill:rgb(255, 200, 150);fill-opacity:1.0;fill-rule:evenodd;stroke:rgb(0, 0, 0);stroke-width:1.0;" d="M 144.122, 4.82434 L 141.353, 23.4935 L 84.2774, 0 L 143.01, 0 z "/>
<text x="123.36137049304796" y="7.8699819736121155" dy="0.3em" style="font-size:10px;fill:black;font-family:Sans;text-anchor:middle;text-align:center">.</text>
</g>
<g>
<path style="fill:rgb(255, 200, 150);fill-opacity:1.0;fill-rule:evenodd;stroke:rgb(0, 0, 0);stroke-width:1.0;" d="M 171.499, 18.8245 L 190.63, 37.9324 L 159.908, 31.1311 L 141.353, 23.4935 L 144.122, 4.82434 z "/>
<text x="161.0706256187435" y="22.50174894292502" dy="0.3em" style="font-size:10px;fill:black;font-family:Sans;text-anchor:middle;text-align:center">.</text>
</g>
<g>
<path style="fill:rgb(255, 200, 150);fill-opacity:1.0;fill-rule:evenodd;stroke:rgb(0, 0, 0);stroke-width:1.0;" d="M 171.499, 18.8245 L 144.122, 4.82434 L 143.01, 0 L 166.55, 0 z "/>
<text x="158.79635575890686" y="6.6096132595297545" dy="0.3em" style="font-size:10px;fill:black;font-family:Sans;text-anchor:middle;text-align:center"></text>
</g>
<g>
<path style="fill:rgb(255, 200, 150);fill-opacity:1.0;fill-rule:evenodd;stroke:rgb(0, 0, 0);stroke-width:1.0;" d="M 294.49, 133.75 L 292.131, 164.295 L 275.084, 122.93 z "/>
<text x="287.23504147436165" y="140.32469895724833" dy="0.3em" style="font-size:10px;fill:black;font-family:Sans;text-anchor:middle;text-align:center"></text>
</g>
<g>
<path style="fill:rgb(255, 200, 150);fill-opacity:1.0;fill-rule:evenodd;stroke:rgb(0, 0, 0);stroke-width:1.0;" d="M 300, 133.111 L 294.49, 133.75 L 275.084, 122.93 L 266.47, 113.68 L 266.924, 113.032 L 300, 111.029 z "/>
<text x="287.4527555473038" y="120.49978420505252" dy="0.3em" style="font-size:10px;fill:black;font-family:Sans;text-anchor:middle;text-align:center"></text>
</g>
<g>
<path style="fill:rgb(255, 200, 150);fill-opacity:1.0;fill-rule:evenodd;stroke:rgb(0, 0, 0);stroke-width:1.0;" d="M 275.084, 122.93 L 292.131, 164.295 L 292.621, 166.686 L 259.197, 124.058 L 266.47, 113.68 z "/>
<text x="274.3552745150419" y="135.0963344238285" dy="0.3em" style="font-size:10px;fill:black;font-family:Sans;text-anchor:middle;text-align:center">.</text>
</g>
<g>
<path style="fill:rgb(255, 200, 150);fill-opacity:1.0;fill-rule:evenodd;stroke:rgb(0, 0, 0);stroke-width:1.0;" d="M 300, 176.096 L 292.621, 166.686 L 292.131, 164.295 L 294.49, 133.75 L 300, 133.111 z "/>
<text x="296.72374537811794" y="153.57091518652436" dy="0.3em" style="font-size:10px;fill:black;font-family:Sans;text-anchor:middle;text-align:center"></text>
</g>
<g>
<path style="fill:rgb(255, 0, 0);fill-opacity:1.0;fill-rule:evenodd;stroke:rgb(0, 0, 0);stroke-width:1.0;" d="M 261.324, 105.663 L 238.974, 108.555 L 234.926, 107.352 L 238.65, 78.0762 L 240.289, 77.9791 z "/>
<text x="245.07119117351658" y="96.94585962581415" dy="0.3em" style="font-size:10px;fill:black;font-family:Sans;text-anchor:middle;text-align:center">.</text>
</g>
<g>
<path style="fill:rgb(255, 0, 0);fill-opacity:1.0;fill-rule:evenodd;stroke:rgb(0, 0, 0);stroke-width:1.0;" d="M 266.709, 112.75 L 244.19, 116.211 L 238.974, 108.555 L 261.324, 105.663 z "/>
<text x="252.68434211012664" y="110.82685066834645" dy="0.3em" style="font-size:10px;fill:black;font-family:Sans;text-anchor:middle;text-align:center">.</text>
</g>
<g>
<path style="fill:rgb(255, 0, 0);fill-opacity:1.0;fill-rule:evenodd;stroke:rgb(0, 0, 0);stroke-width:1.0;" d="M 266.924, 113.032 L 259.197, 124.058 L 249.347, 133.186 L 244.19, 116.211 L 266.709, 112.75 z "/>
<text x="254.0043169124473" y="120.92436478687024" dy="0.3em" style="font-size:10px;fill:black;font-family:Sans;text-anchor:middle;text-align:center">.</text>
</g>
<g>
<path style="fill:rgb(255, 0, 0);fill-opacity:1.0;fill-rule:evenodd;stroke:rgb(0, 0, 0);stroke-width:1.0;" d="M 238.974, 108.555 L 244.19, 116.211 L 249.347, 133.186 L 235.047, 146.438 L 230.084, 145.415 L 234.926, 107.352 z "/>
<text x="238.74615601463748" y="128.1096575035461" dy="0.3em" style="font-size:10px;fill:black;font-family:Sans;text-anchor:middle;text-align:center">.</text>
</g>
<g>
<path style="fill:rgb(255, 127, 0);fill-opacity:1.0;fill-rule:evenodd;stroke:rgb(0, 0, 0);stroke-width:1.0;" d="M 195.95, 120.14 L 156.801, 156.646 L 129.099, 155.82 L 115.459, 120.246 L 171.008, 108.965 L 188.843, 108.866 z "/>
<text x="153.76694542554748" y="131.0026454509645" dy="0.3em" style="font-size:10px;fill:black;font-family:Sans;text-anchor:middle;text-align:center">.</text>
</g>
<g>
<path style="fill:rgb(255, 127, 0);fill-opacity:1.0;fill-rule:evenodd;stroke:rgb(0, 0, 0);stroke-width:1.0;" d="M 211.197, 144.325 L 182.744, 189.395 L 156.801, 156.646 L 195.95, 120.14 z "/>
<text x="185.4169094151063" y="153.82674900283033" dy="0.3em" style="font-size:10px;fill:black;font-family:Sans;text-anchor:middle;text-align:center">.</text>
</g>
<g>
<path style="fill:rgb(255, 127, 0);fill-opacity:1.0;fill-rule:evenodd;stroke:rgb(0, 0, 0);stroke-width:1.0;" d="M 156.801, 156.646 L 182.744, 189.395 L 176.503, 199.28 L 149.409, 208.79 L 129.099, 155.82 z "/>
<text x="155.43380734874367" y="180.86493010122686" dy="0.3em" style="font-size:10px;fill:black;font-family:Sans;text-anchor:middle;text-align:center">.</text>
</g>
<g>
<path style="fill:rgb(255, 127, 0);fill-opacity:1.0;fill-rule:evenodd;stroke:rgb(0, 0, 0);stroke-width:1.0;" d="M 163.24, 220.287 L 159.787, 221.553 L 153.816, 220.283 L 149.409, 208.79 L 176.503, 199.28 z "/>
<text x="161.50990425854198" y="211.03685335982573" dy="0.3em" style="font-size:10px;fill:black;font-family:Sans;text-anchor:middle;text-align:center">.</text>
</g>
<g>
<path style="fill:rgb(255, 255, 0);fill-opacity:1.0;fill-rule:evenodd;stroke:rgb(0, 0, 0);stroke-width:1.0;" d="M 94.1939, 106.335 L 90.1737, 167.779 L 51.056, 240.286 L 10.9787, 206.154 L 80.6811, 97.4964 z "/>
<text x="58.99259832331763" y="172.82196183737247" dy="0.3em" style="font-size:10px;fill:black;font-family:Sans;text-anchor:middle;text-align:center">.</text>
</g>
<g>
<path style="fill:rgb(255, 255, 0);fill-opacity:1.0;fill-rule:evenodd;stroke:rgb(0, 0, 0);stroke-width:1.0;" d="M 51.056, 240.286 L 52.782, 264.934 L 0, 288.261 L 4.16334e-15, 223.269 L 10.9787, 206.154 z "/>
<text x="21.822714305296937" y="248.7872131743249" dy="0.3em" style="font-size:10px;fill:black;font-family:Sans;text-anchor:middle;text-align:center">.</text>
</g>
<g>
<path style="fill:rgb(255, 255, 0);fill-opacity:1.0;fill-rule:evenodd;stroke:rgb(0, 0, 0);stroke-width:1.0;" d="M 115.459, 120.246 L 153.816, 220.283 L 130.71, 230.494 L 90.1737, 167.779 L 94.1939, 106.335 z "/>
<text x="117.49278051020535" y="171.64123449509174" dy="0.3em" style="font-size:10px;fill:black;font-family:Sans;text-anchor:middle;text-align:center">.</text>
</g>
<g>
<path style="fill:rgb(255, 255, 0);fill-opacity:1.0;fill-rule:evenodd;stroke:rgb(0, 0, 0);stroke-width:1.0;" d="M 130.71, 230.494 L 52.782, 264.934 L 51.056, 240.286 L 90.1737, 167.779 z "/>
<text x="87.29868786583015" y="221.55135690349795" dy="0.3em" style="font-size:10px;fill:black;font-family:Sans;text-anchor:middle;text-align:center">.</text>
</g>
<g>
<path style="fill:rgb(0, 255, 0);fill-opacity:1.0;fill-rule:evenodd;stroke:rgb(0, 0, 0);stroke-width:1.0;" d="M 199.169, 257.733 L 217.077, 300 L 185.91, 300 L 165.177, 237.739 z "/>
<text x="190.96721531758715" y="274.21276152224635" dy="0.3em" style="font-size:10px;fill:black;font-family:Sans;text-anchor:middle;text-align:center">.</text>
</g>
<g>
<path style="fill:rgb(0, 255, 0);fill-opacity:1.0;fill-rule:evenodd;stroke:rgb(0, 0, 0);stroke-width:1.0;" d="M 253.01, 254.055 L 253.056, 256.159 L 241.053, 300 L 217.077, 300 L 199.169, 257.733 L 203.198, 246.515 L 216.009, 229.731 z "/>
<text x="225.94606922406595" y="266.52354670719114" dy="0.3em" style="font-size:10px;fill:black;font-family:Sans;text-anchor:middle;text-align:center">.</text>
</g>
<g>
<path style="fill:rgb(0, 255, 0);fill-opacity:1.0;fill-rule:evenodd;stroke:rgb(0, 0, 0);stroke-width:1.0;" d="M 206.571, 223.526 L 216.009, 229.731 L 203.198, 246.515 L 180.614, 221.586 z "/>
<text x="200.131366313629" y="231.31028257987523" dy="0.3em" style="font-size:10px;fill:black;font-family:Sans;text-anchor:middle;text-align:center">.</text>
</g>
<g>
<path style="fill:rgb(0, 255, 0);fill-opacity:1.0;fill-rule:evenodd;stroke:rgb(0, 0, 0);stroke-width:1.0;" d="M 180.614, 221.586 L 203.198, 246.515 L 199.169, 257.733 L 165.177, 237.739 L 159.787, 221.553 L 163.24, 220.287 z "/>
<text x="181.4604665912418" y="236.79579188970547" dy="0.3em" style="font-size:10px;fill:black;font-family:Sans;text-anchor:middle;text-align:center">.</text>
</g>
<g>
<path style="fill:rgb(150, 0, 255);fill-opacity:1.0;fill-rule:evenodd;stroke:rgb(0, 0, 0);stroke-width:1.0;" d="M 300, 263.017 L 292.57, 284.903 L 282.573, 277.631 L 284.907, 260.479 L 300, 253.834 z "/>
<text x="291.38119587918175" y="268.7011888738756" dy="0.3em" style="font-size:10px;fill:black;font-family:Sans;text-anchor:middle;text-align:center">.</text>
</g>
<g>
<path style="fill:rgb(150, 0, 255);fill-opacity:1.0;fill-rule:evenodd;stroke:rgb(0, 0, 0);stroke-width:1.0;" d="M 300, 253.834 L 284.907, 260.479 L 267.076, 244.93 L 300, 223.57 z "/>
<text x="287.70868467063514" y="243.9974316053338" dy="0.3em" style="font-size:10px;fill:black;font-family:Sans;text-anchor:middle;text-align:center">.</text>
</g>
<g>
<path style="fill:rgb(150, 0, 255);fill-opacity:1.0;fill-rule:evenodd;stroke:rgb(0, 0, 0);stroke-width:1.0;" d="M 284.907, 260.479 L 282.573, 277.631 L 253.056, 256.159 L 253.01, 254.055 L 267.076, 244.93 z "/>
<text x="270.88959850339467" y="259.82887627456904" dy="0.3em" style="font-size:10px;fill:black;font-family:Sans;text-anchor:middle;text-align:center">.</text>
</g>
<g>
<path style="fill:rgb(150, 0, 255);fill-opacity:1.0;fill-rule:evenodd;stroke:rgb(0, 0, 0);stroke-width:1.0;" d="M 300, 290.308 L 292.57, 284.903 L 300, 263.017 z "/>
<text x="297.52338241608857" y="279.40942417208356" dy="0.3em" style="font-size:10px;fill:black;font-family:Sans;text-anchor:middle;text-align:center">.</text>
</g>
<g>
<path style="fill:rgb(255, 0, 255);fill-opacity:1.0;fill-rule:evenodd;stroke:rgb(0, 0, 0);stroke-width:1.0;" d="M 238.65, 78.0762 L 235.144, 105.638 L 230.048, 102.43 L 210.034, 78.7821 L 212.139, 75.7926 z "/>
<text x="227.072821135515" y="87.08967270551929" dy="0.3em" style="font-size:10px;fill:black;font-family:Sans;text-anchor:middle;text-align:center">.</text>
</g>
<g>
<path style="fill:rgb(255, 0, 255);fill-opacity:1.0;fill-rule:evenodd;stroke:rgb(0, 0, 0);stroke-width:1.0;" d="M 230.048, 102.43 L 199.952, 111.323 L 189.038, 109.176 L 188.843, 108.866 L 210.034, 78.7821 z "/>
<text x="209.14833777580589" y="98.18813346269313" dy="0.3em" style="font-size:10px;fill:black;font-family:Sans;text-anchor:middle;text-align:center">.</text>
</g>
<g>
<path style="fill:rgb(255, 0, 255);fill-opacity:1.0;fill-rule:evenodd;stroke:rgb(0, 0, 0);stroke-width:1.0;" d="M 199.952, 111.323 L 227.737, 145.28 L 211.197, 144.325 L 189.038, 109.176 z "/>
<text x="207.98629908309152" y="129.0002897856415" dy="0.3em" style="font-size:10px;fill:black;font-family:Sans;text-anchor:middle;text-align:center">.</text>
</g>
<g>
<path style="fill:rgb(255, 0, 255);fill-opacity:1.0;fill-rule:evenodd;stroke:rgb(0, 0, 0);stroke-width:1.0;" d="M 235.144, 105.638 L 230.084, 145.415 L 227.737, 145.28 L 199.952, 111.323 L 230.048, 102.43 z "/>
<text x="221.60784404194868" y="120.14430811941618" dy="0.3em" style="font-size:10px;fill:black;font-family:Sans;text-anchor:middle;text-align:center">.</text>
</g>
<g>
<path style="fill:rgb(0, 255, 255);fill-opacity:1.0;fill-rule:evenodd;stroke:rgb(0, 0, 0);stroke-width:1.0;" d="M 159.908, 31.1311 L 171.008, 108.965 L 168.409, 109.493 L 137.071, 85.461 L 121.798, 27.0533 L 129.308, 18.5358 z "/>
<text x="147.55645394016702" y="60.19387309128845" dy="0.3em" style="font-size:10px;fill:black;font-family:Sans;text-anchor:middle;text-align:center">.</text>
</g>
<g>
<path style="fill:rgb(0, 255, 255);fill-opacity:1.0;fill-rule:evenodd;stroke:rgb(0, 0, 0);stroke-width:1.0;" d="M 129.308, 18.5358 L 121.798, 27.0533 L 59.0839, 29.5845 L 49.6755, 0 L 84.2774, 0 z "/>
<text x="84.67975777453607" y="15.537020721019248" dy="0.3em" style="font-size:10px;fill:black;font-family:Sans;text-anchor:middle;text-align:center">.</text>
</g>
<g>
<path style="fill:rgb(0, 255, 255);fill-opacity:1.0;fill-rule:evenodd;stroke:rgb(0, 0, 0);stroke-width:1.0;" d="M 137.071, 85.461 L 168.409, 109.493 L 115.459, 120.246 L 80.6811, 97.4964 L 68.1637, 58.1357 z "/>
<text x="112.77751919573765" y="93.56293811133119" dy="0.3em" style="font-size:10px;fill:black;font-family:Sans;text-anchor:middle;text-align:center">.</text>
</g>
<g>
<path style="fill:rgb(0, 255, 255);fill-opacity:1.0;fill-rule:evenodd;stroke:rgb(0, 0, 0);stroke-width:1.0;" d="M 137.071, 85.461 L 68.1637, 58.1357 L 59.0839, 29.5845 L 121.798, 27.0533 z "/>
<text x="100.31419273911406" y="50.65222844868128" dy="0.3em" style="font-size:10px;fill:black;font-family:Sans;text-anchor:middle;text-align:center">.</text>
</g>
<g>
<path style="fill:rgb(150, 150, 150);fill-opacity:1.0;fill-rule:evenodd;stroke:rgb(0, 0, 0);stroke-width:1.0;" d="M 230.084, 145.415 L 233.755, 146.171 L 234.702, 185.782 L 197.164, 166.554 L 211.197, 144.325 z "/>
<text x="219.83027329199186" y="162.42990319126193" dy="0.3em" style="font-size:10px;fill:black;font-family:Sans;text-anchor:middle;text-align:center">.</text>
</g>
<g>
<path style="fill:rgb(150, 150, 150);fill-opacity:1.0;fill-rule:evenodd;stroke:rgb(0, 0, 0);stroke-width:1.0;" d="M 234.702, 185.782 L 241.23, 196.681 L 224.501, 209.638 L 184.001, 187.403 L 197.164, 166.554 z "/>
<text x="212.659816494965" y="188.64495601245144" dy="0.3em" style="font-size:10px;fill:black;font-family:Sans;text-anchor:middle;text-align:center">.</text>
</g>
<g>
<path style="fill:rgb(150, 150, 150);fill-opacity:1.0;fill-rule:evenodd;stroke:rgb(0, 0, 0);stroke-width:1.0;" d="M 224.501, 209.638 L 206.571, 223.526 L 163.24, 220.287 L 184.001, 187.403 z "/>
<text x="192.6045300411593" y="209.0148670425077" dy="0.3em" style="font-size:10px;fill:black;font-family:Sans;text-anchor:middle;text-align:center">.</text>
</g>
<g>
<path style="fill:rgb(150, 150, 150);fill-opacity:1.0;fill-rule:evenodd;stroke:rgb(0, 0, 0);stroke-width:1.0;" d="M 235.047, 146.438 L 262.005, 180.588 L 241.23, 196.681 L 234.702, 185.782 L 233.755, 146.171 z "/>
<text x="244.05802297885228" y="174.3502709899044" dy="0.3em" style="font-size:10px;fill:black;font-family:Sans;text-anchor:middle;text-align:center">.</text>
</g>
</svg>