<?xml version="1.0" encoding="iso-8859-1" standalone="no"?>
<!DOCTYPE svg PUBLIC "-//W3C//DTD SVG 1.0//EN" "http://www.w3.org/TR/2001/REC-SVG-20010904/DTD/svg10.dtd">
<svg xmlns="http://www.w3.org/2000/svg" width="300" height="300">
<g>
<path style="fill:rgb(0, 0, 255);fill-opacity:1.0;fill-rule:evenodd;stroke:rgb(0, 0, 0);stroke-width:1.0;" d="M 300, 226.058 L 300, 253.751 L 236.164, 254.085 L 216.313, 232.775 L 227.947, 184.936 z "/>
<text x="255.89300556439431" y="227.37380738726844" dy="0.3em" style="font-size:10px;fill:black;font-family:Sans;text-anchor:middle;text-align:center"></text>
</g>
<g>
<path style="fill:rgb(0, 0, 255);fill-opacity:1.0;fill-rule:evenodd;stroke:rgb(0, 0, 0);stroke-width:1.0;" d="M 112.812, 249.943 L 117.524, 272.773 L 109.864, 300 L 0, 300 L 0, 242.876 L 27.4644, 222.846 L 53.9527, 213.867 z "/>
<text x="55.343866271249716" y="263.7859680930088" dy="0.3em" style="font-size:10px;fill:black;font-family:Sans;text-anchor:middle;text-align:center"></text>
</g>
<g>
<path style="fill:rgb(0, 0, 255);fill-opacity:1.0;fill-rule:evenodd;stroke:rgb(0, 0, 0);stroke-width:1.0;" d="M 300, 144.136 L 283.667, 144.249 L 246.628, 71.7461 L 248.341, 63.8092 L 300, 60.2815 z "/>
<text x="279.99666429294365" y="95.75356665870254" dy="0.3em" style="font-size:10px;fill:black;font-family:Sans;text-anchor:middle;text-align:center"></text>
</g>
<g>
<path style="fill:rgb(0, 0, 255);fill-opacity:1.0;fill-rule:evenodd;stroke:rgb(0, 0, 0);stroke-width:1.0;" d="M 300, 300 L 235.989, 300 L 236.164, 254.085 L 300, 253.751 z "/>
<text x="268.0769565919593" y="276.96939539954025" dy="0.3em" style="font-size:10px;fill:black;font-family:Sans;text-anchor:middle;text-align:center"></text>
</g>
<g>
<path style="fill:rgb(0, 0, 255);fill-opacity:1.0;fill-rule:evenodd;stroke:rgb(0, 0, 0);stroke-width:1.0;" d="M 226.889, 172.307 L 227.947, 184.936 L 216.313, 232.775 L 117.524, 272.773 L 112.812, 249.943 L 120.865, 188.902 L 138.281, 154.298 L 154.804, 153.565 z "/>
<text x="165.84961630573022" y="208.05157778762316" dy="0.3em" style="font-size:10px;fill:black;font-family:Sans;text-anchor:middle;text-align:center"></text>
</g>
<g>
<path style="fill:rgb(0, 0, 255);fill-opacity:1.0;fill-rule:evenodd;stroke:rgb(0, 0, 0);stroke-width:1.0;" d="M 248.341, 63.8092 L 246.628, 71.7461 L 218.289, 100.577 L 193.907, 96.1794 L 126.008, 0 L 207.935, 0 z "/>
<text x="194.07556667466272" y="44.05051989552215" dy="0.3em" style="font-size:10px;fill:black;font-family:Sans;text-anchor:middle;text-align:center"></text>
</g>
<g>
<path style="fill:rgb(0, 0, 255);fill-opacity:1.0;fill-rule:evenodd;stroke:rgb(0, 0, 0);stroke-width:1.0;" d="M 283.667, 144.249 L 228.243, 170.815 L 218.289, 100.577 L 246.628, 71.7461 z "/>
<text x="246.02854880233403" y="124.38253290809998" dy="0.3em" style="font-size:10px;fill:black;font-family:Sans;text-anchor:middle;text-align:center"></text>
</g>
<g>
<path style="fill:rgb(0, 0, 255);fill-opacity:1.0;fill-rule:evenodd;stroke:rgb(0, 0, 0);stroke-width:1.0;" d="M 236.164, 254.085 L 235.989, 300 L 109.864, 300 L 117.524, 272.773 L 216.313, 232.775 z "/>
<text x="182.66894084284007" y="274.5656542724527" dy="0.3em" style="font-size:10px;fill:black;font-family:Sans;text-anchor:middle;text-align:center"></text>
</g>
<g>
<path style="fill:rgb(0, 0, 255);fill-opacity:1.0;fill-rule:evenodd;stroke:rgb(0, 0, 0);stroke-width:1.0;" d="M 118.363, 118.732 L 22.6152, 132.876 L 0, 131.717 L 0, 0 L 122.425, 0 z "/>
<text x="58.972864424637415" y="63.22188309046856" dy="0.3em" style="font-size:10px;fill:black;font-family:Sans;text-anchor:middle;text-align:center"></text>
</g>
<g>
<path style="fill:rgb(0, 0, 255);fill-opacity:1.0;fill-rule:evenodd;stroke:rgb(0, 0, 0);stroke-width:1.0;" d="M 300, 226.058 L 227.947, 184.936 L 226.889, 172.307 L 228.243, 170.815 L 283.667, 144.249 L 300, 144.136 z "/>
<text x="272.2789550211118" y="180.6437148207799" dy="0.3em" style="font-size:10px;fill:black;font-family:Sans;text-anchor:middle;text-align:center"></text>
</g>
<g>
<path style="fill:rgb(255, 0, 0);fill-opacity:1.0;fill-rule:evenodd;stroke:rgb(0, 0, 0);stroke-width:1.0;" d="M 260.735, 28.0158 L 232.75, 11.081 L 237.872, 0 L 273.509, 0 z "/>
<text x="253.5079141596273" y="10.389217045286745" dy="0.3em" style="font-size:10px;fill:black;font-family:Sans;text-anchor:middle;text-align:center">.</text>
</g>
<g>
<path style="fill:rgb(255, 0, 0);fill-opacity:1.0;fill-rule:evenodd;stroke:rgb(0, 0, 0);stroke-width:1.0;" d="M 300, 60.2815 L 255.026, 63.3527 L 260.735, 28.0158 L 273.509, 0 L 300, 0 z "/>
<text x="280.4779712732309" y="33.33725116954317" dy="0.3em" style="font-size:10px;fill:black;font-family:Sans;text-anchor:middle;text-align:center">.</text>
</g>
<g>
<path style="fill:rgb(255, 0, 0);fill-opacity:1.0;fill-rule:evenodd;stroke:rgb(0, 0, 0);stroke-width:1.0;" d="M 232.75, 11.081 L 220.081, 19.1821 L 207.935, 0 L 237.872, 0 z "/>
<text x="223.17799580279942" y="6.936617870686434" dy="0.3em" style="font-size:10px;fill:black;font-family:Sans;text-anchor:middle;text-align:center">.</text>
</g>
<g>
<path style="fill:rgb(255, 0, 0);fill-opacity:1.0;fill-rule:evenodd;stroke:rgb(0, 0, 0);stroke-width:1.0;" d="M 260.735, 28.0158 L 255.026, 63.3527 L 248.341, 63.8092 L 220.081, 19.1821 L 232.75, 11.081 z "/>
<text x="243.24380358923187" y="35.075296759521926" dy="0.3em" style="font-size:10px;fill:black;font-family:Sans;text-anchor:middle;text-align:center">.</text>
</g>
<g>
<path style="fill:rgb(255, 127, 0);fill-opacity:1.0;fill-rule:evenodd;stroke:rgb(0, 0, 0);stroke-width:1.0;" d="M 97.107, 154.22 L 74.2531, 166.95 L 22.6152, 132.876 L 95.557, 122.101 z "/>
<text x="69.07299787110789" y="142.0551792522529" dy="0.3em" style="font-size:10px;fill:black;font-family:Sans;text-anchor:middle;text-align:center">.</text>
</g>
<g>
<path style="fill:rgb(255, 127, 0);fill-opacity:1.0;fill-rule:evenodd;stroke:rgb(0, 0, 0);stroke-width:1.0;" d="M 133.304, 164.187 L 120.865, 188.902 L 99.5472, 181.942 L 102.526, 157.014 z "/>
<text x="114.46721651728204" y="172.36521117003264" dy="0.3em" style="font-size:10px;fill:black;font-family:Sans;text-anchor:middle;text-align:center">.</text>
</g>
<g>
<path style="fill:rgb(255, 127, 0);fill-opacity:1.0;fill-rule:evenodd;stroke:rgb(0, 0, 0);stroke-width:1.0;" d="M 138.281, 154.298 L 133.304, 164.187 L 102.526, 157.014 L 97.107, 154.22 L 95.557, 122.101 L 118.363, 118.732 z "/>
<text x="114.60155339168499" y="142.04548900814493" dy="0.3em" style="font-size:10px;fill:black;font-family:Sans;text-anchor:middle;text-align:center">.</text>
</g>
<g>
<path style="fill:rgb(255, 127, 0);fill-opacity:1.0;fill-rule:evenodd;stroke:rgb(0, 0, 0);stroke-width:1.0;" d="M 102.526, 157.014 L 99.5472, 181.942 L 94.4539, 180.279 L 74.2531, 166.95 L 97.107, 154.22 z "/>
<text x="91.87083466470827" y="167.49395228762648" dy="0.3em" style="font-size:10px;fill:black;font-family:Sans;text-anchor:middle;text-align:center">.</text>
</g>
<g>
<path style="fill:rgb(255, 255, 0);fill-opacity:1.0;fill-rule:evenodd;stroke:rgb(0, 0, 0);stroke-width:1.0;" d="M 185.097, 83.7006 L 118.735, 107.867 L 118.807, 105.764 L 161.483, 50.2517 z "/>
<text x="154.44611695835258" y="80.82566028765198" dy="0.3em" style="font-size:10px;fill:black;font-family:Sans;text-anchor:middle;text-align:center">.</text>
</g>
<g>
<path style="fill:rgb(255, 255, 0);fill-opacity:1.0;fill-rule:evenodd;stroke:rgb(0, 0, 0);stroke-width:1.0;" d="M 172.706, 127.293 L 154.804, 153.565 L 138.281, 154.298 L 118.468, 118.919 z "/>
<text x="145.4968753576408" y="135.73950375825146" dy="0.3em" style="font-size:10px;fill:black;font-family:Sans;text-anchor:middle;text-align:center">.</text>
</g>
<g>
<path style="fill:rgb(255, 255, 0);fill-opacity:1.0;fill-rule:evenodd;stroke:rgb(0, 0, 0);stroke-width:1.0;" d="M 193.907, 96.1794 L 172.706, 127.293 L 118.468, 118.919 L 118.363, 118.732 L 118.735, 107.867 L 185.097, 83.7006 z "/>
<text x="158.86873447079094" y="107.6188182572406" dy="0.3em" style="font-size:10px;fill:black;font-family:Sans;text-anchor:middle;text-align:center">.</text>
</g>
<g>
<path style="fill:rgb(255, 255, 0);fill-opacity:1.0;fill-rule:evenodd;stroke:rgb(0, 0, 0);stroke-width:1.0;" d="M 161.483, 50.2517 L 118.807, 105.764 L 122.425, 0 L 126.008, 0 z "/>
<text x="134.3345906180569" y="50.59228957932002" dy="0.3em" style="font-size:10px;fill:black;font-family:Sans;text-anchor:middle;text-align:center">.</text>
</g>
<g>
<path style="fill:rgb(0, 255, 0);fill-opacity:1.0;fill-rule:evenodd;stroke:rgb(0, 0, 0);stroke-width:1.0;" d="M 21.1922, 227.42 L 6.36029, 238.237 L 0, 221.333 L 0, 217.552 z "/>
<text x="8.759108336690915" y="227.6145501974831" dy="0.3em" style="font-size:10px;fill:black;font-family:Sans;text-anchor:middle;text-align:center">.</text>
</g>
<g>
<path style="fill:rgb(0, 255, 0);fill-opacity:1.0;fill-rule:evenodd;stroke:rgb(0, 0, 0);stroke-width:1.0;" d="M 13.6496, 159.67 L 22.9092, 202.015 L 0, 197.847 L 0, 144.095 z "/>
<text x="8.821620526108246" y="178.0039983193496" dy="0.3em" style="font-size:10px;fill:black;font-family:Sans;text-anchor:middle;text-align:center">.</text>
</g>
<g>
<path style="fill:rgb(0, 255, 0);fill-opacity:1.0;fill-rule:evenodd;stroke:rgb(0, 0, 0);stroke-width:1.0;" d="M 6.36029, 238.237 L 0, 242.876 L 0, 221.333 z "/>
<text x="2.120096138791767" y="234.1488127129245" dy="0.3em" style="font-size:10px;fill:black;font-family:Sans;text-anchor:middle;text-align:center">.</text>
</g>
<g>
<path style="fill:rgb(0, 255, 0);fill-opacity:1.0;fill-rule:evenodd;stroke:rgb(0, 0, 0);stroke-width:1.0;" d="M 22.9092, 202.015 L 27.4644, 222.846 L 21.1922, 227.42 L 0, 217.552 L 0, 197.847 z "/>
<text x="13.144637794585941" y="212.0512609445895" dy="0.3em" style="font-size:10px;fill:black;font-family:Sans;text-anchor:middle;text-align:center">.</text>
</g>
<g>
<path style="fill:rgb(150, 0, 255);fill-opacity:1.0;fill-rule:evenodd;stroke:rgb(0, 0, 0);stroke-width:1.0;" d="M 114.123, 240.006 L 92.6325, 214.203 L 105.749, 200.95 L 120.374, 192.626 z "/>
<text x="108.85602948871096" y="214.73983184386427" dy="0.3em" style="font-size:10px;fill:black;font-family:Sans;text-anchor:middle;text-align:center">.</text>
</g>
<g>
<path style="fill:rgb(150, 0, 255);fill-opacity:1.0;fill-rule:evenodd;stroke:rgb(0, 0, 0);stroke-width:1.0;" d="M 114.123, 240.006 L 112.812, 249.943 L 67.0096, 221.87 L 92.6325, 214.203 z "/>
<text x="93.76584305996693" y="229.8068962017957" dy="0.3em" style="font-size:10px;fill:black;font-family:Sans;text-anchor:middle;text-align:center">.</text>
</g>
<g>
<path style="fill:rgb(150, 0, 255);fill-opacity:1.0;fill-rule:evenodd;stroke:rgb(0, 0, 0);stroke-width:1.0;" d="M 105.749, 200.95 L 92.6325, 214.203 L 67.0096, 221.87 L 53.9527, 213.867 L 37.3389, 182.526 L 81.3447, 180.795 z "/>
<text x="71.16786089528946" y="199.2721041924461" dy="0.3em" style="font-size:10px;fill:black;font-family:Sans;text-anchor:middle;text-align:center">.</text>
</g>
<g>
<path style="fill:rgb(150, 0, 255);fill-opacity:1.0;fill-rule:evenodd;stroke:rgb(0, 0, 0);stroke-width:1.0;" d="M 120.865, 188.902 L 120.374, 192.626 L 105.749, 200.95 L 81.3447, 180.795 L 94.4539, 180.279 z "/>
<text x="102.88303439533114" y="189.34667091500552" dy="0.3em" style="font-size:10px;fill:black;font-family:Sans;text-anchor:middle;text-align:center">.</text>
</g>
<g>
<path style="fill:rgb(255, 0, 255);fill-opacity:1.0;fill-rule:evenodd;stroke:rgb(0, 0, 0);stroke-width:1.0;" d="M 193.888, 143.312 L 185.704, 161.599 L 154.804, 153.565 L 178.659, 118.556 z "/>
<text x="176.62790686667046" y="143.63638659317755" dy="0.3em" style="font-size:10px;fill:black;font-family:Sans;text-anchor:middle;text-align:center">.</text>
</g>
<g>
<path style="fill:rgb(255, 0, 255);fill-opacity:1.0;fill-rule:evenodd;stroke:rgb(0, 0, 0);stroke-width:1.0;" d="M 222.587, 130.906 L 193.888, 143.312 L 178.659, 118.556 L 184.799, 109.546 L 219.108, 106.354 z "/>
<text x="201.74629582344744" y="122.65953394512537" dy="0.3em" style="font-size:10px;fill:black;font-family:Sans;text-anchor:middle;text-align:center">.</text>
</g>
<g>
<path style="fill:rgb(255, 0, 255);fill-opacity:1.0;fill-rule:evenodd;stroke:rgb(0, 0, 0);stroke-width:1.0;" d="M 218.289, 100.577 L 219.108, 106.354 L 184.799, 109.546 L 193.907, 96.1794 z "/>
<text x="201.9743134318944" y="103.30236516512345" dy="0.3em" style="font-size:10px;fill:black;font-family:Sans;text-anchor:middle;text-align:center">.</text>
</g>
<g>
<path style="fill:rgb(255, 0, 255);fill-opacity:1.0;fill-rule:evenodd;stroke:rgb(0, 0, 0);stroke-width:1.0;" d="M 228.243, 170.815 L 226.889, 172.307 L 185.704, 161.599 L 193.888, 143.312 L 222.587, 130.906 z "/>
<text x="209.96907605146717" y="153.11936598515686" dy="0.3em" style="font-size:10px;fill:black;font-family:Sans;text-anchor:middle;text-align:center">.</text>
</g>
<g>
<path style="fill:rgb(0, 255, 255);fill-opacity:1.0;fill-rule:evenodd;stroke:rgb(0, 0, 0);stroke-width:1.0;" d="M 44.0193, 195.128 L 23.9213, 206.643 L 21.385, 195.044 L 38.7252, 185.141 z "/>
<text x="32.05691381413292" y="195.62444039805368" dy="0.3em" style="font-size:10px;fill:black;font-family:Sans;text-anchor:middle;text-align:center">.</text>
</g>
<g>
<path style="fill:rgb(0, 255, 255);fill-opacity:1.0;fill-rule:evenodd;stroke:rgb(0, 0, 0);stroke-width:1.0;" d="M 37.3389, 182.526 L 38.7252, 185.141 L 21.385, 195.044 L 13.6496, 159.67 z "/>
<text x="24.81007253259372" y="179.7764239951957" dy="0.3em" style="font-size:10px;fill:black;font-family:Sans;text-anchor:middle;text-align:center">.</text>
</g>
<g>
<path style="fill:rgb(0, 255, 255);fill-opacity:1.0;fill-rule:evenodd;stroke:rgb(0, 0, 0);stroke-width:1.0;" d="M 47.2109, 201.149 L 44.037, 217.228 L 27.4644, 222.846 L 23.9213, 206.643 L 44.0193, 195.128 z "/>
<text x="36.02501504436281" y="209.49037064757135" dy="0.3em" style="font-size:10px;fill:black;font-family:Sans;text-anchor:middle;text-align:center">.</text>
</g>
<g>
<path style="fill:rgb(0, 255, 255);fill-opacity:1.0;fill-rule:evenodd;stroke:rgb(0, 0, 0);stroke-width:1.0;" d="M 53.9527, 213.867 L 44.037, 217.228 L 47.2109, 201.149 z "/>
<text x="48.40020426426279" y="210.74840575007497" dy="0.3em" style="font-size:10px;fill:black;font-family:Sans;text-anchor:middle;text-align:center">.</text>
</g>
<g>
<path style="fill:rgb(150, 150, 150);fill-opacity:1.0;fill-rule:evenodd;stroke:rgb(0, 0, 0);stroke-width:1.0;" d="M 94.4539, 180.279 L 54.2124, 181.862 L 49.3563, 150.521 z "/>
<text x="66.00751165573347" y="170.8875921015366" dy="0.3em" style="font-size:10px;fill:black;font-family:Sans;text-anchor:middle;text-align:center">.</text>
</g>
<g>
<path style="fill:rgb(150, 150, 150);fill-opacity:1.0;fill-rule:evenodd;stroke:rgb(0, 0, 0);stroke-width:1.0;" d="M 10.4048, 132.25 L 8.51134, 153.807 L 0, 144.095 L 0, 131.717 z "/>
<text x="5.200325135094592" y="140.5160308865582" dy="0.3em" style="font-size:10px;fill:black;font-family:Sans;text-anchor:middle;text-align:center">.</text>
</g>
<g>
<path style="fill:rgb(150, 150, 150);fill-opacity:1.0;fill-rule:evenodd;stroke:rgb(0, 0, 0);stroke-width:1.0;" d="M 49.3563, 150.521 L 54.2124, 181.862 L 37.3389, 182.526 L 18.7387, 164.58 L 47.5525, 149.331 z "/>
<text x="39.772814381911886" y="167.57071965481632" dy="0.3em" style="font-size:10px;fill:black;font-family:Sans;text-anchor:middle;text-align:center">.</text>
</g>
<g>
<path style="fill:rgb(150, 150, 150);fill-opacity:1.0;fill-rule:evenodd;stroke:rgb(0, 0, 0);stroke-width:1.0;" d="M 22.6152, 132.876 L 47.5525, 149.331 L 18.7387, 164.58 L 13.6496, 159.67 L 8.51134, 153.807 L 10.4048, 132.25 z "/>
<text x="23.584642537958327" y="147.6797703819863" dy="0.3em" style="font-size:10px;fill:black;font-family:Sans;text-anchor:middle;text-align:center">.</text>
</g>
</svg>