<?xml version="1.0" encoding="iso-8859-1" standalone="no"?>
<!DOCTYPE svg PUBLIC "-//W3C//DTD SVG 1.0//EN" "http://www.w3.org/TR/2001/REC-SVG-20010904/DTD/svg10.dtd">
<svg xmlns="http://www.w3.org/2000/svg" width="300" height="300">
<g>
<path style="fill:rgb(0, 0, 255);fill-opacity:1.0;fill-rule:evenodd;stroke:rgb(0, 0, 0);stroke-width:1.0;" d="M 167.122, 110.162 L 138.101, 155.838 L 119.467, 159.145 L 115.822, 158.524 L 69.7812, 135.888 L 93.507, 49.8644 L 133.273, 46.8552 z "/>
<text x="117.55929847970468" y="104.51966538197111" dy="0.3em" style="font-size:10px;fill:black;font-family:Sans;text-anchor:middle;text-align:center"></text>
</g>
<g>
<path style="fill:rgb(0, 0, 255);fill-opacity:1.0;fill-rule:evenodd;stroke:rgb(0, 0, 0);stroke-width:1.0;" d="M 133.273, 46.8552 L 93.507, 49.8644 L 61.6649, 0 L 181.061, 0 z "/>
<text x="117.42647459730476" y="20.121326023292124" dy="0.3em" style="font-size:10px;fill:black;font-family:Sans;text-anchor:middle;text-align:center"></text>
</g>
<g>
<path style="fill:rgb(0, 0, 255);fill-opacity:1.0;fill-rule:evenodd;stroke:rgb(0, 0, 0);stroke-width:1.0;" d="M 228.56, 260.695 L 214.767, 300 L 178.24, 300 L 157.021, 256.504 L 189.911, 224.172 z "/>
<text x="193.32015457964764" y="266.446362428957" dy="0.3em" style="font-size:10px;fill:black;font-family:Sans;text-anchor:middle;text-align:center"></text>
</g>
<g>
<path style="fill:rgb(0, 0, 255);fill-opacity:1.0;fill-rule:evenodd;stroke:rgb(0, 0, 0);stroke-width:1.0;" d="M 300, 269.332 L 300, 300 L 283.031, 300 L 250.775, 259.131 z "/>
<text x="281.8109924894593" y="279.3720748790256" dy="0.3em" style="font-size:10px;fill:black;font-family:Sans;text-anchor:middle;text-align:center"></text>
</g>
<g>
<path style="fill:rgb(0, 0, 255);fill-opacity:1.0;fill-rule:evenodd;stroke:rgb(0, 0, 0);stroke-width:1.0;" d="M 96.2033, 264.168 L 54.5838, 265.003 L 100.977, 186.048 z "/>
<text x="83.92134793317716" y="238.40610753787544" dy="0.3em" style="font-size:10px;fill:black;font-family:Sans;text-anchor:middle;text-align:center"></text>
</g>
<g>
<path style="fill:rgb(255, 200, 150);fill-opacity:1.0;fill-rule:evenodd;stroke:rgb(0, 0, 0);stroke-width:1.0;" d="M 122.646, 194.034 L 100.374, 195.91 L 100.92, 186.984 L 120.831, 174.117 z "/>
<text x="112.61573954678101" y="187.3709804005499" dy="0.3em" style="font-size:10px;fill:black;font-family:Sans;text-anchor:middle;text-align:center"></text>
</g>
<g>
<path style="fill:rgb(255, 200, 150);fill-opacity:1.0;fill-rule:evenodd;stroke:rgb(0, 0, 0);stroke-width:1.0;" d="M 126.481, 236.118 L 98.1819, 231.789 L 100.374, 195.91 L 122.646, 194.034 z "/>
<text x="112.25664814024542" y="215.23672632989496" dy="0.3em" style="font-size:10px;fill:black;font-family:Sans;text-anchor:middle;text-align:center"></text>
</g>
<g>
<path style="fill:rgb(255, 200, 150);fill-opacity:1.0;fill-rule:evenodd;stroke:rgb(0, 0, 0);stroke-width:1.0;" d="M 126.481, 236.118 L 127.926, 251.974 L 114.986, 264.946 L 96.2033, 264.168 L 98.1819, 231.789 z "/>
<text x="110.90132591016608" y="248.5261117001409" dy="0.3em" style="font-size:10px;fill:black;font-family:Sans;text-anchor:middle;text-align:center">.</text>
</g>
<g>
<path style="fill:rgb(255, 200, 150);fill-opacity:1.0;fill-rule:evenodd;stroke:rgb(0, 0, 0);stroke-width:1.0;" d="M 119.467, 159.145 L 120.831, 174.117 L 100.92, 186.984 L 100.977, 186.048 L 115.822, 158.524 z "/>
<text x="113.09285189672597" y="172.1889826476549" dy="0.3em" style="font-size:10px;fill:black;font-family:Sans;text-anchor:middle;text-align:center">.</text>
</g>
<g>
<path style="fill:rgb(255, 200, 150);fill-opacity:1.0;fill-rule:evenodd;stroke:rgb(0, 0, 0);stroke-width:1.0;" d="M 93.507, 49.8644 L 75.9829, 113.403 L 37.7936, 85.4337 L 64.9586, 5.15802 z "/>
<text x="67.0884521913272" y="63.20339527892467" dy="0.3em" style="font-size:10px;fill:black;font-family:Sans;text-anchor:middle;text-align:center">.</text>
</g>
<g>
<path style="fill:rgb(255, 200, 150);fill-opacity:1.0;fill-rule:evenodd;stroke:rgb(0, 0, 0);stroke-width:1.0;" d="M 64.9586, 5.15802 L 37.7936, 85.4337 L 0, 88.3319 L 0, 0 L 61.6649, 0 z "/>
<text x="26.509829627583784" y="39.4632386242751" dy="0.3em" style="font-size:10px;fill:black;font-family:Sans;text-anchor:middle;text-align:center"></text>
</g>
<g>
<path style="fill:rgb(255, 200, 150);fill-opacity:1.0;fill-rule:evenodd;stroke:rgb(0, 0, 0);stroke-width:1.0;" d="M 25.7656, 139.017 L 0, 140.848 L 0, 98.3684 z "/>
<text x="8.588535146414902" y="126.07766458109859" dy="0.3em" style="font-size:10px;fill:black;font-family:Sans;text-anchor:middle;text-align:center"></text>
</g>
<g>
<path style="fill:rgb(255, 200, 150);fill-opacity:1.0;fill-rule:evenodd;stroke:rgb(0, 0, 0);stroke-width:1.0;" d="M 75.9829, 113.403 L 69.7812, 135.888 L 25.7656, 139.017 L 0, 98.3684 L 0, 88.3319 L 37.7936, 85.4337 z "/>
<text x="37.61178908670206" y="112.37502735387747" dy="0.3em" style="font-size:10px;fill:black;font-family:Sans;text-anchor:middle;text-align:center">.</text>
</g>
<g>
<path style="fill:rgb(255, 200, 150);fill-opacity:1.0;fill-rule:evenodd;stroke:rgb(0, 0, 0);stroke-width:1.0;" d="M 114.986, 264.946 L 119.653, 281.595 L 112.997, 280.309 L 104.122, 276.373 L 102.376, 264.424 z "/>
<text x="110.73266015021619" y="272.34478634533866" dy="0.3em" style="font-size:10px;fill:black;font-family:Sans;text-anchor:middle;text-align:center"></text>
</g>
<g>
<path style="fill:rgb(255, 200, 150);fill-opacity:1.0;fill-rule:evenodd;stroke:rgb(0, 0, 0);stroke-width:1.0;" d="M 119.653, 281.595 L 124.813, 300 L 107.457, 300 L 112.997, 280.309 z "/>
<text x="116.11844547198588" y="291.8828885426025" dy="0.3em" style="font-size:10px;fill:black;font-family:Sans;text-anchor:middle;text-align:center">.</text>
</g>
<g>
<path style="fill:rgb(255, 200, 150);fill-opacity:1.0;fill-rule:evenodd;stroke:rgb(0, 0, 0);stroke-width:1.0;" d="M 112.997, 280.309 L 107.457, 300 L 83.8653, 300 L 104.122, 276.373 z "/>
<text x="101.0131017269076" y="290.41306073848557" dy="0.3em" style="font-size:10px;fill:black;font-family:Sans;text-anchor:middle;text-align:center"></text>
</g>
<g>
<path style="fill:rgb(255, 200, 150);fill-opacity:1.0;fill-rule:evenodd;stroke:rgb(0, 0, 0);stroke-width:1.0;" d="M 102.376, 264.424 L 104.122, 276.373 L 83.8653, 300 L 0, 300 L 0, 290.28 L 54.5838, 265.003 L 96.2033, 264.168 z "/>
<text x="56.74248749192887" y="283.85750531000537" dy="0.3em" style="font-size:10px;fill:black;font-family:Sans;text-anchor:middle;text-align:center"></text>
</g>
<g>
<path style="fill:rgb(255, 200, 150);fill-opacity:1.0;fill-rule:evenodd;stroke:rgb(0, 0, 0);stroke-width:1.0;" d="M 300, 269.332 L 292.174, 267.71 L 270.645, 256.12 L 268.09, 253.719 L 265.405, 247.735 L 300, 236.099 z "/>
<text x="287.0597821597452" y="252.44786575092695" dy="0.3em" style="font-size:10px;fill:black;font-family:Sans;text-anchor:middle;text-align:center">.</text>
</g>
<g>
<path style="fill:rgb(255, 200, 150);fill-opacity:1.0;fill-rule:evenodd;stroke:rgb(0, 0, 0);stroke-width:1.0;" d="M 270.645, 256.12 L 262.789, 261.62 L 255.059, 260.018 L 268.09, 253.719 z "/>
<text x="263.6477969438755" y="258.03542555711635" dy="0.3em" style="font-size:10px;fill:black;font-family:Sans;text-anchor:middle;text-align:center"></text>
</g>
<g>
<path style="fill:rgb(255, 200, 150);fill-opacity:1.0;fill-rule:evenodd;stroke:rgb(0, 0, 0);stroke-width:1.0;" d="M 268.09, 253.719 L 255.059, 260.018 L 250.775, 259.131 L 243.16, 255.218 L 265.405, 247.735 z "/>
<text x="257.00143520033765" y="254.29267652614777" dy="0.3em" style="font-size:10px;fill:black;font-family:Sans;text-anchor:middle;text-align:center">.</text>
</g>
<g>
<path style="fill:rgb(255, 200, 150);fill-opacity:1.0;fill-rule:evenodd;stroke:rgb(0, 0, 0);stroke-width:1.0;" d="M 292.174, 267.71 L 262.789, 261.62 L 270.645, 256.12 z "/>
<text x="275.2024497272928" y="261.8167016867299" dy="0.3em" style="font-size:10px;fill:black;font-family:Sans;text-anchor:middle;text-align:center">.</text>
</g>
<g>
<path style="fill:rgb(255, 200, 150);fill-opacity:1.0;fill-rule:evenodd;stroke:rgb(0, 0, 0);stroke-width:1.0;" d="M 248.171, 234.553 L 240.761, 254.641 L 228.56, 260.695 L 205.699, 239.092 L 213.236, 221.425 L 226.529, 220.774 z "/>
<text x="227.0289579691455" y="239.10146101032348" dy="0.3em" style="font-size:10px;fill:black;font-family:Sans;text-anchor:middle;text-align:center"></text>
</g>
<g>
<path style="fill:rgb(255, 200, 150);fill-opacity:1.0;fill-rule:evenodd;stroke:rgb(0, 0, 0);stroke-width:1.0;" d="M 213.236, 221.425 L 205.699, 239.092 L 189.911, 224.172 L 181.423, 182.39 L 212.489, 176.341 z "/>
<text x="199.7744738876057" y="203.95933216867914" dy="0.3em" style="font-size:10px;fill:black;font-family:Sans;text-anchor:middle;text-align:center"></text>
</g>
<g>
<path style="fill:rgb(255, 200, 150);fill-opacity:1.0;fill-rule:evenodd;stroke:rgb(0, 0, 0);stroke-width:1.0;" d="M 265.088, 188.694 L 248.171, 234.553 L 226.529, 220.774 L 243.333, 171.944 z "/>
<text x="245.752554465583" y="203.75887873700106" dy="0.3em" style="font-size:10px;fill:black;font-family:Sans;text-anchor:middle;text-align:center">.</text>
</g>
<g>
<path style="fill:rgb(255, 200, 150);fill-opacity:1.0;fill-rule:evenodd;stroke:rgb(0, 0, 0);stroke-width:1.0;" d="M 243.333, 171.944 L 226.529, 220.774 L 213.236, 221.425 L 212.489, 176.341 L 241.664, 170.66 z "/>
<text x="224.66980425841874" y="194.06745555171665" dy="0.3em" style="font-size:10px;fill:black;font-family:Sans;text-anchor:middle;text-align:center"></text>
</g>
<g>
<path style="fill:rgb(255, 0, 0);fill-opacity:1.0;fill-rule:evenodd;stroke:rgb(0, 0, 0);stroke-width:1.0;" d="M 157.021, 256.504 L 165.911, 274.726 L 146.744, 276.797 L 141.856, 254.143 z "/>
<text x="152.75383380529712" y="266.0865131210979" dy="0.3em" style="font-size:10px;fill:black;font-family:Sans;text-anchor:middle;text-align:center">.</text>
</g>
<g>
<path style="fill:rgb(255, 0, 0);fill-opacity:1.0;fill-rule:evenodd;stroke:rgb(0, 0, 0);stroke-width:1.0;" d="M 141.856, 254.143 L 146.744, 276.797 L 147.934, 290.425 L 142.372, 300 L 124.813, 300 L 114.986, 264.946 L 127.926, 251.974 z "/>
<text x="132.58284510102953" y="276.54608203672404" dy="0.3em" style="font-size:10px;fill:black;font-family:Sans;text-anchor:middle;text-align:center">.</text>
</g>
<g>
<path style="fill:rgb(255, 0, 0);fill-opacity:1.0;fill-rule:evenodd;stroke:rgb(0, 0, 0);stroke-width:1.0;" d="M 170.173, 283.463 L 147.934, 290.425 L 146.744, 276.797 L 165.911, 274.726 z "/>
<text x="157.1164499678617" y="281.6699878243487" dy="0.3em" style="font-size:10px;fill:black;font-family:Sans;text-anchor:middle;text-align:center">.</text>
</g>
<g>
<path style="fill:rgb(255, 0, 0);fill-opacity:1.0;fill-rule:evenodd;stroke:rgb(0, 0, 0);stroke-width:1.0;" d="M 178.24, 300 L 142.372, 300 L 147.934, 290.425 L 170.173, 283.463 z "/>
<text x="161.30168431057365" y="293.763125119869" dy="0.3em" style="font-size:10px;fill:black;font-family:Sans;text-anchor:middle;text-align:center">.</text>
</g>
<g>
<path style="fill:rgb(255, 127, 0);fill-opacity:1.0;fill-rule:evenodd;stroke:rgb(0, 0, 0);stroke-width:1.0;" d="M 248.42, 122.775 L 217.52, 120.477 L 230.459, 71.8649 L 257.946, 55.2446 z "/>
<text x="239.21725285767104" y="93.60774757360473" dy="0.3em" style="font-size:10px;fill:black;font-family:Sans;text-anchor:middle;text-align:center">.</text>
</g>
<g>
<path style="fill:rgb(255, 127, 0);fill-opacity:1.0;fill-rule:evenodd;stroke:rgb(0, 0, 0);stroke-width:1.0;" d="M 201.117, 126.019 L 178.043, 180.318 L 138.101, 155.838 L 167.122, 110.162 L 185.394, 99.1137 z "/>
<text x="172.55663184225952" y="140.16093803097877" dy="0.3em" style="font-size:10px;fill:black;font-family:Sans;text-anchor:middle;text-align:center">.</text>
</g>
<g>
<path style="fill:rgb(255, 127, 0);fill-opacity:1.0;fill-rule:evenodd;stroke:rgb(0, 0, 0);stroke-width:1.0;" d="M 248.42, 122.775 L 241.664, 170.66 L 181.423, 182.39 L 178.043, 180.318 L 201.117, 126.019 L 217.52, 120.477 z "/>
<text x="216.3050576969871" y="150.88747622465468" dy="0.3em" style="font-size:10px;fill:black;font-family:Sans;text-anchor:middle;text-align:center">.</text>
</g>
<g>
<path style="fill:rgb(255, 127, 0);fill-opacity:1.0;fill-rule:evenodd;stroke:rgb(0, 0, 0);stroke-width:1.0;" d="M 217.52, 120.477 L 201.117, 126.019 L 185.394, 99.1137 L 230.459, 71.8649 z "/>
<text x="208.9404693378754" y="101.18267648177772" dy="0.3em" style="font-size:10px;fill:black;font-family:Sans;text-anchor:middle;text-align:center">.</text>
</g>
<g>
<path style="fill:rgb(255, 255, 0);fill-opacity:1.0;fill-rule:evenodd;stroke:rgb(0, 0, 0);stroke-width:1.0;" d="M 46.5526, 176.355 L 26.3437, 184.291 L 0, 171.939 L 0, 140.848 L 30.3624, 138.69 z "/>
<text x="20.6902381820213" y="160.96609491902072" dy="0.3em" style="font-size:10px;fill:black;font-family:Sans;text-anchor:middle;text-align:center">.</text>
</g>
<g>
<path style="fill:rgb(255, 255, 0);fill-opacity:1.0;fill-rule:evenodd;stroke:rgb(0, 0, 0);stroke-width:1.0;" d="M 115.822, 158.524 L 100.977, 186.048 L 86.608, 210.502 L 46.5526, 176.355 L 30.3624, 138.69 L 69.7812, 135.888 z "/>
<text x="73.7525045062856" y="166.50703453956646" dy="0.3em" style="font-size:10px;fill:black;font-family:Sans;text-anchor:middle;text-align:center">.</text>
</g>
<g>
<path style="fill:rgb(255, 255, 0);fill-opacity:1.0;fill-rule:evenodd;stroke:rgb(0, 0, 0);stroke-width:1.0;" d="M 86.608, 210.502 L 54.5838, 265.003 L 0, 290.28 L 0, 217.717 L 26.3437, 184.291 L 46.5526, 176.355 z "/>
<text x="36.07505399848804" y="230.37844566397987" dy="0.3em" style="font-size:10px;fill:black;font-family:Sans;text-anchor:middle;text-align:center">.</text>
</g>
<g>
<path style="fill:rgb(255, 255, 0);fill-opacity:1.0;fill-rule:evenodd;stroke:rgb(0, 0, 0);stroke-width:1.0;" d="M 26.3437, 184.291 L 0, 217.717 L 0, 171.939 z "/>
<text x="8.781221847961897" y="191.31537852931723" dy="0.3em" style="font-size:10px;fill:black;font-family:Sans;text-anchor:middle;text-align:center">.</text>
</g>
<g>
<path style="fill:rgb(0, 255, 0);fill-opacity:1.0;fill-rule:evenodd;stroke:rgb(0, 0, 0);stroke-width:1.0;" d="M 300, 190.244 L 300, 208.27 L 259.368, 204.2 L 265.088, 188.694 z "/>
<text x="281.46417992088914" y="198.10544722939997" dy="0.3em" style="font-size:10px;fill:black;font-family:Sans;text-anchor:middle;text-align:center">.</text>
</g>
<g>
<path style="fill:rgb(0, 255, 0);fill-opacity:1.0;fill-rule:evenodd;stroke:rgb(0, 0, 0);stroke-width:1.0;" d="M 300, 208.27 L 300, 236.099 L 278.174, 243.44 L 261.358, 225.093 L 255.18, 215.553 L 259.368, 204.2 z "/>
<text x="279.9293728258521" y="221.70245579782392" dy="0.3em" style="font-size:10px;fill:black;font-family:Sans;text-anchor:middle;text-align:center">.</text>
</g>
<g>
<path style="fill:rgb(0, 255, 0);fill-opacity:1.0;fill-rule:evenodd;stroke:rgb(0, 0, 0);stroke-width:1.0;" d="M 278.174, 243.44 L 245.442, 254.45 L 261.358, 225.093 z "/>
<text x="261.65780834001816" y="240.99453889162032" dy="0.3em" style="font-size:10px;fill:black;font-family:Sans;text-anchor:middle;text-align:center">.</text>
</g>
<g>
<path style="fill:rgb(0, 255, 0);fill-opacity:1.0;fill-rule:evenodd;stroke:rgb(0, 0, 0);stroke-width:1.0;" d="M 261.358, 225.093 L 245.442, 254.45 L 243.16, 255.218 L 240.761, 254.641 L 255.18, 215.553 z "/>
<text x="251.5313586357738" y="235.27635831484864" dy="0.3em" style="font-size:10px;fill:black;font-family:Sans;text-anchor:middle;text-align:center">.</text>
</g>
<g>
<path style="fill:rgb(150, 0, 255);fill-opacity:1.0;fill-rule:evenodd;stroke:rgb(0, 0, 0);stroke-width:1.0;" d="M 252.43, 14.1564 L 226.763, 55.502 L 153.873, 26.6568 L 181.061, 0 L 256.874, 0 z "/>
<text x="209.00575302928138" y="22.025926677607384" dy="0.3em" style="font-size:10px;fill:black;font-family:Sans;text-anchor:middle;text-align:center">.</text>
</g>
<g>
<path style="fill:rgb(150, 0, 255);fill-opacity:1.0;fill-rule:evenodd;stroke:rgb(0, 0, 0);stroke-width:1.0;" d="M 277.74, 28.3861 L 252.43, 14.1564 L 256.874, 0 L 298.66, 0 z "/>
<text x="273.7176613909533" y="10.699301870709757" dy="0.3em" style="font-size:10px;fill:black;font-family:Sans;text-anchor:middle;text-align:center">.</text>
</g>
<g>
<path style="fill:rgb(150, 0, 255);fill-opacity:1.0;fill-rule:evenodd;stroke:rgb(0, 0, 0);stroke-width:1.0;" d="M 277.74, 28.3861 L 257.946, 55.2446 L 236.173, 68.4097 L 226.763, 55.502 L 252.43, 14.1564 z "/>
<text x="251.05223150706394" y="41.11815028790315" dy="0.3em" style="font-size:10px;fill:black;font-family:Sans;text-anchor:middle;text-align:center">.</text>
</g>
<g>
<path style="fill:rgb(150, 0, 255);fill-opacity:1.0;fill-rule:evenodd;stroke:rgb(0, 0, 0);stroke-width:1.0;" d="M 226.763, 55.502 L 236.173, 68.4097 L 167.122, 110.162 L 133.273, 46.8552 L 153.873, 26.6568 z "/>
<text x="179.60966302578336" y="65.45970343387454" dy="0.3em" style="font-size:10px;fill:black;font-family:Sans;text-anchor:middle;text-align:center">.</text>
</g>
<g>
<path style="fill:rgb(255, 0, 255);fill-opacity:1.0;fill-rule:evenodd;stroke:rgb(0, 0, 0);stroke-width:1.0;" d="M 158.318, 226.158 L 125.413, 224.4 L 121.629, 182.871 L 157.696, 176.17 z "/>
<text x="141.26044117005011" y="201.96943499227697" dy="0.3em" style="font-size:10px;fill:black;font-family:Sans;text-anchor:middle;text-align:center">.</text>
</g>
<g>
<path style="fill:rgb(255, 0, 255);fill-opacity:1.0;fill-rule:evenodd;stroke:rgb(0, 0, 0);stroke-width:1.0;" d="M 181.423, 182.39 L 189.911, 224.172 L 172.055, 241.725 L 158.318, 226.158 L 157.696, 176.17 L 161.988, 170.479 z "/>
<text x="171.59609496417693" y="206.4565692509844" dy="0.3em" style="font-size:10px;fill:black;font-family:Sans;text-anchor:middle;text-align:center">.</text>
</g>
<g>
<path style="fill:rgb(255, 0, 255);fill-opacity:1.0;fill-rule:evenodd;stroke:rgb(0, 0, 0);stroke-width:1.0;" d="M 161.988, 170.479 L 157.696, 176.17 L 121.629, 182.871 L 119.467, 159.145 L 138.101, 155.838 z "/>
<text x="137.1253879401815" y="169.39802700359056" dy="0.3em" style="font-size:10px;fill:black;font-family:Sans;text-anchor:middle;text-align:center">.</text>
</g>
<g>
<path style="fill:rgb(255, 0, 255);fill-opacity:1.0;fill-rule:evenodd;stroke:rgb(0, 0, 0);stroke-width:1.0;" d="M 158.318, 226.158 L 172.055, 241.725 L 157.021, 256.504 L 127.926, 251.974 L 125.413, 224.4 z "/>
<text x="146.37138105756702" y="239.8733047043449" dy="0.3em" style="font-size:10px;fill:black;font-family:Sans;text-anchor:middle;text-align:center">.</text>
</g>
<g>
<path style="fill:rgb(0, 255, 255);fill-opacity:1.0;fill-rule:evenodd;stroke:rgb(0, 0, 0);stroke-width:1.0;" d="M 290.347, 68.1157 L 259.831, 125.753 L 248.297, 123.646 L 256.294, 66.9576 z "/>
<text x="265.3015421151472" y="91.59398234869143" dy="0.3em" style="font-size:10px;fill:black;font-family:Sans;text-anchor:middle;text-align:center">.</text>
</g>
<g>
<path style="fill:rgb(0, 255, 255);fill-opacity:1.0;fill-rule:evenodd;stroke:rgb(0, 0, 0);stroke-width:1.0;" d="M 259.831, 125.753 L 300, 140.798 L 300, 190.244 L 265.088, 188.694 L 241.664, 170.66 L 248.297, 123.646 z "/>
<text x="272.0865056891767" y="158.99992606605412" dy="0.3em" style="font-size:10px;fill:black;font-family:Sans;text-anchor:middle;text-align:center">.</text>
</g>
<g>
<path style="fill:rgb(0, 255, 255);fill-opacity:1.0;fill-rule:evenodd;stroke:rgb(0, 0, 0);stroke-width:1.0;" d="M 300, 140.798 L 259.831, 125.753 L 290.347, 68.1157 L 300, 65.5577 z "/>
<text x="286.1707823489392" y="107.3926195198943" dy="0.3em" style="font-size:10px;fill:black;font-family:Sans;text-anchor:middle;text-align:center">.</text>
</g>
<g>
<path style="fill:rgb(0, 255, 255);fill-opacity:1.0;fill-rule:evenodd;stroke:rgb(0, 0, 0);stroke-width:1.0;" d="M 300, 65.5577 L 290.347, 68.1157 L 256.294, 66.9576 L 257.946, 55.2446 L 298.66, 0 L 300, 0 z "/>
<text x="283.7058415938132" y="43.86511245377127" dy="0.3em" style="font-size:10px;fill:black;font-family:Sans;text-anchor:middle;text-align:center">.</text>
</g>
<g>
<path style="fill:rgb(150, 150, 150);fill-opacity:1.0;fill-rule:evenodd;stroke:rgb(0, 0, 0);stroke-width:1.0;" d="M 245.973, 286.388 L 243.943, 300 L 214.767, 300 L 228.56, 260.695 L 232.73, 258.626 z "/>
<text x="231.59911114867245" y="284.4056835490364" dy="0.3em" style="font-size:10px;fill:black;font-family:Sans;text-anchor:middle;text-align:center">.</text>
</g>
<g>
<path style="fill:rgb(150, 150, 150);fill-opacity:1.0;fill-rule:evenodd;stroke:rgb(0, 0, 0);stroke-width:1.0;" d="M 243.16, 255.218 L 250.775, 259.131 L 268.314, 281.354 L 260.288, 284.913 L 245.973, 286.388 L 232.73, 258.626 L 240.761, 254.641 z "/>
<text x="249.33136310655124" y="271.55105268692967" dy="0.3em" style="font-size:10px;fill:black;font-family:Sans;text-anchor:middle;text-align:center">.</text>
</g>
<g>
<path style="fill:rgb(150, 150, 150);fill-opacity:1.0;fill-rule:evenodd;stroke:rgb(0, 0, 0);stroke-width:1.0;" d="M 283.031, 300 L 271.001, 300 L 260.288, 284.913 L 268.314, 281.354 z "/>
<text x="270.96794799960395" y="291.696707614186" dy="0.3em" style="font-size:10px;fill:black;font-family:Sans;text-anchor:middle;text-align:center">.</text>
</g>
<g>
<path style="fill:rgb(150, 150, 150);fill-opacity:1.0;fill-rule:evenodd;stroke:rgb(0, 0, 0);stroke-width:1.0;" d="M 271.001, 300 L 243.943, 300 L 245.973, 286.388 L 260.288, 284.913 z "/>
<text x="255.74318603944056" y="293.5204428890593" dy="0.3em" style="font-size:10px;fill:black;font-family:Sans;text-anchor:middle;text-align:center">.</text>
</g>
</svg>