<?xml version="1.0" encoding="iso-8859-1" standalone="no"?>
<!DOCTYPE svg PUBLIC "-//W3C//DTD SVG 1.0//EN" "http://www.w3.org/TR/2001/REC-SVG-20010904/DTD/svg10.dtd">
<svg xmlns="http://www.w3.org/2000/svg" width="300" height="300">
<g>
<path style="fill:rgb(0, 0, 255);fill-opacity:1.0;fill-rule:evenodd;stroke:rgb(0, 0, 0);stroke-width:1.0;" d="M 249.917, 68.4588 L 263.559, 106.1 L 242.567, 128.304 L 204.187, 96.1365 L 222.804, 66.0599 z "/>
<text x="235.78256129846443" y="94.46463059949912" dy="0.3em" style="font-size:10px;fill:black;font-family:Sans;text-anchor:middle;text-align:center"></text>
</g>
<g>
<path style="fill:rgb(0, 0, 255);fill-opacity:1.0;fill-rule:evenodd;stroke:rgb(0, 0, 0);stroke-width:1.0;" d="M 246.29, 275.435 L 242.738, 280.982 L 202.793, 272.524 L 202.924, 263.891 L 239.143, 245.35 z "/>
<text x="227.14735664215692" y="265.4065982295772" dy="0.3em" style="font-size:10px;fill:black;font-family:Sans;text-anchor:middle;text-align:center"></text>
</g>
<g>
<path style="fill:rgb(0, 0, 255);fill-opacity:1.0;fill-rule:evenodd;stroke:rgb(0, 0, 0);stroke-width:1.0;" d="M 242.981, 232.128 L 239.143, 245.35 L 202.924, 263.891 L 189.803, 240.425 L 195.128, 226.334 z "/>
<text x="213.8760174400163" y="242.17769911103522" dy="0.3em" style="font-size:10px;fill:black;font-family:Sans;text-anchor:middle;text-align:center"></text>
</g>
<g>
<path style="fill:rgb(0, 0, 255);fill-opacity:1.0;fill-rule:evenodd;stroke:rgb(0, 0, 0);stroke-width:1.0;" d="M 137.731, 239.395 L 140.762, 252.294 L 134.599, 259.807 L 83.7274, 260.511 L 78.7571, 216.231 L 79.2657, 215.967 z "/>
<text x="106.37859131867476" y="243.0407623167487" dy="0.3em" style="font-size:10px;fill:black;font-family:Sans;text-anchor:middle;text-align:center"></text>
</g>
<g>
<path style="fill:rgb(0, 0, 255);fill-opacity:1.0;fill-rule:evenodd;stroke:rgb(0, 0, 0);stroke-width:1.0;" d="M 300, 172.289 L 300, 235.698 L 284.219, 239.399 L 248.358, 227.127 L 246.692, 199.525 L 277.172, 171.614 z "/>
<text x="276.89228095183284" y="206.32185382008768" dy="0.3em" style="font-size:10px;fill:black;font-family:Sans;text-anchor:middle;text-align:center"></text>
</g>
<g>
<path style="fill:rgb(0, 0, 255);fill-opacity:1.0;fill-rule:evenodd;stroke:rgb(0, 0, 0);stroke-width:1.0;" d="M 293.193, 300 L 242.463, 300 L 242.738, 280.982 L 246.29, 275.435 L 270.982, 272.007 z "/>
<text x="263.6224248319844" y="288.1673422688608" dy="0.3em" style="font-size:10px;fill:black;font-family:Sans;text-anchor:middle;text-align:center"></text>
</g>
<g>
<path style="fill:rgb(0, 0, 255);fill-opacity:1.0;fill-rule:evenodd;stroke:rgb(0, 0, 0);stroke-width:1.0;" d="M 200.969, 182.05 L 190.036, 205.648 L 143.975, 209.203 L 140.476, 202.716 L 143.704, 166.107 z "/>
<text x="166.48321010445554" y="189.84078817760735" dy="0.3em" style="font-size:10px;fill:black;font-family:Sans;text-anchor:middle;text-align:center"></text>
</g>
<g>
<path style="fill:rgb(0, 0, 255);fill-opacity:1.0;fill-rule:evenodd;stroke:rgb(0, 0, 0);stroke-width:1.0;" d="M 78.7571, 216.231 L 83.7274, 260.511 L 77.02, 270.003 L 46.9355, 265.071 L 34.7939, 243.547 L 43.5819, 224.691 L 63.1304, 212.743 z "/>
<text x="61.662380726383695" y="242.31977878747068" dy="0.3em" style="font-size:10px;fill:black;font-family:Sans;text-anchor:middle;text-align:center"></text>
</g>
<g>
<path style="fill:rgb(0, 0, 255);fill-opacity:1.0;fill-rule:evenodd;stroke:rgb(0, 0, 0);stroke-width:1.0;" d="M 277.172, 171.614 L 246.692, 199.525 L 202.995, 180.393 L 206.522, 161.081 L 242.163, 134.112 z "/>
<text x="238.72615708732295" y="168.82633502334144" dy="0.3em" style="font-size:10px;fill:black;font-family:Sans;text-anchor:middle;text-align:center"></text>
</g>
<g>
<path style="fill:rgb(0, 0, 255);fill-opacity:1.0;fill-rule:evenodd;stroke:rgb(0, 0, 0);stroke-width:1.0;" d="M 130.058, 300 L 81.1588, 300 L 77.02, 270.003 L 83.7274, 260.511 L 134.599, 259.807 z "/>
<text x="105.93731740994308" y="279.77431170272143" dy="0.3em" style="font-size:10px;fill:black;font-family:Sans;text-anchor:middle;text-align:center"></text>
</g>
<g>
<path style="fill:rgb(0, 0, 255);fill-opacity:1.0;fill-rule:evenodd;stroke:rgb(0, 0, 0);stroke-width:1.0;" d="M 32.4378, 60.4575 L 46.0635, 109.39 L 44.5955, 110.876 L 0, 110.17 L 0, 49.0712 z "/>
<text x="19.1759918410784" y="84.36398441804306" dy="0.3em" style="font-size:10px;fill:black;font-family:Sans;text-anchor:middle;text-align:center"></text>
</g>
<g>
<path style="fill:rgb(0, 0, 255);fill-opacity:1.0;fill-rule:evenodd;stroke:rgb(0, 0, 0);stroke-width:1.0;" d="M 206.522, 161.081 L 202.995, 180.393 L 200.969, 182.05 L 143.704, 166.107 L 143.013, 164.688 L 149.479, 142.831 L 177.24, 128.44 z "/>
<text x="175.7427832924052" y="156.87036675717846" dy="0.3em" style="font-size:10px;fill:black;font-family:Sans;text-anchor:middle;text-align:center"></text>
</g>
<g>
<path style="fill:rgb(0, 0, 255);fill-opacity:1.0;fill-rule:evenodd;stroke:rgb(0, 0, 0);stroke-width:1.0;" d="M 284.219, 239.399 L 270.982, 272.007 L 246.29, 275.435 L 239.143, 245.35 L 242.981, 232.128 L 248.358, 227.127 z "/>
<text x="259.20921817403206" y="251.1927312832531" dy="0.3em" style="font-size:10px;fill:black;font-family:Sans;text-anchor:middle;text-align:center"></text>
</g>
<g>
<path style="fill:rgb(0, 0, 255);fill-opacity:1.0;fill-rule:evenodd;stroke:rgb(0, 0, 0);stroke-width:1.0;" d="M 300, 66.7469 L 300, 105.12 L 263.559, 106.1 L 249.917, 68.4588 L 260.962, 57.7216 z "/>
<text x="277.1433284204127" y="82.71486127890121" dy="0.3em" style="font-size:10px;fill:black;font-family:Sans;text-anchor:middle;text-align:center"></text>
</g>
<g>
<path style="fill:rgb(0, 0, 255);fill-opacity:1.0;fill-rule:evenodd;stroke:rgb(0, 0, 0);stroke-width:1.0;" d="M 244.767, 13.046 L 229.545, 23.9374 L 188.272, 10.7603 L 186.682, 8.90462 L 185.226, 0 L 246.479, 0 z "/>
<text x="218.1598417978954" y="9.053610220991576" dy="0.3em" style="font-size:10px;fill:black;font-family:Sans;text-anchor:middle;text-align:center"></text>
</g>
<g>
<path style="fill:rgb(0, 0, 255);fill-opacity:1.0;fill-rule:evenodd;stroke:rgb(0, 0, 0);stroke-width:1.0;" d="M 149.479, 142.831 L 143.013, 164.688 L 97.9381, 162.232 L 91.4289, 154.11 L 94.027, 133.41 L 119.961, 111.074 z "/>
<text x="119.57894475439336" y="142.76249024966367" dy="0.3em" style="font-size:10px;fill:black;font-family:Sans;text-anchor:middle;text-align:center"></text>
</g>
<g>
<path style="fill:rgb(0, 0, 255);fill-opacity:1.0;fill-rule:evenodd;stroke:rgb(0, 0, 0);stroke-width:1.0;" d="M 78.8873, 44.2914 L 32.4378, 60.4575 L 0, 49.0712 L 0, 0 L 79.7459, 0 z "/>
<text x="38.74517905100702" y="26.79896368382068" dy="0.3em" style="font-size:10px;fill:black;font-family:Sans;text-anchor:middle;text-align:center"></text>
</g>
<g>
<path style="fill:rgb(0, 0, 255);fill-opacity:1.0;fill-rule:evenodd;stroke:rgb(0, 0, 0);stroke-width:1.0;" d="M 229.545, 23.9374 L 217.267, 55.3311 L 199.291, 47.1222 L 188.272, 10.7603 z "/>
<text x="208.88394944533061" y="32.16358382982341" dy="0.3em" style="font-size:10px;fill:black;font-family:Sans;text-anchor:middle;text-align:center"></text>
</g>
<g>
<path style="fill:rgb(0, 0, 255);fill-opacity:1.0;fill-rule:evenodd;stroke:rgb(0, 0, 0);stroke-width:1.0;" d="M 147.047, 52.526 L 146.729, 55.3409 L 84.0908, 50.5696 L 78.8873, 44.2914 L 79.7459, 0 L 129.726, 0 z "/>
<text x="109.83098517723555" y="27.66762487789565" dy="0.3em" style="font-size:10px;fill:black;font-family:Sans;text-anchor:middle;text-align:center"></text>
</g>
<g>
<path style="fill:rgb(0, 0, 255);fill-opacity:1.0;fill-rule:evenodd;stroke:rgb(0, 0, 0);stroke-width:1.0;" d="M 195.128, 226.334 L 189.803, 240.425 L 147.812, 253.397 L 140.762, 252.294 L 137.731, 239.395 L 143.975, 209.203 L 190.036, 205.648 z "/>
<text x="165.27617168961626" y="228.04454815773596" dy="0.3em" style="font-size:10px;fill:black;font-family:Sans;text-anchor:middle;text-align:center"></text>
</g>
<g>
<path style="fill:rgb(0, 0, 255);fill-opacity:1.0;fill-rule:evenodd;stroke:rgb(0, 0, 0);stroke-width:1.0;" d="M 97.9381, 162.232 L 94.8244, 197.396 L 79.2657, 215.967 L 78.7571, 216.231 L 63.1304, 212.743 L 46.7192, 179.397 L 53.5697, 160.737 L 91.4289, 154.11 z "/>
<text x="74.0442598212651" y="182.91686318039368" dy="0.3em" style="font-size:10px;fill:black;font-family:Sans;text-anchor:middle;text-align:center"></text>
</g>
<g>
<path style="fill:rgb(0, 0, 255);fill-opacity:1.0;fill-rule:evenodd;stroke:rgb(0, 0, 0);stroke-width:1.0;" d="M 188.272, 10.7603 L 199.291, 47.1222 L 163.748, 61.6433 L 148.767, 59.0446 L 146.729, 55.3409 L 147.047, 52.526 L 186.682, 8.90462 z "/>
<text x="175.39511466539432" y="40.36772889757893" dy="0.3em" style="font-size:10px;fill:black;font-family:Sans;text-anchor:middle;text-align:center"></text>
</g>
<g>
<path style="fill:rgb(0, 0, 255);fill-opacity:1.0;fill-rule:evenodd;stroke:rgb(0, 0, 0);stroke-width:1.0;" d="M 63.1304, 212.743 L 43.5819, 224.691 L 0, 200.86 L 0, 186.303 L 46.7192, 179.397 z "/>
<text x="32.326925966179886" y="200.155175956766" dy="0.3em" style="font-size:10px;fill:black;font-family:Sans;text-anchor:middle;text-align:center"></text>
</g>
<g>
<path style="fill:rgb(0, 0, 255);fill-opacity:1.0;fill-rule:evenodd;stroke:rgb(0, 0, 0);stroke-width:1.0;" d="M 53.5697, 160.737 L 46.7192, 179.397 L 0, 186.303 L 0, 151.308 L 41.4016, 143.066 z "/>
<text x="24.74416073452153" y="164.90663380547946" dy="0.3em" style="font-size:10px;fill:black;font-family:Sans;text-anchor:middle;text-align:center"></text>
</g>
<g>
<path style="fill:rgb(0, 0, 255);fill-opacity:1.0;fill-rule:evenodd;stroke:rgb(0, 0, 0);stroke-width:1.0;" d="M 44.5955, 110.876 L 41.4016, 143.066 L 0, 151.308 L 0, 110.17 z "/>
<text x="20.60506208336911" y="128.67870351048785" dy="0.3em" style="font-size:10px;fill:black;font-family:Sans;text-anchor:middle;text-align:center"></text>
</g>
<g>
<path style="fill:rgb(0, 0, 255);fill-opacity:1.0;fill-rule:evenodd;stroke:rgb(0, 0, 0);stroke-width:1.0;" d="M 94.027, 133.41 L 91.4289, 154.11 L 53.5697, 160.737 L 41.4016, 143.066 L 44.5955, 110.876 L 46.0635, 109.39 L 61.0537, 107.515 z "/>
<text x="65.34845985663908" y="135.6171649433403" dy="0.3em" style="font-size:10px;fill:black;font-family:Sans;text-anchor:middle;text-align:center"></text>
</g>
<g>
<path style="fill:rgb(0, 0, 255);fill-opacity:1.0;fill-rule:evenodd;stroke:rgb(0, 0, 0);stroke-width:1.0;" d="M 43.5819, 224.691 L 34.7939, 243.547 L 32.799, 243.936 L 0, 234.153 L 0, 200.86 z "/>
<text x="18.49911712639417" y="224.9313758379477" dy="0.3em" style="font-size:10px;fill:black;font-family:Sans;text-anchor:middle;text-align:center"></text>
</g>
<g>
<path style="fill:rgb(0, 0, 255);fill-opacity:1.0;fill-rule:evenodd;stroke:rgb(0, 0, 0);stroke-width:1.0;" d="M 84.0908, 50.5696 L 86.2247, 77.7883 L 61.0537, 107.515 L 46.0635, 109.39 L 32.4378, 60.4575 L 78.8873, 44.2914 z "/>
<text x="60.5064311473751" y="75.30303650623809" dy="0.3em" style="font-size:10px;fill:black;font-family:Sans;text-anchor:middle;text-align:center"></text>
</g>
<g>
<path style="fill:rgb(0, 0, 255);fill-opacity:1.0;fill-rule:evenodd;stroke:rgb(0, 0, 0);stroke-width:1.0;" d="M 202.924, 263.891 L 202.793, 272.524 L 189.462, 295.19 L 147.812, 253.397 L 189.803, 240.425 z "/>
<text x="180.76379984277915" y="264.32285315362157" dy="0.3em" style="font-size:10px;fill:black;font-family:Sans;text-anchor:middle;text-align:center"></text>
</g>
<g>
<path style="fill:rgb(0, 0, 255);fill-opacity:1.0;fill-rule:evenodd;stroke:rgb(0, 0, 0);stroke-width:1.0;" d="M 263.055, 35.9793 L 260.962, 57.7216 L 249.917, 68.4588 L 222.804, 66.0599 L 217.267, 55.3311 L 229.545, 23.9374 L 244.767, 13.046 z "/>
<text x="241.28452154078758" y="44.42127442882609" dy="0.3em" style="font-size:10px;fill:black;font-family:Sans;text-anchor:middle;text-align:center"></text>
</g>
<g>
<path style="fill:rgb(0, 0, 255);fill-opacity:1.0;fill-rule:evenodd;stroke:rgb(0, 0, 0);stroke-width:1.0;" d="M 242.738, 280.982 L 242.463, 300 L 189.193, 300 L 189.462, 295.19 L 202.793, 272.524 z "/>
<text x="216.98974324088098" y="288.6852450168203" dy="0.3em" style="font-size:10px;fill:black;font-family:Sans;text-anchor:middle;text-align:center"></text>
</g>
<g>
<path style="fill:rgb(0, 0, 255);fill-opacity:1.0;fill-rule:evenodd;stroke:rgb(0, 0, 0);stroke-width:1.0;" d="M 300, 300 L 293.193, 300 L 270.982, 272.007 L 284.219, 239.399 L 300, 235.698 z "/>
<text x="289.18469307293066" y="267.1254702983399" dy="0.3em" style="font-size:10px;fill:black;font-family:Sans;text-anchor:middle;text-align:center"></text>
</g>
<g>
<path style="fill:rgb(0, 0, 255);fill-opacity:1.0;fill-rule:evenodd;stroke:rgb(0, 0, 0);stroke-width:1.0;" d="M 146.729, 55.3409 L 148.767, 59.0446 L 142.115, 85.6086 L 120.739, 105.828 L 86.2247, 77.7883 L 84.0908, 50.5696 z "/>
<text x="116.19196775244518" y="73.23449000568235" dy="0.3em" style="font-size:10px;fill:black;font-family:Sans;text-anchor:middle;text-align:center"></text>
</g>
<g>
<path style="fill:rgb(0, 0, 255);fill-opacity:1.0;fill-rule:evenodd;stroke:rgb(0, 0, 0);stroke-width:1.0;" d="M 179.867, 117.556 L 177.24, 128.44 L 149.479, 142.831 L 119.961, 111.074 L 120.739, 105.828 L 142.115, 85.6086 z "/>
<text x="149.45189527794034" y="115.1268053655189" dy="0.3em" style="font-size:10px;fill:black;font-family:Sans;text-anchor:middle;text-align:center"></text>
</g>
<g>
<path style="fill:rgb(255, 255, 255);fill-opacity:1.0;fill-rule:evenodd;stroke:rgb(0, 0, 0);stroke-width:1.0;" d="M 300, 23.2598 L 263.055, 35.9793 L 244.767, 13.046 L 246.479, 0 L 300, 0 z "/>
<text x="273.1798988119418" y="14.562930483772654" dy="0.3em" style="font-size:10px;fill:black;font-family:Sans;text-anchor:middle;text-align:center"></text>
</g>
<g>
<path style="fill:rgb(255, 255, 255);fill-opacity:1.0;fill-rule:evenodd;stroke:rgb(0, 0, 0);stroke-width:1.0;" d="M 143.013, 164.688 L 143.704, 166.107 L 140.476, 202.716 L 94.8244, 197.396 L 97.9381, 162.232 z "/>
<text x="119.55174478702767" y="181.80076474414918" dy="0.3em" style="font-size:10px;fill:black;font-family:Sans;text-anchor:middle;text-align:center"></text>
</g>
<g>
<path style="fill:rgb(255, 200, 150);fill-opacity:1.0;fill-rule:evenodd;stroke:rgb(0, 0, 0);stroke-width:1.0;" d="M 100.8, 111.162 L 101.487, 125.727 L 81.0316, 111.981 L 84.3161, 103.629 L 90.294, 102.203 z "/>
<text x="92.30215064602588" y="112.58503919851539" dy="0.3em" style="font-size:10px;fill:black;font-family:Sans;text-anchor:middle;text-align:center">.</text>
</g>
<g>
<path style="fill:rgb(255, 200, 150);fill-opacity:1.0;fill-rule:evenodd;stroke:rgb(0, 0, 0);stroke-width:1.0;" d="M 101.487, 125.727 L 101.849, 126.673 L 94.027, 133.41 L 74.2681, 117.893 L 81.0316, 111.981 z "/>
<text x="88.22547901763285" y="122.62527244944128" dy="0.3em" style="font-size:10px;fill:black;font-family:Sans;text-anchor:middle;text-align:center"></text>
</g>
<g>
<path style="fill:rgb(255, 200, 150);fill-opacity:1.0;fill-rule:evenodd;stroke:rgb(0, 0, 0);stroke-width:1.0;" d="M 120.739, 105.828 L 119.961, 111.074 L 101.849, 126.673 L 101.487, 125.727 L 100.8, 111.162 L 113.957, 100.318 z "/>
<text x="109.78204868465329" y="112.26624780370835" dy="0.3em" style="font-size:10px;fill:black;font-family:Sans;text-anchor:middle;text-align:center">.</text>
</g>
<g>
<path style="fill:rgb(255, 200, 150);fill-opacity:1.0;fill-rule:evenodd;stroke:rgb(0, 0, 0);stroke-width:1.0;" d="M 99.6312, 88.6796 L 90.294, 102.203 L 84.3161, 103.629 L 73.6578, 92.6298 L 86.2247, 77.7883 z "/>
<text x="86.67274287490685" y="91.31778285585192" dy="0.3em" style="font-size:10px;fill:black;font-family:Sans;text-anchor:middle;text-align:center">.</text>
</g>
<g>
<path style="fill:rgb(255, 200, 150);fill-opacity:1.0;fill-rule:evenodd;stroke:rgb(0, 0, 0);stroke-width:1.0;" d="M 113.957, 100.318 L 100.8, 111.162 L 90.294, 102.203 L 99.6312, 88.6796 z "/>
<text x="101.4630494457864" y="100.318566328846" dy="0.3em" style="font-size:10px;fill:black;font-family:Sans;text-anchor:middle;text-align:center">.</text>
</g>
<g>
<path style="fill:rgb(255, 200, 150);fill-opacity:1.0;fill-rule:evenodd;stroke:rgb(0, 0, 0);stroke-width:1.0;" d="M 84.3161, 103.629 L 81.0316, 111.981 L 74.2681, 117.893 L 61.0537, 107.515 L 73.6578, 92.6298 z "/>
<text x="73.50985358004354" y="105.77495162438562" dy="0.3em" style="font-size:10px;fill:black;font-family:Sans;text-anchor:middle;text-align:center">.</text>
</g>
<g>
<path style="fill:rgb(255, 200, 150);fill-opacity:1.0;fill-rule:evenodd;stroke:rgb(0, 0, 0);stroke-width:1.0;" d="M 288.297, 40.6581 L 291.82, 46.9891 L 284.613, 53.2335 L 275.373, 51.3913 L 276.043, 38.6599 z "/>
<text x="282.5346151464138" y="45.9456965432" dy="0.3em" style="font-size:10px;fill:black;font-family:Sans;text-anchor:middle;text-align:center">.</text>
</g>
<g>
<path style="fill:rgb(255, 200, 150);fill-opacity:1.0;fill-rule:evenodd;stroke:rgb(0, 0, 0);stroke-width:1.0;" d="M 288.297, 40.6581 L 276.043, 38.6599 L 271.908, 32.9312 L 295.616, 24.769 z "/>
<text x="284.20709092774604" y="33.54299390097022" dy="0.3em" style="font-size:10px;fill:black;font-family:Sans;text-anchor:middle;text-align:center">.</text>
</g>
<g>
<path style="fill:rgb(255, 200, 150);fill-opacity:1.0;fill-rule:evenodd;stroke:rgb(0, 0, 0);stroke-width:1.0;" d="M 300, 49.1158 L 300, 66.7469 L 287.435, 63.842 L 284.613, 53.2335 L 291.82, 46.9891 z "/>
<text x="293.3475240739313" y="56.74718808461755" dy="0.3em" style="font-size:10px;fill:black;font-family:Sans;text-anchor:middle;text-align:center">.</text>
</g>
<g>
<path style="fill:rgb(255, 200, 150);fill-opacity:1.0;fill-rule:evenodd;stroke:rgb(0, 0, 0);stroke-width:1.0;" d="M 284.613, 53.2335 L 287.435, 63.842 L 266.391, 58.9767 L 275.373, 51.3913 z "/>
<text x="278.30342063151676" y="57.46999035986812" dy="0.3em" style="font-size:10px;fill:black;font-family:Sans;text-anchor:middle;text-align:center">.</text>
</g>
<g>
<path style="fill:rgb(255, 200, 150);fill-opacity:1.0;fill-rule:evenodd;stroke:rgb(0, 0, 0);stroke-width:1.0;" d="M 300, 49.1158 L 291.82, 46.9891 L 288.297, 40.6581 L 295.616, 24.769 L 300, 23.2598 z "/>
<text x="295.5898044289012" y="37.368974845572026" dy="0.3em" style="font-size:10px;fill:black;font-family:Sans;text-anchor:middle;text-align:center">.</text>
</g>
<g>
<path style="fill:rgb(255, 200, 150);fill-opacity:1.0;fill-rule:evenodd;stroke:rgb(0, 0, 0);stroke-width:1.0;" d="M 276.043, 38.6599 L 275.373, 51.3913 L 266.391, 58.9767 L 260.962, 57.7216 L 263.055, 35.9793 L 271.908, 32.9312 z "/>
<text x="268.4251968262054" y="45.87350589150261" dy="0.3em" style="font-size:10px;fill:black;font-family:Sans;text-anchor:middle;text-align:center"></text>
</g>
<g>
<path style="fill:rgb(255, 0, 0);fill-opacity:1.0;fill-rule:evenodd;stroke:rgb(0, 0, 0);stroke-width:1.0;" d="M 216.96, 106.842 L 202.287, 117.912 L 190.128, 108.229 L 203.171, 96.3725 L 204.187, 96.1365 z "/>
<text x="203.391709421808" y="107.08316761687078" dy="0.3em" style="font-size:10px;fill:black;font-family:Sans;text-anchor:middle;text-align:center">.</text>
</g>
<g>
<path style="fill:rgb(255, 0, 0);fill-opacity:1.0;fill-rule:evenodd;stroke:rgb(0, 0, 0);stroke-width:1.0;" d="M 242.567, 128.304 L 242.163, 134.112 L 223.92, 147.916 L 215.182, 132.291 L 229.769, 117.578 z "/>
<text x="228.9577900743957" y="132.3973602196008" dy="0.3em" style="font-size:10px;fill:black;font-family:Sans;text-anchor:middle;text-align:center">.</text>
</g>
<g>
<path style="fill:rgb(255, 0, 0);fill-opacity:1.0;fill-rule:evenodd;stroke:rgb(0, 0, 0);stroke-width:1.0;" d="M 229.769, 117.578 L 215.182, 132.291 L 203.902, 129.802 L 202.287, 117.912 L 216.96, 106.842 z "/>
<text x="214.606910463212" y="120.16998590674308" dy="0.3em" style="font-size:10px;fill:black;font-family:Sans;text-anchor:middle;text-align:center">.</text>
</g>
<g>
<path style="fill:rgb(255, 0, 0);fill-opacity:1.0;fill-rule:evenodd;stroke:rgb(0, 0, 0);stroke-width:1.0;" d="M 202.287, 117.912 L 203.902, 129.802 L 203.604, 130.055 L 182.407, 134.2 L 177.24, 128.44 L 179.867, 117.556 L 190.128, 108.229 z "/>
<text x="190.45207821904455" y="122.69670210389636" dy="0.3em" style="font-size:10px;fill:black;font-family:Sans;text-anchor:middle;text-align:center"></text>
</g>
<g>
<path style="fill:rgb(255, 0, 0);fill-opacity:1.0;fill-rule:evenodd;stroke:rgb(0, 0, 0);stroke-width:1.0;" d="M 200.348, 154.199 L 182.407, 134.2 L 203.604, 130.055 z "/>
<text x="195.4530860361735" y="139.48483871408922" dy="0.3em" style="font-size:10px;fill:black;font-family:Sans;text-anchor:middle;text-align:center"></text>
</g>
<g>
<path style="fill:rgb(255, 0, 0);fill-opacity:1.0;fill-rule:evenodd;stroke:rgb(0, 0, 0);stroke-width:1.0;" d="M 215.182, 132.291 L 223.92, 147.916 L 206.522, 161.081 L 200.348, 154.199 L 203.604, 130.055 L 203.902, 129.802 z "/>
<text x="210.3700721616941" y="144.98886198651752" dy="0.3em" style="font-size:10px;fill:black;font-family:Sans;text-anchor:middle;text-align:center"></text>
</g>
<g>
<path style="fill:rgb(255, 127, 0);fill-opacity:1.0;fill-rule:evenodd;stroke:rgb(0, 0, 0);stroke-width:1.0;" d="M 6.20082, 253.14 L 6.30448, 260.544 L 0, 261.956 L 0, 252.101 z "/>
<text x="2.9786160630378324" y="256.9534008110168" dy="0.3em" style="font-size:10px;fill:black;font-family:Sans;text-anchor:middle;text-align:center">.</text>
</g>
<g>
<path style="fill:rgb(255, 127, 0);fill-opacity:1.0;fill-rule:evenodd;stroke:rgb(0, 0, 0);stroke-width:1.0;" d="M 32.799, 243.936 L 18.9046, 256.412 L 12.2337, 249.148 L 12.2287, 248.616 L 17.3229, 239.32 z "/>
<text x="21.000934350080062" y="247.04111994799894" dy="0.3em" style="font-size:10px;fill:black;font-family:Sans;text-anchor:middle;text-align:center">.</text>
</g>
<g>
<path style="fill:rgb(255, 127, 0);fill-opacity:1.0;fill-rule:evenodd;stroke:rgb(0, 0, 0);stroke-width:1.0;" d="M 12.2287, 248.616 L 12.2337, 249.148 L 6.20082, 253.14 L 0, 252.101 L 0, 240.317 z "/>
<text x="4.575818894905254" y="247.87726219917997" dy="0.3em" style="font-size:10px;fill:black;font-family:Sans;text-anchor:middle;text-align:center">.</text>
</g>
<g>
<path style="fill:rgb(255, 127, 0);fill-opacity:1.0;fill-rule:evenodd;stroke:rgb(0, 0, 0);stroke-width:1.0;" d="M 10.6159, 263.855 L 5.12651, 268.784 L 0, 269.056 L 0, 261.956 L 6.30448, 260.544 z "/>
<text x="4.310145248991437" y="264.77807957382066" dy="0.3em" style="font-size:10px;fill:black;font-family:Sans;text-anchor:middle;text-align:center"></text>
</g>
<g>
<path style="fill:rgb(255, 127, 0);fill-opacity:1.0;fill-rule:evenodd;stroke:rgb(0, 0, 0);stroke-width:1.0;" d="M 18.9046, 256.412 L 10.6159, 263.855 L 6.30448, 260.544 L 6.20082, 253.14 L 12.2337, 249.148 z "/>
<text x="11.484068272707722" y="256.45280793122026" dy="0.3em" style="font-size:10px;fill:black;font-family:Sans;text-anchor:middle;text-align:center"></text>
</g>
<g>
<path style="fill:rgb(255, 127, 0);fill-opacity:1.0;fill-rule:evenodd;stroke:rgb(0, 0, 0);stroke-width:1.0;" d="M 17.3229, 239.32 L 12.2287, 248.616 L 0, 240.317 L 0, 234.153 z "/>
<text x="8.19401500897312" y="240.7919402936885" dy="0.3em" style="font-size:10px;fill:black;font-family:Sans;text-anchor:middle;text-align:center"></text>
</g>
<g>
<path style="fill:rgb(255, 255, 0);fill-opacity:1.0;fill-rule:evenodd;stroke:rgb(0, 0, 0);stroke-width:1.0;" d="M 189.462, 295.19 L 189.193, 300 L 172.474, 300 L 166.688, 280.691 L 170.418, 276.081 z "/>
<text x="177.03852510293063" y="290.69940119612363" dy="0.3em" style="font-size:10px;fill:black;font-family:Sans;text-anchor:middle;text-align:center">.</text>
</g>
<g>
<path style="fill:rgb(255, 255, 0);fill-opacity:1.0;fill-rule:evenodd;stroke:rgb(0, 0, 0);stroke-width:1.0;" d="M 170.418, 276.081 L 166.688, 280.691 L 154.085, 285.18 L 148.445, 281.09 L 148.258, 268.729 L 156.392, 262.007 z "/>
<text x="157.44603398313632" y="274.5836873618497" dy="0.3em" style="font-size:10px;fill:black;font-family:Sans;text-anchor:middle;text-align:center">.</text>
</g>
<g>
<path style="fill:rgb(255, 255, 0);fill-opacity:1.0;fill-rule:evenodd;stroke:rgb(0, 0, 0);stroke-width:1.0;" d="M 172.474, 300 L 153.06, 300 L 154.085, 285.18 L 166.688, 280.691 z "/>
<text x="162.06953324729784" y="291.9480268980814" dy="0.3em" style="font-size:10px;fill:black;font-family:Sans;text-anchor:middle;text-align:center">.</text>
</g>
<g>
<path style="fill:rgb(255, 255, 0);fill-opacity:1.0;fill-rule:evenodd;stroke:rgb(0, 0, 0);stroke-width:1.0;" d="M 147.812, 253.397 L 156.392, 262.007 L 148.258, 268.729 L 134.186, 263.46 L 134.599, 259.807 L 140.762, 252.294 z "/>
<text x="144.75475252494877" y="260.5234168946507" dy="0.3em" style="font-size:10px;fill:black;font-family:Sans;text-anchor:middle;text-align:center"></text>
</g>
<g>
<path style="fill:rgb(255, 255, 0);fill-opacity:1.0;fill-rule:evenodd;stroke:rgb(0, 0, 0);stroke-width:1.0;" d="M 148.258, 268.729 L 148.445, 281.09 L 131.8, 284.581 L 134.186, 263.46 z "/>
<text x="139.98165801057303" y="274.6066825867025" dy="0.3em" style="font-size:10px;fill:black;font-family:Sans;text-anchor:middle;text-align:center"></text>
</g>
<g>
<path style="fill:rgb(255, 255, 0);fill-opacity:1.0;fill-rule:evenodd;stroke:rgb(0, 0, 0);stroke-width:1.0;" d="M 154.085, 285.18 L 153.06, 300 L 130.058, 300 L 131.8, 284.581 L 148.445, 281.09 z "/>
<text x="142.4671092940729" y="291.47062717988297" dy="0.3em" style="font-size:10px;fill:black;font-family:Sans;text-anchor:middle;text-align:center"></text>
</g>
<g>
<path style="fill:rgb(0, 255, 0);fill-opacity:1.0;fill-rule:evenodd;stroke:rgb(0, 0, 0);stroke-width:1.0;" d="M 138.638, 223.565 L 115.957, 230.669 L 108.415, 227.648 L 109.069, 224.623 L 122.691, 213.153 z "/>
<text x="122.11603602103261" y="222.80883977168943" dy="0.3em" style="font-size:10px;fill:black;font-family:Sans;text-anchor:middle;text-align:center">.</text>
</g>
<g>
<path style="fill:rgb(0, 255, 0);fill-opacity:1.0;fill-rule:evenodd;stroke:rgb(0, 0, 0);stroke-width:1.0;" d="M 103.984, 212.612 L 109.069, 224.623 L 108.415, 227.648 L 79.2657, 215.967 L 85.7181, 208.266 z "/>
<text x="95.41414961042466" y="216.9736843945774" dy="0.3em" style="font-size:10px;fill:black;font-family:Sans;text-anchor:middle;text-align:center">.</text>
</g>
<g>
<path style="fill:rgb(0, 255, 0);fill-opacity:1.0;fill-rule:evenodd;stroke:rgb(0, 0, 0);stroke-width:1.0;" d="M 123.801, 200.773 L 122.691, 213.153 L 109.069, 224.623 L 103.984, 212.612 L 108.007, 198.932 z "/>
<text x="113.60266455714684" y="209.88659175287174" dy="0.3em" style="font-size:10px;fill:black;font-family:Sans;text-anchor:middle;text-align:center">.</text>
</g>
<g>
<path style="fill:rgb(0, 255, 0);fill-opacity:1.0;fill-rule:evenodd;stroke:rgb(0, 0, 0);stroke-width:1.0;" d="M 108.007, 198.932 L 103.984, 212.612 L 85.7181, 208.266 L 94.8244, 197.396 z "/>
<text x="98.10556026064783" y="204.72472327200822" dy="0.3em" style="font-size:10px;fill:black;font-family:Sans;text-anchor:middle;text-align:center"></text>
</g>
<g>
<path style="fill:rgb(0, 255, 0);fill-opacity:1.0;fill-rule:evenodd;stroke:rgb(0, 0, 0);stroke-width:1.0;" d="M 140.885, 224.145 L 137.731, 239.395 L 115.957, 230.669 L 138.638, 223.565 z "/>
<text x="131.54700373331642" y="231.00790350012747" dy="0.3em" style="font-size:10px;fill:black;font-family:Sans;text-anchor:middle;text-align:center"></text>
</g>
<g>
<path style="fill:rgb(0, 255, 0);fill-opacity:1.0;fill-rule:evenodd;stroke:rgb(0, 0, 0);stroke-width:1.0;" d="M 140.476, 202.716 L 143.975, 209.203 L 140.885, 224.145 L 138.638, 223.565 L 122.691, 213.153 L 123.801, 200.773 z "/>
<text x="133.6792553008027" y="210.9542117529669" dy="0.3em" style="font-size:10px;fill:black;font-family:Sans;text-anchor:middle;text-align:center"></text>
</g>
<g>
<path style="fill:rgb(150, 0, 255);fill-opacity:1.0;fill-rule:evenodd;stroke:rgb(0, 0, 0);stroke-width:1.0;" d="M 220.207, 187.929 L 216.917, 200.027 L 206.817, 204.205 L 192.79, 199.703 L 200.969, 182.05 L 202.995, 180.393 z "/>
<text x="206.8221828986397" y="193.1067979499995" dy="0.3em" style="font-size:10px;fill:black;font-family:Sans;text-anchor:middle;text-align:center">.</text>
</g>
<g>
<path style="fill:rgb(150, 0, 255);fill-opacity:1.0;fill-rule:evenodd;stroke:rgb(0, 0, 0);stroke-width:1.0;" d="M 243.972, 198.334 L 226.26, 209.494 L 216.917, 200.027 L 220.207, 187.929 z "/>
<text x="227.9562417101082" y="198.72261357344166" dy="0.3em" style="font-size:10px;fill:black;font-family:Sans;text-anchor:middle;text-align:center">.</text>
</g>
<g>
<path style="fill:rgb(150, 0, 255);fill-opacity:1.0;fill-rule:evenodd;stroke:rgb(0, 0, 0);stroke-width:1.0;" d="M 226.26, 209.494 L 226.551, 214.957 L 216.877, 228.967 L 208.887, 228 L 206.817, 204.205 L 216.917, 200.027 z "/>
<text x="215.76873490636302" y="214.303242963749" dy="0.3em" style="font-size:10px;fill:black;font-family:Sans;text-anchor:middle;text-align:center">.</text>
</g>
<g>
<path style="fill:rgb(150, 0, 255);fill-opacity:1.0;fill-rule:evenodd;stroke:rgb(0, 0, 0);stroke-width:1.0;" d="M 246.692, 199.525 L 248.085, 222.604 L 226.551, 214.957 L 226.26, 209.494 L 243.972, 198.334 z "/>
<text x="239.04946007744417" y="210.81298805900448" dy="0.3em" style="font-size:10px;fill:black;font-family:Sans;text-anchor:middle;text-align:center"></text>
</g>
<g>
<path style="fill:rgb(150, 0, 255);fill-opacity:1.0;fill-rule:evenodd;stroke:rgb(0, 0, 0);stroke-width:1.0;" d="M 248.085, 222.604 L 248.358, 227.127 L 242.981, 232.128 L 216.877, 228.967 L 226.551, 214.957 z "/>
<text x="233.2970763846109" y="224.64803029622882" dy="0.3em" style="font-size:10px;fill:black;font-family:Sans;text-anchor:middle;text-align:center"></text>
</g>
<g>
<path style="fill:rgb(150, 0, 255);fill-opacity:1.0;fill-rule:evenodd;stroke:rgb(0, 0, 0);stroke-width:1.0;" d="M 206.817, 204.205 L 208.887, 228 L 195.128, 226.334 L 190.036, 205.648 L 192.79, 199.703 z "/>
<text x="199.8596223032572" y="214.08118139256183" dy="0.3em" style="font-size:10px;fill:black;font-family:Sans;text-anchor:middle;text-align:center"></text>
</g>
<g>
<path style="fill:rgb(255, 0, 255);fill-opacity:1.0;fill-rule:evenodd;stroke:rgb(0, 0, 0);stroke-width:1.0;" d="M 148.798, 8.25985 L 147.742, 20.8926 L 137.88, 24.7271 L 129.726, 0 L 144.791, 0 z "/>
<text x="140.3580199867051" y="10.708796242978792" dy="0.3em" style="font-size:10px;fill:black;font-family:Sans;text-anchor:middle;text-align:center">.</text>
</g>
<g>
<path style="fill:rgb(255, 0, 255);fill-opacity:1.0;fill-rule:evenodd;stroke:rgb(0, 0, 0);stroke-width:1.0;" d="M 152.259, 22.4488 L 162.094, 35.9656 L 147.047, 52.526 L 137.88, 24.7271 L 147.742, 20.8926 z "/>
<text x="149.3451420078891" y="34.48787918226753" dy="0.3em" style="font-size:10px;fill:black;font-family:Sans;text-anchor:middle;text-align:center">.</text>
</g>
<g>
<path style="fill:rgb(255, 0, 255);fill-opacity:1.0;fill-rule:evenodd;stroke:rgb(0, 0, 0);stroke-width:1.0;" d="M 186.682, 8.90462 L 176.011, 20.6493 L 167.106, 13.3372 L 165.805, 5.98906 L 167.431, 0 L 185.226, 0 z "/>
<text x="175.90254467884512" y="8.27354178862162" dy="0.3em" style="font-size:10px;fill:black;font-family:Sans;text-anchor:middle;text-align:center">.</text>
</g>
<g>
<path style="fill:rgb(255, 0, 255);fill-opacity:1.0;fill-rule:evenodd;stroke:rgb(0, 0, 0);stroke-width:1.0;" d="M 167.106, 13.3372 L 152.259, 22.4488 L 147.742, 20.8926 L 148.798, 8.25985 L 165.805, 5.98906 z "/>
<text x="156.51769595595331" y="13.390020279797053" dy="0.3em" style="font-size:10px;fill:black;font-family:Sans;text-anchor:middle;text-align:center"></text>
</g>
<g>
<path style="fill:rgb(255, 0, 255);fill-opacity:1.0;fill-rule:evenodd;stroke:rgb(0, 0, 0);stroke-width:1.0;" d="M 165.805, 5.98906 L 148.798, 8.25985 L 144.791, 0 L 167.431, 0 z "/>
<text x="156.08473159789517" y="3.4404637667184423" dy="0.3em" style="font-size:10px;fill:black;font-family:Sans;text-anchor:middle;text-align:center"></text>
</g>
<g>
<path style="fill:rgb(255, 0, 255);fill-opacity:1.0;fill-rule:evenodd;stroke:rgb(0, 0, 0);stroke-width:1.0;" d="M 176.011, 20.6493 L 162.094, 35.9656 L 152.259, 22.4488 L 167.106, 13.3372 z "/>
<text x="164.05436388168127" y="23.646868573482042" dy="0.3em" style="font-size:10px;fill:black;font-family:Sans;text-anchor:middle;text-align:center"></text>
</g>
<g>
<path style="fill:rgb(0, 255, 255);fill-opacity:1.0;fill-rule:evenodd;stroke:rgb(0, 0, 0);stroke-width:1.0;" d="M 9.62936, 271.328 L 2.58957, 282.519 L 0, 282.617 L 0, 269.056 L 5.12651, 268.784 z "/>
<text x="3.4916585153906006" y="274.6868607332348" dy="0.3em" style="font-size:10px;fill:black;font-family:Sans;text-anchor:middle;text-align:center">.</text>
</g>
<g>
<path style="fill:rgb(0, 255, 255);fill-opacity:1.0;fill-rule:evenodd;stroke:rgb(0, 0, 0);stroke-width:1.0;" d="M 16.3653, 275.135 L 13.0166, 285.048 L 9.81891, 285.855 L 2.58957, 282.519 L 9.62936, 271.328 z "/>
<text x="10.00045692824772" y="279.1292726317857" dy="0.3em" style="font-size:10px;fill:black;font-family:Sans;text-anchor:middle;text-align:center">.</text>
</g>
<g>
<path style="fill:rgb(0, 255, 255);fill-opacity:1.0;fill-rule:evenodd;stroke:rgb(0, 0, 0);stroke-width:1.0;" d="M 9.81891, 285.855 L 6.88795, 300 L 0, 300 L 0, 282.617 L 2.58957, 282.519 z "/>
<text x="4.108283867940025" y="291.3289455464886" dy="0.3em" style="font-size:10px;fill:black;font-family:Sans;text-anchor:middle;text-align:center">.</text>
</g>
<g>
<path style="fill:rgb(0, 255, 255);fill-opacity:1.0;fill-rule:evenodd;stroke:rgb(0, 0, 0);stroke-width:1.0;" d="M 30.1026, 282.898 L 19.6289, 288.988 L 13.0166, 285.048 L 16.3653, 275.135 z "/>
<text x="20.19215842245188" y="282.57206843188493" dy="0.3em" style="font-size:10px;fill:black;font-family:Sans;text-anchor:middle;text-align:center"></text>
</g>
<g>
<path style="fill:rgb(0, 255, 255);fill-opacity:1.0;fill-rule:evenodd;stroke:rgb(0, 0, 0);stroke-width:1.0;" d="M 32.2819, 284.13 L 32.5468, 300 L 19.7365, 300 L 19.6289, 288.988 L 30.1026, 282.898 z "/>
<text x="26.49756349239055" y="292.65598964416955" dy="0.3em" style="font-size:10px;fill:black;font-family:Sans;text-anchor:middle;text-align:center"></text>
</g>
<g>
<path style="fill:rgb(0, 255, 255);fill-opacity:1.0;fill-rule:evenodd;stroke:rgb(0, 0, 0);stroke-width:1.0;" d="M 19.6289, 288.988 L 19.7365, 300 L 6.88795, 300 L 9.81891, 285.855 L 13.0166, 285.048 z "/>
<text x="13.752844515127272" y="293.4938556848263" dy="0.3em" style="font-size:10px;fill:black;font-family:Sans;text-anchor:middle;text-align:center"></text>
</g>
<g>
<path style="fill:rgb(150, 150, 150);fill-opacity:1.0;fill-rule:evenodd;stroke:rgb(0, 0, 0);stroke-width:1.0;" d="M 74.6672, 280.822 L 66.0655, 287.707 L 54.4025, 283.685 L 61.1223, 270.471 z "/>
<text x="63.918276192562686" y="280.1423579365324" dy="0.3em" style="font-size:10px;fill:black;font-family:Sans;text-anchor:middle;text-align:center">.</text>
</g>
<g>
<path style="fill:rgb(150, 150, 150);fill-opacity:1.0;fill-rule:evenodd;stroke:rgb(0, 0, 0);stroke-width:1.0;" d="M 54.0305, 283.832 L 48.6239, 300 L 32.5468, 300 L 32.2819, 284.13 L 38.8213, 275.624 z "/>
<text x="41.90190579033223" y="289.178319607481" dy="0.3em" style="font-size:10px;fill:black;font-family:Sans;text-anchor:middle;text-align:center">.</text>
</g>
<g>
<path style="fill:rgb(150, 150, 150);fill-opacity:1.0;fill-rule:evenodd;stroke:rgb(0, 0, 0);stroke-width:1.0;" d="M 81.1588, 300 L 69.056, 300 L 66.0655, 287.707 L 74.6672, 280.822 L 78.4131, 280.1 z "/>
<text x="74.04819851361357" y="291.2500976672418" dy="0.3em" style="font-size:10px;fill:black;font-family:Sans;text-anchor:middle;text-align:center">.</text>
</g>
<g>
<path style="fill:rgb(150, 150, 150);fill-opacity:1.0;fill-rule:evenodd;stroke:rgb(0, 0, 0);stroke-width:1.0;" d="M 61.0801, 267.39 L 61.1223, 270.471 L 54.4025, 283.685 L 54.0305, 283.832 L 38.8213, 275.624 L 46.9355, 265.071 z "/>
<text x="50.89171113549859" y="273.47516664376025" dy="0.3em" style="font-size:10px;fill:black;font-family:Sans;text-anchor:middle;text-align:center"></text>
</g>
<g>
<path style="fill:rgb(150, 150, 150);fill-opacity:1.0;fill-rule:evenodd;stroke:rgb(0, 0, 0);stroke-width:1.0;" d="M 66.0655, 287.707 L 69.056, 300 L 48.6239, 300 L 54.0305, 283.832 L 54.4025, 283.685 z "/>
<text x="58.93013142665617" y="293.35654051445744" dy="0.3em" style="font-size:10px;fill:black;font-family:Sans;text-anchor:middle;text-align:center"></text>
</g>
<g>
<path style="fill:rgb(150, 150, 150);fill-opacity:1.0;fill-rule:evenodd;stroke:rgb(0, 0, 0);stroke-width:1.0;" d="M 77.02, 270.003 L 78.4131, 280.1 L 74.6672, 280.822 L 61.1223, 270.471 L 61.0801, 267.39 z "/>
<text x="70.94362990588469" y="273.39892952881985" dy="0.3em" style="font-size:10px;fill:black;font-family:Sans;text-anchor:middle;text-align:center"></text>
</g>
<g>
<path style="fill:rgb(111, 22, 105);fill-opacity:1.0;fill-rule:evenodd;stroke:rgb(0, 0, 0);stroke-width:1.0;" d="M 300, 120.87 L 281.315, 119.716 L 279.366, 105.675 L 300, 105.12 z "/>
<text x="290.35313843078745" y="112.71774321294205" dy="0.3em" style="font-size:10px;fill:black;font-family:Sans;text-anchor:middle;text-align:center">.</text>
</g>
<g>
<path style="fill:rgb(111, 22, 105);fill-opacity:1.0;fill-rule:evenodd;stroke:rgb(0, 0, 0);stroke-width:1.0;" d="M 298.373, 146.098 L 269.965, 163.893 L 259.158, 152.318 L 273.943, 132.42 z "/>
<text x="276.5868389588842" y="148.1322348112733" dy="0.3em" style="font-size:10px;fill:black;font-family:Sans;text-anchor:middle;text-align:center">.</text>
</g>
<g>
<path style="fill:rgb(111, 22, 105);fill-opacity:1.0;fill-rule:evenodd;stroke:rgb(0, 0, 0);stroke-width:1.0;" d="M 281.315, 119.716 L 273.678, 130.179 L 253.994, 116.217 L 263.559, 106.1 L 279.366, 105.675 z "/>
<text x="269.76571995192535" y="116.05297075203947" dy="0.3em" style="font-size:10px;fill:black;font-family:Sans;text-anchor:middle;text-align:center">.</text>
</g>
<g>
<path style="fill:rgb(111, 22, 105);fill-opacity:1.0;fill-rule:evenodd;stroke:rgb(0, 0, 0);stroke-width:1.0;" d="M 300, 146.143 L 300, 172.289 L 277.172, 171.614 L 269.965, 163.893 L 298.373, 146.098 z "/>
<text x="288.6501778756468" y="161.98210109553003" dy="0.3em" style="font-size:10px;fill:black;font-family:Sans;text-anchor:middle;text-align:center"></text>
</g>
<g>
<path style="fill:rgb(111, 22, 105);fill-opacity:1.0;fill-rule:evenodd;stroke:rgb(0, 0, 0);stroke-width:1.0;" d="M 300, 120.87 L 300, 146.143 L 298.373, 146.098 L 273.943, 132.42 L 273.678, 130.179 L 281.315, 119.716 z "/>
<text x="289.3668680583976" y="130.92154707738564" dy="0.3em" style="font-size:10px;fill:black;font-family:Sans;text-anchor:middle;text-align:center"></text>
</g>
<g>
<path style="fill:rgb(111, 22, 105);fill-opacity:1.0;fill-rule:evenodd;stroke:rgb(0, 0, 0);stroke-width:1.0;" d="M 273.678, 130.179 L 273.943, 132.42 L 259.158, 152.318 L 242.163, 134.112 L 242.567, 128.304 L 253.994, 116.217 z "/>
<text x="257.3574763337391" y="133.2837418498807" dy="0.3em" style="font-size:10px;fill:black;font-family:Sans;text-anchor:middle;text-align:center"></text>
</g>
<g>
<path style="fill:rgb(155, 213, 215);fill-opacity:1.0;fill-rule:evenodd;stroke:rgb(0, 0, 0);stroke-width:1.0;" d="M 199.796, 69.0663 L 200.606, 81.0884 L 193.261, 87.6426 L 179.897, 75.8703 L 182.41, 72.4186 L 198.323, 67.7342 z "/>
<text x="192.04920196342633" y="76.8889154149841" dy="0.3em" style="font-size:10px;fill:black;font-family:Sans;text-anchor:middle;text-align:center">.</text>
</g>
<g>
<path style="fill:rgb(155, 213, 215);fill-opacity:1.0;fill-rule:evenodd;stroke:rgb(0, 0, 0);stroke-width:1.0;" d="M 217.267, 55.3311 L 222.804, 66.0599 L 220.777, 69.3347 L 199.796, 69.0663 L 198.323, 67.7342 L 197.566, 47.827 L 199.291, 47.1222 z "/>
<text x="208.29210151525254" y="60.27841367671011" dy="0.3em" style="font-size:10px;fill:black;font-family:Sans;text-anchor:middle;text-align:center">.</text>
</g>
<g>
<path style="fill:rgb(155, 213, 215);fill-opacity:1.0;fill-rule:evenodd;stroke:rgb(0, 0, 0);stroke-width:1.0;" d="M 182.41, 72.4186 L 179.897, 75.8703 L 163.748, 61.6433 L 179.56, 55.1833 z "/>
<text x="175.26618460523773" y="64.73146457646862" dy="0.3em" style="font-size:10px;fill:black;font-family:Sans;text-anchor:middle;text-align:center">.</text>
</g>
<g>
<path style="fill:rgb(155, 213, 215);fill-opacity:1.0;fill-rule:evenodd;stroke:rgb(0, 0, 0);stroke-width:1.0;" d="M 220.777, 69.3347 L 210.715, 85.5914 L 200.606, 81.0884 L 199.796, 69.0663 z "/>
<text x="208.7124931487404" y="75.66454962851998" dy="0.3em" style="font-size:10px;fill:black;font-family:Sans;text-anchor:middle;text-align:center"></text>
</g>
<g>
<path style="fill:rgb(155, 213, 215);fill-opacity:1.0;fill-rule:evenodd;stroke:rgb(0, 0, 0);stroke-width:1.0;" d="M 198.323, 67.7342 L 182.41, 72.4186 L 179.56, 55.1833 L 197.566, 47.827 z "/>
<text x="189.58651436729178" y="60.53284279894292" dy="0.3em" style="font-size:10px;fill:black;font-family:Sans;text-anchor:middle;text-align:center"></text>
</g>
<g>
<path style="fill:rgb(155, 213, 215);fill-opacity:1.0;fill-rule:evenodd;stroke:rgb(0, 0, 0);stroke-width:1.0;" d="M 210.715, 85.5914 L 204.187, 96.1365 L 203.171, 96.3725 L 193.261, 87.6426 L 200.606, 81.0884 z "/>
<text x="202.19895910748298" y="88.16168408514457" dy="0.3em" style="font-size:10px;fill:black;font-family:Sans;text-anchor:middle;text-align:center"></text>
</g>
<g>
<path style="fill:rgb(22, 14, 59);fill-opacity:1.0;fill-rule:evenodd;stroke:rgb(0, 0, 0);stroke-width:1.0;" d="M 24.8712, 269.785 L 20.8986, 277.697 L 5.12651, 268.784 L 17.247, 257.901 z "/>
<text x="16.251794969247346" y="268.2198750735876" dy="0.3em" style="font-size:10px;fill:black;font-family:Sans;text-anchor:middle;text-align:center">.</text>
</g>
<g>
<path style="fill:rgb(22, 14, 59);fill-opacity:1.0;fill-rule:evenodd;stroke:rgb(0, 0, 0);stroke-width:1.0;" d="M 45.499, 266.939 L 40.3865, 273.589 L 30.571, 267.705 L 33.1976, 258.823 L 34.0191, 258.469 z "/>
<text x="37.44024121446069" y="266.32654139300473" dy="0.3em" style="font-size:10px;fill:black;font-family:Sans;text-anchor:middle;text-align:center">.</text>
</g>
<g>
<path style="fill:rgb(22, 14, 59);fill-opacity:1.0;fill-rule:evenodd;stroke:rgb(0, 0, 0);stroke-width:1.0;" d="M 39.574, 252.021 L 34.0191, 258.469 L 33.1976, 258.823 L 22.4937, 253.19 L 32.799, 243.936 L 34.7939, 243.547 z "/>
<text x="32.00022683777781" y="251.52757040964957" dy="0.3em" style="font-size:10px;fill:black;font-family:Sans;text-anchor:middle;text-align:center">.</text>
</g>
<g>
<path style="fill:rgb(22, 14, 59);fill-opacity:1.0;fill-rule:evenodd;stroke:rgb(0, 0, 0);stroke-width:1.0;" d="M 33.1976, 258.823 L 30.571, 267.705 L 24.8712, 269.785 L 17.247, 257.901 L 22.4937, 253.19 z "/>
<text x="25.5512018424838" y="261.21138108846395" dy="0.3em" style="font-size:10px;fill:black;font-family:Sans;text-anchor:middle;text-align:center"></text>
</g>
<g>
<path style="fill:rgb(22, 14, 59);fill-opacity:1.0;fill-rule:evenodd;stroke:rgb(0, 0, 0);stroke-width:1.0;" d="M 46.9355, 265.071 L 45.499, 266.939 L 34.0191, 258.469 L 39.574, 252.021 z "/>
<text x="40.60847900982504" y="259.60868753875394" dy="0.3em" style="font-size:10px;fill:black;font-family:Sans;text-anchor:middle;text-align:center"></text>
</g>
<g>
<path style="fill:rgb(22, 14, 59);fill-opacity:1.0;fill-rule:evenodd;stroke:rgb(0, 0, 0);stroke-width:1.0;" d="M 40.3865, 273.589 L 32.2819, 284.13 L 20.8986, 277.697 L 24.8712, 269.785 L 30.571, 267.705 z "/>
<text x="30.365054015845065" y="275.45815426047136" dy="0.3em" style="font-size:10px;fill:black;font-family:Sans;text-anchor:middle;text-align:center"></text>
</g>
<g>
<path style="fill:rgb(154, 36, 202);fill-opacity:1.0;fill-rule:evenodd;stroke:rgb(0, 0, 0);stroke-width:1.0;" d="M 203.171, 96.3725 L 186.846, 111.212 L 176.253, 89.4266 L 185.667, 80.953 z "/>
<text x="188.61372403215114" y="95.33248846035559" dy="0.3em" style="font-size:10px;fill:black;font-family:Sans;text-anchor:middle;text-align:center">.</text>
</g>
<g>
<path style="fill:rgb(154, 36, 202);fill-opacity:1.0;fill-rule:evenodd;stroke:rgb(0, 0, 0);stroke-width:1.0;" d="M 185.667, 80.953 L 176.253, 89.4266 L 173.776, 89.7119 L 162.869, 83.6701 L 160.889, 78.6525 L 167.453, 64.9077 z "/>
<text x="171.96051402825208" y="78.81589023974345" dy="0.3em" style="font-size:10px;fill:black;font-family:Sans;text-anchor:middle;text-align:center">.</text>
</g>
<g>
<path style="fill:rgb(154, 36, 202);fill-opacity:1.0;fill-rule:evenodd;stroke:rgb(0, 0, 0);stroke-width:1.0;" d="M 163.748, 61.6433 L 167.453, 64.9077 L 160.889, 78.6525 L 144.591, 75.7196 L 148.767, 59.0446 z "/>
<text x="155.5980674539944" y="68.82964780905974" dy="0.3em" style="font-size:10px;fill:black;font-family:Sans;text-anchor:middle;text-align:center">.</text>
</g>
<g>
<path style="fill:rgb(154, 36, 202);fill-opacity:1.0;fill-rule:evenodd;stroke:rgb(0, 0, 0);stroke-width:1.0;" d="M 173.776, 89.7119 L 164.047, 104.169 L 152.588, 94.4715 L 162.869, 83.6701 z "/>
<text x="163.30965925487618" y="93.32281609960637" dy="0.3em" style="font-size:10px;fill:black;font-family:Sans;text-anchor:middle;text-align:center"></text>
</g>
<g>
<path style="fill:rgb(154, 36, 202);fill-opacity:1.0;fill-rule:evenodd;stroke:rgb(0, 0, 0);stroke-width:1.0;" d="M 160.889, 78.6525 L 162.869, 83.6701 L 152.588, 94.4715 L 142.115, 85.6086 L 144.591, 75.7196 z "/>
<text x="151.98009373272626" y="83.95567209118539" dy="0.3em" style="font-size:10px;fill:black;font-family:Sans;text-anchor:middle;text-align:center"></text>
</g>
<g>
<path style="fill:rgb(154, 36, 202);fill-opacity:1.0;fill-rule:evenodd;stroke:rgb(0, 0, 0);stroke-width:1.0;" d="M 186.846, 111.212 L 179.867, 117.556 L 164.047, 104.169 L 173.776, 89.7119 L 176.253, 89.4266 z "/>
<text x="175.8534881969368" y="104.037718557382" dy="0.3em" style="font-size:10px;fill:black;font-family:Sans;text-anchor:middle;text-align:center"></text>
</g>
</svg>