<?xml version="1.0" encoding="iso-8859-1" standalone="no"?>
<!DOCTYPE svg PUBLIC "-//W3C//DTD SVG 1.0//EN" "http://www.w3.org/TR/2001/REC-SVG-20010904/DTD/svg10.dtd">
<svg xmlns="http://www.w3.org/2000/svg" width="300" height="300">
<g>
<path style="fill:rgb(0, 0, 255);fill-opacity:1.0;fill-rule:evenodd;stroke:rgb(0, 0, 0);stroke-width:1.0;" d="M 300, 229.862 L 275.154, 227.425 L 264.495, 183.435 L 286.272, 162.438 L 300, 160.784 z "/>
<text x="285.5161787894033" y="196.14140003081934" dy="0.3em" style="font-size:10px;fill:black;font-family:Sans;text-anchor:middle;text-align:center"></text>
</g>
<g>
<path style="fill:rgb(0, 0, 255);fill-opacity:1.0;fill-rule:evenodd;stroke:rgb(0, 0, 0);stroke-width:1.0;" d="M 300, 105.216 L 265.169, 104.028 L 255.836, 59.3385 L 300, 58.3766 z "/>
<text x="280.31372681899217" y="80.8176609628312" dy="0.3em" style="font-size:10px;fill:black;font-family:Sans;text-anchor:middle;text-align:center"></text>
</g>
<g>
<path style="fill:rgb(0, 0, 255);fill-opacity:1.0;fill-rule:evenodd;stroke:rgb(0, 0, 0);stroke-width:1.0;" d="M 268.935, 20.4716 L 251.356, 50.1281 L 224.897, 19.7262 L 227.32, 0 L 263.52, 0 z "/>
<text x="247.24572244058152" y="19.25749824316676" dy="0.3em" style="font-size:10px;fill:black;font-family:Sans;text-anchor:middle;text-align:center"></text>
</g>
<g>
<path style="fill:rgb(0, 0, 255);fill-opacity:1.0;fill-rule:evenodd;stroke:rgb(0, 0, 0);stroke-width:1.0;" d="M 151.432, 30.6661 L 132.842, 31.8788 L 128.442, 0 L 163.52, 0 z "/>
<text x="144.1446260055431" y="14.018522615417927" dy="0.3em" style="font-size:10px;fill:black;font-family:Sans;text-anchor:middle;text-align:center"></text>
</g>
<g>
<path style="fill:rgb(0, 0, 255);fill-opacity:1.0;fill-rule:evenodd;stroke:rgb(0, 0, 0);stroke-width:1.0;" d="M 213.391, 241.373 L 190.906, 263.652 L 188.64, 264.185 L 172.861, 249.796 L 167.186, 223.061 L 188.65, 209.815 z "/>
<text x="188.2556997859032" y="237.08323493606215" dy="0.3em" style="font-size:10px;fill:black;font-family:Sans;text-anchor:middle;text-align:center"></text>
</g>
<g>
<path style="fill:rgb(0, 0, 255);fill-opacity:1.0;fill-rule:evenodd;stroke:rgb(0, 0, 0);stroke-width:1.0;" d="M 132.842, 31.8788 L 124.128, 39.5722 L 90.7278, 22.2332 L 91.3118, 0 L 128.442, 0 z "/>
<text x="112.59524606442768" y="16.699481180975493" dy="0.3em" style="font-size:10px;fill:black;font-family:Sans;text-anchor:middle;text-align:center"></text>
</g>
<g>
<path style="fill:rgb(0, 0, 255);fill-opacity:1.0;fill-rule:evenodd;stroke:rgb(0, 0, 0);stroke-width:1.0;" d="M 100.793, 202.866 L 103.385, 229.419 L 81.7333, 253.261 L 54.3968, 252.066 L 35.0688, 225.288 L 59.22, 191.354 z "/>
<text x="70.98804150055824" y="223.36326825013884" dy="0.3em" style="font-size:10px;fill:black;font-family:Sans;text-anchor:middle;text-align:center"></text>
</g>
<g>
<path style="fill:rgb(0, 0, 255);fill-opacity:1.0;fill-rule:evenodd;stroke:rgb(0, 0, 0);stroke-width:1.0;" d="M 44.6203, 29.5486 L 30.8545, 54.9042 L 8.32667e-15, 56.1866 L 8.32667e-15, 0 L 36.262, 0 z "/>
<text x="19.666209846981744" y="27.18013172064957" dy="0.3em" style="font-size:10px;fill:black;font-family:Sans;text-anchor:middle;text-align:center"></text>
</g>
<g>
<path style="fill:rgb(0, 0, 255);fill-opacity:1.0;fill-rule:evenodd;stroke:rgb(0, 0, 0);stroke-width:1.0;" d="M 181.693, 105.789 L 188.855, 129.443 L 186.199, 136.17 L 145.561, 146.403 L 136.201, 108.217 L 153.949, 87.982 z "/>
<text x="161.2483865501286" y="118.95843988492685" dy="0.3em" style="font-size:10px;fill:black;font-family:Sans;text-anchor:middle;text-align:center"></text>
</g>
<g>
<path style="fill:rgb(0, 0, 255);fill-opacity:1.0;fill-rule:evenodd;stroke:rgb(0, 0, 0);stroke-width:1.0;" d="M 219.957, 241.918 L 232.008, 273.026 L 214.646, 280.837 L 190.906, 263.652 L 213.391, 241.373 z "/>
<text x="213.27222945846756" y="262.0783472814656" dy="0.3em" style="font-size:10px;fill:black;font-family:Sans;text-anchor:middle;text-align:center"></text>
</g>
<g>
<path style="fill:rgb(0, 0, 255);fill-opacity:1.0;fill-rule:evenodd;stroke:rgb(0, 0, 0);stroke-width:1.0;" d="M 251.356, 50.1281 L 251.903, 56.3518 L 217.795, 71.5891 L 198.522, 37.8314 L 224.897, 19.7262 z "/>
<text x="224.84045722866526" y="46.364850210170786" dy="0.3em" style="font-size:10px;fill:black;font-family:Sans;text-anchor:middle;text-align:center"></text>
</g>
<g>
<path style="fill:rgb(0, 0, 255);fill-opacity:1.0;fill-rule:evenodd;stroke:rgb(0, 0, 0);stroke-width:1.0;" d="M 167.186, 223.061 L 172.861, 249.796 L 141.855, 267.564 L 135.242, 263.586 L 129.791, 243.223 L 158.674, 221.811 z "/>
<text x="151.8144576493343" y="244.7123819018357" dy="0.3em" style="font-size:10px;fill:black;font-family:Sans;text-anchor:middle;text-align:center"></text>
</g>
<g>
<path style="fill:rgb(0, 0, 255);fill-opacity:1.0;fill-rule:evenodd;stroke:rgb(0, 0, 0);stroke-width:1.0;" d="M 81.7333, 253.261 L 99.9364, 287.346 L 98.5794, 300 L 34.2437, 300 L 54.3968, 252.066 z "/>
<text x="68.57468425339108" y="279.55077451091705" dy="0.3em" style="font-size:10px;fill:black;font-family:Sans;text-anchor:middle;text-align:center"></text>
</g>
<g>
<path style="fill:rgb(0, 0, 255);fill-opacity:1.0;fill-rule:evenodd;stroke:rgb(0, 0, 0);stroke-width:1.0;" d="M 90.7278, 22.2332 L 79.0221, 34.5168 L 44.6203, 29.5486 L 36.262, 0 L 91.3118, 0 z "/>
<text x="65.48321085128471" y="15.175058508169446" dy="0.3em" style="font-size:10px;fill:black;font-family:Sans;text-anchor:middle;text-align:center"></text>
</g>
<g>
<path style="fill:rgb(0, 0, 255);fill-opacity:1.0;fill-rule:evenodd;stroke:rgb(0, 0, 0);stroke-width:1.0;" d="M 213.053, 177.818 L 195.769, 191.753 L 134.011, 165.119 L 145.561, 146.403 L 186.199, 136.17 z "/>
<text x="175.6710423325054" y="163.31386156702612" dy="0.3em" style="font-size:10px;fill:black;font-family:Sans;text-anchor:middle;text-align:center"></text>
</g>
<g>
<path style="fill:rgb(0, 0, 255);fill-opacity:1.0;fill-rule:evenodd;stroke:rgb(0, 0, 0);stroke-width:1.0;" d="M 154.187, 79.5007 L 153.949, 87.982 L 136.201, 108.217 L 99.1676, 101.586 L 93.5015, 77.5499 L 122.787, 57.5256 z "/>
<text x="123.4207245034738" y="84.78751686617018" dy="0.3em" style="font-size:10px;fill:black;font-family:Sans;text-anchor:middle;text-align:center"></text>
</g>
<g>
<path style="fill:rgb(0, 0, 255);fill-opacity:1.0;fill-rule:evenodd;stroke:rgb(0, 0, 0);stroke-width:1.0;" d="M 198.522, 37.8314 L 217.795, 71.5891 L 214.452, 77.834 L 209.091, 79.2924 L 166.73, 65.9016 L 171.269, 46.1488 L 189.796, 35.827 z "/>
<text x="191.90120490394824" y="58.452126401490226" dy="0.3em" style="font-size:10px;fill:black;font-family:Sans;text-anchor:middle;text-align:center"></text>
</g>
<g>
<path style="fill:rgb(0, 0, 255);fill-opacity:1.0;fill-rule:evenodd;stroke:rgb(0, 0, 0);stroke-width:1.0;" d="M 300, 229.862 L 300, 299.582 L 259.158, 266.118 L 262.955, 233.917 L 275.154, 227.425 z "/>
<text x="282.6192394197195" y="257.4980094948968" dy="0.3em" style="font-size:10px;fill:black;font-family:Sans;text-anchor:middle;text-align:center"></text>
</g>
<g>
<path style="fill:rgb(0, 0, 255);fill-opacity:1.0;fill-rule:evenodd;stroke:rgb(0, 0, 0);stroke-width:1.0;" d="M 35.0688, 225.288 L 54.3968, 252.066 L 34.2437, 300 L 8.32667e-15, 300 L 8.32667e-15, 224.835 z "/>
<text x="22.57806543835053" y="261.66302522839896" dy="0.3em" style="font-size:10px;fill:black;font-family:Sans;text-anchor:middle;text-align:center"></text>
</g>
<g>
<path style="fill:rgb(0, 0, 255);fill-opacity:1.0;fill-rule:evenodd;stroke:rgb(0, 0, 0);stroke-width:1.0;" d="M 214.646, 280.837 L 210.086, 300 L 186.001, 300 L 183.521, 274.032 L 188.64, 264.185 L 190.906, 263.652 z "/>
<text x="197.4930329919232" y="284.4252776350164" dy="0.3em" style="font-size:10px;fill:black;font-family:Sans;text-anchor:middle;text-align:center"></text>
</g>
<g>
<path style="fill:rgb(0, 0, 255);fill-opacity:1.0;fill-rule:evenodd;stroke:rgb(0, 0, 0);stroke-width:1.0;" d="M 245.786, 121.032 L 246.976, 130.019 L 216.027, 177.756 L 213.053, 177.818 L 186.199, 136.17 L 188.855, 129.443 L 229.9, 113.048 z "/>
<text x="217.24627695495033" y="140.8089865939594" dy="0.3em" style="font-size:10px;fill:black;font-family:Sans;text-anchor:middle;text-align:center"></text>
</g>
<g>
<path style="fill:rgb(0, 0, 255);fill-opacity:1.0;fill-rule:evenodd;stroke:rgb(0, 0, 0);stroke-width:1.0;" d="M 300, 299.582 L 300, 300 L 242.785, 300 L 240.187, 276.252 L 259.158, 266.118 z "/>
<text x="263.5400400235804" y="287.15342804819016" dy="0.3em" style="font-size:10px;fill:black;font-family:Sans;text-anchor:middle;text-align:center"></text>
</g>
<g>
<path style="fill:rgb(0, 0, 255);fill-opacity:1.0;fill-rule:evenodd;stroke:rgb(0, 0, 0);stroke-width:1.0;" d="M 129.791, 243.223 L 135.242, 263.586 L 99.9364, 287.346 L 81.7333, 253.261 L 103.385, 229.419 z "/>
<text x="108.32341102837032" y="257.10500977592113" dy="0.3em" style="font-size:10px;fill:black;font-family:Sans;text-anchor:middle;text-align:center"></text>
</g>
<g>
<path style="fill:rgb(0, 0, 255);fill-opacity:1.0;fill-rule:evenodd;stroke:rgb(0, 0, 0);stroke-width:1.0;" d="M 124.128, 39.5722 L 122.787, 57.5256 L 93.5015, 77.5499 L 81.9801, 70.0851 L 79.0221, 34.5168 L 90.7278, 22.2332 z "/>
<text x="99.25925035968974" y="49.49593372293037" dy="0.3em" style="font-size:10px;fill:black;font-family:Sans;text-anchor:middle;text-align:center"></text>
</g>
<g>
<path style="fill:rgb(0, 0, 255);fill-opacity:1.0;fill-rule:evenodd;stroke:rgb(0, 0, 0);stroke-width:1.0;" d="M 74.5727, 133.865 L 52.3461, 168.477 L 8.32667e-15, 155.735 L 8.32667e-15, 118.067 L 39.9576, 106.7 z "/>
<text x="33.670674661173756" y="137.61694808187988" dy="0.3em" style="font-size:10px;fill:black;font-family:Sans;text-anchor:middle;text-align:center"></text>
</g>
<g>
<path style="fill:rgb(0, 0, 255);fill-opacity:1.0;fill-rule:evenodd;stroke:rgb(0, 0, 0);stroke-width:1.0;" d="M 240.187, 276.252 L 242.785, 300 L 210.086, 300 L 214.646, 280.837 L 232.008, 273.026 z "/>
<text x="227.61782868712305" y="288.5403979656555" dy="0.3em" style="font-size:10px;fill:black;font-family:Sans;text-anchor:middle;text-align:center"></text>
</g>
<g>
<path style="fill:rgb(0, 0, 255);fill-opacity:1.0;fill-rule:evenodd;stroke:rgb(0, 0, 0);stroke-width:1.0;" d="M 300, 105.216 L 300, 160.784 L 286.272, 162.438 L 246.976, 130.019 L 245.786, 121.032 L 265.169, 104.028 z "/>
<text x="278.2040673992975" y="129.7215114685556" dy="0.3em" style="font-size:10px;fill:black;font-family:Sans;text-anchor:middle;text-align:center"></text>
</g>
<g>
<path style="fill:rgb(0, 0, 255);fill-opacity:1.0;fill-rule:evenodd;stroke:rgb(0, 0, 0);stroke-width:1.0;" d="M 286.272, 162.438 L 264.495, 183.435 L 222.956, 181.94 L 216.027, 177.756 L 246.976, 130.019 z "/>
<text x="250.75505228220902" y="162.54416164456032" dy="0.3em" style="font-size:10px;fill:black;font-family:Sans;text-anchor:middle;text-align:center"></text>
</g>
<g>
<path style="fill:rgb(0, 0, 255);fill-opacity:1.0;fill-rule:evenodd;stroke:rgb(0, 0, 0);stroke-width:1.0;" d="M 188.64, 264.185 L 183.521, 274.032 L 149.953, 281.381 L 141.855, 267.564 L 172.861, 249.796 z "/>
<text x="165.82815298221277" y="266.89897972000836" dy="0.3em" style="font-size:10px;fill:black;font-family:Sans;text-anchor:middle;text-align:center"></text>
</g>
<g>
<path style="fill:rgb(0, 0, 255);fill-opacity:1.0;fill-rule:evenodd;stroke:rgb(0, 0, 0);stroke-width:1.0;" d="M 224.897, 19.7262 L 198.522, 37.8314 L 189.796, 35.827 L 181.662, 0 L 227.32, 0 z "/>
<text x="203.76522459100647" y="15.279001553457752" dy="0.3em" style="font-size:10px;fill:black;font-family:Sans;text-anchor:middle;text-align:center"></text>
</g>
<g>
<path style="fill:rgb(0, 0, 255);fill-opacity:1.0;fill-rule:evenodd;stroke:rgb(0, 0, 0);stroke-width:1.0;" d="M 136.201, 108.217 L 145.561, 146.403 L 134.011, 165.119 L 130.007, 167.814 L 78.2724, 132.873 L 99.1676, 101.586 z "/>
<text x="115.82646834181284" y="131.88070075704692" dy="0.3em" style="font-size:10px;fill:black;font-family:Sans;text-anchor:middle;text-align:center"></text>
</g>
<g>
<path style="fill:rgb(0, 0, 255);fill-opacity:1.0;fill-rule:evenodd;stroke:rgb(0, 0, 0);stroke-width:1.0;" d="M 48.3109, 75.7563 L 39.9576, 106.7 L 0, 118.067 L 8.32667e-15, 56.1866 L 30.8545, 54.9042 z "/>
<text x="20.700646295888923" y="84.42124411321733" dy="0.3em" style="font-size:10px;fill:black;font-family:Sans;text-anchor:middle;text-align:center"></text>
</g>
<g>
<path style="fill:rgb(0, 0, 255);fill-opacity:1.0;fill-rule:evenodd;stroke:rgb(0, 0, 0);stroke-width:1.0;" d="M 171.269, 46.1488 L 166.73, 65.9016 L 154.187, 79.5007 L 122.787, 57.5256 L 124.128, 39.5722 L 132.842, 31.8788 L 151.432, 30.6661 z "/>
<text x="146.94673338175616" y="52.363583849516075" dy="0.3em" style="font-size:10px;fill:black;font-family:Sans;text-anchor:middle;text-align:center"></text>
</g>
<g>
<path style="fill:rgb(0, 0, 255);fill-opacity:1.0;fill-rule:evenodd;stroke:rgb(0, 0, 0);stroke-width:1.0;" d="M 255.836, 59.3385 L 265.169, 104.028 L 245.786, 121.032 L 229.9, 113.048 L 214.452, 77.834 L 217.795, 71.5891 L 251.903, 56.3518 z "/>
<text x="241.6133194104989" y="88.38294602805807" dy="0.3em" style="font-size:10px;fill:black;font-family:Sans;text-anchor:middle;text-align:center"></text>
</g>
<g>
<path style="fill:rgb(255, 255, 255);fill-opacity:1.0;fill-rule:evenodd;stroke:rgb(0, 0, 0);stroke-width:1.0;" d="M 300, 28.3632 L 268.935, 20.4716 L 263.52, 0 L 300, 0 z "/>
<text x="284.06652773283207" y="11.941043353001533" dy="0.3em" style="font-size:10px;fill:black;font-family:Sans;text-anchor:middle;text-align:center"></text>
</g>
<g>
<path style="fill:rgb(255, 255, 255);fill-opacity:1.0;fill-rule:evenodd;stroke:rgb(0, 0, 0);stroke-width:1.0;" d="M 300, 28.3632 L 300, 58.3766 L 255.836, 59.3385 L 251.903, 56.3518 L 251.356, 50.1281 L 268.935, 20.4716 z "/>
<text x="277.7829435929938" y="42.60005884119616" dy="0.3em" style="font-size:10px;fill:black;font-family:Sans;text-anchor:middle;text-align:center"></text>
</g>
<g>
<path style="fill:rgb(255, 200, 150);fill-opacity:1.0;fill-rule:evenodd;stroke:rgb(0, 0, 0);stroke-width:1.0;" d="M 84.7836, 123.123 L 78.2724, 132.873 L 74.5727, 133.865 L 62.9864, 124.772 L 68.8287, 118.092 z "/>
<text x="73.828215985047" y="125.59512969230148" dy="0.3em" style="font-size:10px;fill:black;font-family:Sans;text-anchor:middle;text-align:center"></text>
</g>
<g>
<path style="fill:rgb(255, 200, 150);fill-opacity:1.0;fill-rule:evenodd;stroke:rgb(0, 0, 0);stroke-width:1.0;" d="M 68.8287, 118.092 L 62.9864, 124.772 L 40.6539, 107.246 L 69.8642, 101.331 z "/>
<text x="58.99754637538287" y="111.56410770803545" dy="0.3em" style="font-size:10px;fill:black;font-family:Sans;text-anchor:middle;text-align:center">.</text>
</g>
<g>
<path style="fill:rgb(255, 200, 150);fill-opacity:1.0;fill-rule:evenodd;stroke:rgb(0, 0, 0);stroke-width:1.0;" d="M 92.3697, 111.764 L 84.7836, 123.123 L 68.8287, 118.092 L 69.8642, 101.331 L 70.7208, 100.369 z "/>
<text x="78.76133200662998" y="112.6105028034782" dy="0.3em" style="font-size:10px;fill:black;font-family:Sans;text-anchor:middle;text-align:center">.</text>
</g>
<g>
<path style="fill:rgb(255, 200, 150);fill-opacity:1.0;fill-rule:evenodd;stroke:rgb(0, 0, 0);stroke-width:1.0;" d="M 93.5015, 77.5499 L 94.3748, 81.2542 L 71.3281, 96.2402 L 56.5417, 74.3699 L 81.9801, 70.0851 z "/>
<text x="75.6932198726267" y="81.02756765678676" dy="0.3em" style="font-size:10px;fill:black;font-family:Sans;text-anchor:middle;text-align:center">.</text>
</g>
<g>
<path style="fill:rgb(255, 200, 150);fill-opacity:1.0;fill-rule:evenodd;stroke:rgb(0, 0, 0);stroke-width:1.0;" d="M 71.3281, 96.2402 L 70.7208, 100.369 L 69.8642, 101.331 L 40.6539, 107.246 L 39.9576, 106.7 L 48.3109, 75.7563 L 56.5417, 74.3699 z "/>
<text x="54.90610743984436" y="92.36635077099818" dy="0.3em" style="font-size:10px;fill:black;font-family:Sans;text-anchor:middle;text-align:center">.</text>
</g>
<g>
<path style="fill:rgb(255, 200, 150);fill-opacity:1.0;fill-rule:evenodd;stroke:rgb(0, 0, 0);stroke-width:1.0;" d="M 99.1676, 101.586 L 92.3697, 111.764 L 70.7208, 100.369 L 71.3281, 96.2402 L 94.3748, 81.2542 z "/>
<text x="87.04462511709573" y="97.40957063840372" dy="0.3em" style="font-size:10px;fill:black;font-family:Sans;text-anchor:middle;text-align:center">.</text>
</g>
<g>
<path style="fill:rgb(255, 200, 150);fill-opacity:1.0;fill-rule:evenodd;stroke:rgb(0, 0, 0);stroke-width:1.0;" d="M 241.548, 229.344 L 231.716, 235.07 L 221.529, 222.859 L 233.789, 209.561 z "/>
<text x="232.05343605894694" y="223.48226033539916" dy="0.3em" style="font-size:10px;fill:black;font-family:Sans;text-anchor:middle;text-align:center">.</text>
</g>
<g>
<path style="fill:rgb(255, 200, 150);fill-opacity:1.0;fill-rule:evenodd;stroke:rgb(0, 0, 0);stroke-width:1.0;" d="M 213.676, 202.624 L 208.751, 210.349 L 191.881, 213.936 L 188.65, 209.815 L 195.769, 191.753 L 204.973, 184.332 z "/>
<text x="201.32704810105596" y="201.17853092649293" dy="0.3em" style="font-size:10px;fill:black;font-family:Sans;text-anchor:middle;text-align:center">.</text>
</g>
<g>
<path style="fill:rgb(255, 200, 150);fill-opacity:1.0;fill-rule:evenodd;stroke:rgb(0, 0, 0);stroke-width:1.0;" d="M 217.576, 222.781 L 207.697, 234.111 L 191.881, 213.936 L 208.751, 210.349 z "/>
<text x="205.85488096464422" y="220.52494802775112" dy="0.3em" style="font-size:10px;fill:black;font-family:Sans;text-anchor:middle;text-align:center">.</text>
</g>
<g>
<path style="fill:rgb(255, 200, 150);fill-opacity:1.0;fill-rule:evenodd;stroke:rgb(0, 0, 0);stroke-width:1.0;" d="M 221.529, 222.859 L 231.716, 235.07 L 219.957, 241.918 L 213.391, 241.373 L 207.697, 234.111 L 217.576, 222.781 z "/>
<text x="219.2173517610265" y="233.05869129677617" dy="0.3em" style="font-size:10px;fill:black;font-family:Sans;text-anchor:middle;text-align:center">.</text>
</g>
<g>
<path style="fill:rgb(255, 200, 150);fill-opacity:1.0;fill-rule:evenodd;stroke:rgb(0, 0, 0);stroke-width:1.0;" d="M 222.956, 181.94 L 230.745, 201.799 L 213.676, 202.624 L 204.973, 184.332 L 213.053, 177.818 L 216.027, 177.756 z "/>
<text x="217.5808435932622" y="190.9566953752588" dy="0.3em" style="font-size:10px;fill:black;font-family:Sans;text-anchor:middle;text-align:center">.</text>
</g>
<g>
<path style="fill:rgb(255, 200, 150);fill-opacity:1.0;fill-rule:evenodd;stroke:rgb(0, 0, 0);stroke-width:1.0;" d="M 233.789, 209.561 L 221.529, 222.859 L 217.576, 222.781 L 208.751, 210.349 L 213.676, 202.624 L 230.745, 201.799 z "/>
<text x="221.18186070932" y="210.86665842087928" dy="0.3em" style="font-size:10px;fill:black;font-family:Sans;text-anchor:middle;text-align:center">.</text>
</g>
<g>
<path style="fill:rgb(255, 0, 0);fill-opacity:1.0;fill-rule:evenodd;stroke:rgb(0, 0, 0);stroke-width:1.0;" d="M 202.879, 100.144 L 198.805, 116.076 L 183.825, 112.831 L 183.813, 112.791 L 202.798, 100.071 z "/>
<text x="195.16436851119826" y="109.62881448865603" dy="0.3em" style="font-size:10px;fill:black;font-family:Sans;text-anchor:middle;text-align:center">.</text>
</g>
<g>
<path style="fill:rgb(255, 0, 0);fill-opacity:1.0;fill-rule:evenodd;stroke:rgb(0, 0, 0);stroke-width:1.0;" d="M 202.798, 100.071 L 183.813, 112.791 L 181.693, 105.789 L 197.756, 90.2544 z "/>
<text x="192.2050482343447" y="101.73882181892787" dy="0.3em" style="font-size:10px;fill:black;font-family:Sans;text-anchor:middle;text-align:center">.</text>
</g>
<g>
<path style="fill:rgb(255, 0, 0);fill-opacity:1.0;fill-rule:evenodd;stroke:rgb(0, 0, 0);stroke-width:1.0;" d="M 198.805, 116.076 L 205.062, 122.969 L 188.855, 129.443 L 183.825, 112.831 z "/>
<text x="193.2959830843084" y="120.78686332491604" dy="0.3em" style="font-size:10px;fill:black;font-family:Sans;text-anchor:middle;text-align:center">.</text>
</g>
<g>
<path style="fill:rgb(255, 0, 0);fill-opacity:1.0;fill-rule:evenodd;stroke:rgb(0, 0, 0);stroke-width:1.0;" d="M 210.623, 103.029 L 211.085, 120.564 L 205.062, 122.969 L 198.805, 116.076 L 202.879, 100.144 z "/>
<text x="205.66607536609845" y="111.88016926479138" dy="0.3em" style="font-size:10px;fill:black;font-family:Sans;text-anchor:middle;text-align:center"></text>
</g>
<g>
<path style="fill:rgb(255, 0, 0);fill-opacity:1.0;fill-rule:evenodd;stroke:rgb(0, 0, 0);stroke-width:1.0;" d="M 229.9, 113.048 L 211.085, 120.564 L 210.623, 103.029 L 223.656, 98.8147 z "/>
<text x="218.83086652465428" y="109.39704496939004" dy="0.3em" style="font-size:10px;fill:black;font-family:Sans;text-anchor:middle;text-align:center"></text>
</g>
<g>
<path style="fill:rgb(255, 0, 0);fill-opacity:1.0;fill-rule:evenodd;stroke:rgb(0, 0, 0);stroke-width:1.0;" d="M 223.656, 98.8147 L 210.623, 103.029 L 202.879, 100.144 L 202.798, 100.071 L 197.756, 90.2544 L 209.091, 79.2924 L 214.452, 77.834 z "/>
<text x="210.6908902489589" y="91.66278103196318" dy="0.3em" style="font-size:10px;fill:black;font-family:Sans;text-anchor:middle;text-align:center"></text>
</g>
<g>
<path style="fill:rgb(255, 127, 0);fill-opacity:1.0;fill-rule:evenodd;stroke:rgb(0, 0, 0);stroke-width:1.0;" d="M 247.482, 182.823 L 247.137, 196.104 L 243.097, 201.326 L 231.835, 204.579 L 222.956, 181.94 z "/>
<text x="236.50597993778314" y="191.59931442832098" dy="0.3em" style="font-size:10px;fill:black;font-family:Sans;text-anchor:middle;text-align:center">.</text>
</g>
<g>
<path style="fill:rgb(255, 127, 0);fill-opacity:1.0;fill-rule:evenodd;stroke:rgb(0, 0, 0);stroke-width:1.0;" d="M 251.819, 215.493 L 238.471, 221.497 L 231.835, 204.579 L 243.097, 201.326 z "/>
<text x="241.34717976647943" y="211.0709622775058" dy="0.3em" style="font-size:10px;fill:black;font-family:Sans;text-anchor:middle;text-align:center">.</text>
</g>
<g>
<path style="fill:rgb(255, 127, 0);fill-opacity:1.0;fill-rule:evenodd;stroke:rgb(0, 0, 0);stroke-width:1.0;" d="M 269.514, 204.149 L 269.959, 205.986 L 254.373, 216.284 L 251.819, 215.493 L 243.097, 201.326 L 247.137, 196.104 z "/>
<text x="255.25168142256993" y="205.78863627101845" dy="0.3em" style="font-size:10px;fill:black;font-family:Sans;text-anchor:middle;text-align:center">.</text>
</g>
<g>
<path style="fill:rgb(255, 127, 0);fill-opacity:1.0;fill-rule:evenodd;stroke:rgb(0, 0, 0);stroke-width:1.0;" d="M 254.373, 216.284 L 257.812, 232.819 L 241.548, 229.344 L 238.471, 221.497 L 251.819, 215.493 z "/>
<text x="248.91646876726702" y="224.3817442739365" dy="0.3em" style="font-size:10px;fill:black;font-family:Sans;text-anchor:middle;text-align:center"></text>
</g>
<g>
<path style="fill:rgb(255, 127, 0);fill-opacity:1.0;fill-rule:evenodd;stroke:rgb(0, 0, 0);stroke-width:1.0;" d="M 264.495, 183.435 L 269.514, 204.149 L 247.137, 196.104 L 247.482, 182.823 z "/>
<text x="257.82401585257713" y="192.0866228248008" dy="0.3em" style="font-size:10px;fill:black;font-family:Sans;text-anchor:middle;text-align:center"></text>
</g>
<g>
<path style="fill:rgb(255, 127, 0);fill-opacity:1.0;fill-rule:evenodd;stroke:rgb(0, 0, 0);stroke-width:1.0;" d="M 275.154, 227.425 L 262.955, 233.917 L 257.812, 232.819 L 254.373, 216.284 L 269.959, 205.986 z "/>
<text x="264.74914480767467" y="221.1938949820878" dy="0.3em" style="font-size:10px;fill:black;font-family:Sans;text-anchor:middle;text-align:center"></text>
</g>
<g>
<path style="fill:rgb(255, 255, 0);fill-opacity:1.0;fill-rule:evenodd;stroke:rgb(0, 0, 0);stroke-width:1.0;" d="M 177.286, 69.2387 L 170.551, 80.33 L 161.132, 71.9703 L 166.73, 65.9016 z "/>
<text x="169.22360344212714" y="72.21209281872174" dy="0.3em" style="font-size:10px;fill:black;font-family:Sans;text-anchor:middle;text-align:center">.</text>
</g>
<g>
<path style="fill:rgb(255, 255, 0);fill-opacity:1.0;fill-rule:evenodd;stroke:rgb(0, 0, 0);stroke-width:1.0;" d="M 209.091, 79.2924 L 190.081, 97.6766 L 185.885, 82.9027 L 191.457, 73.7181 z "/>
<text x="195.17985097881262" y="83.82633280488079" dy="0.3em" style="font-size:10px;fill:black;font-family:Sans;text-anchor:middle;text-align:center">.</text>
</g>
<g>
<path style="fill:rgb(255, 255, 0);fill-opacity:1.0;fill-rule:evenodd;stroke:rgb(0, 0, 0);stroke-width:1.0;" d="M 170.551, 80.33 L 170.869, 82.521 L 155.23, 88.8043 L 153.949, 87.982 L 154.187, 79.5007 L 161.132, 71.9703 z "/>
<text x="161.19203751335328" y="80.8671349802776" dy="0.3em" style="font-size:10px;fill:black;font-family:Sans;text-anchor:middle;text-align:center">.</text>
</g>
<g>
<path style="fill:rgb(255, 255, 0);fill-opacity:1.0;fill-rule:evenodd;stroke:rgb(0, 0, 0);stroke-width:1.0;" d="M 173.479, 85.0733 L 173.735, 100.682 L 155.23, 88.8043 L 170.869, 82.521 z "/>
<text x="167.32382008532818" y="90.52326842281421" dy="0.3em" style="font-size:10px;fill:black;font-family:Sans;text-anchor:middle;text-align:center"></text>
</g>
<g>
<path style="fill:rgb(255, 255, 0);fill-opacity:1.0;fill-rule:evenodd;stroke:rgb(0, 0, 0);stroke-width:1.0;" d="M 191.457, 73.7181 L 185.885, 82.9027 L 173.479, 85.0733 L 170.869, 82.521 L 170.551, 80.33 L 177.286, 69.2387 z "/>
<text x="180.25189352398948" y="77.55723547328553" dy="0.3em" style="font-size:10px;fill:black;font-family:Sans;text-anchor:middle;text-align:center"></text>
</g>
<g>
<path style="fill:rgb(255, 255, 0);fill-opacity:1.0;fill-rule:evenodd;stroke:rgb(0, 0, 0);stroke-width:1.0;" d="M 190.081, 97.6766 L 181.693, 105.789 L 173.735, 100.682 L 173.479, 85.0733 L 185.885, 82.9027 z "/>
<text x="181.0295984764335" y="93.76000568909123" dy="0.3em" style="font-size:10px;fill:black;font-family:Sans;text-anchor:middle;text-align:center"></text>
</g>
<g>
<path style="fill:rgb(0, 255, 0);fill-opacity:1.0;fill-rule:evenodd;stroke:rgb(0, 0, 0);stroke-width:1.0;" d="M 81.1509, 60.1154 L 68.787, 56.5214 L 65.0442, 46.9964 L 79.6104, 41.5912 z "/>
<text x="74.28453253764637" y="50.925003632461376" dy="0.3em" style="font-size:10px;fill:black;font-family:Sans;text-anchor:middle;text-align:center">.</text>
</g>
<g>
<path style="fill:rgb(0, 255, 0);fill-opacity:1.0;fill-rule:evenodd;stroke:rgb(0, 0, 0);stroke-width:1.0;" d="M 62.5677, 32.1405 L 62.2686, 45.1773 L 51.3418, 48.6482 L 37.9718, 41.7947 L 44.6203, 29.5486 z "/>
<text x="51.53567292811093" y="38.865008833294475" dy="0.3em" style="font-size:10px;fill:black;font-family:Sans;text-anchor:middle;text-align:center">.</text>
</g>
<g>
<path style="fill:rgb(0, 255, 0);fill-opacity:1.0;fill-rule:evenodd;stroke:rgb(0, 0, 0);stroke-width:1.0;" d="M 65.0442, 46.9964 L 68.787, 56.5214 L 53.4077, 73.0423 L 51.3418, 48.6482 L 62.2686, 45.1773 z "/>
<text x="58.85432831259982" y="56.70264883441595" dy="0.3em" style="font-size:10px;fill:black;font-family:Sans;text-anchor:middle;text-align:center">.</text>
</g>
<g>
<path style="fill:rgb(0, 255, 0);fill-opacity:1.0;fill-rule:evenodd;stroke:rgb(0, 0, 0);stroke-width:1.0;" d="M 51.3418, 48.6482 L 53.4077, 73.0423 L 52.7494, 75.0087 L 48.3109, 75.7563 L 30.8545, 54.9042 L 37.9718, 41.7947 z "/>
<text x="43.80338126354685" y="57.957270240259696" dy="0.3em" style="font-size:10px;fill:black;font-family:Sans;text-anchor:middle;text-align:center"></text>
</g>
<g>
<path style="fill:rgb(0, 255, 0);fill-opacity:1.0;fill-rule:evenodd;stroke:rgb(0, 0, 0);stroke-width:1.0;" d="M 81.1509, 60.1154 L 81.9801, 70.0851 L 52.7494, 75.0087 L 53.4077, 73.0423 L 68.787, 56.5214 z "/>
<text x="69.42650228952753" y="66.24335764434406" dy="0.3em" style="font-size:10px;fill:black;font-family:Sans;text-anchor:middle;text-align:center"></text>
</g>
<g>
<path style="fill:rgb(0, 255, 0);fill-opacity:1.0;fill-rule:evenodd;stroke:rgb(0, 0, 0);stroke-width:1.0;" d="M 79.0221, 34.5168 L 79.6104, 41.5912 L 65.0442, 46.9964 L 62.2686, 45.1773 L 62.5677, 32.1405 z "/>
<text x="69.92213852865144" y="39.10377496239751" dy="0.3em" style="font-size:10px;fill:black;font-family:Sans;text-anchor:middle;text-align:center"></text>
</g>
<g>
<path style="fill:rgb(150, 0, 255);fill-opacity:1.0;fill-rule:evenodd;stroke:rgb(0, 0, 0);stroke-width:1.0;" d="M 245.708, 260.355 L 249.768, 271.135 L 240.187, 276.252 L 232.008, 273.026 L 231.13, 270.759 L 242.906, 258.393 z "/>
<text x="241.0289639091965" y="268.4176636431231" dy="0.3em" style="font-size:10px;fill:black;font-family:Sans;text-anchor:middle;text-align:center">.</text>
</g>
<g>
<path style="fill:rgb(150, 0, 255);fill-opacity:1.0;fill-rule:evenodd;stroke:rgb(0, 0, 0);stroke-width:1.0;" d="M 260.229, 257.03 L 245.708, 260.355 L 242.906, 258.393 L 240.76, 251.983 L 242.961, 247.451 L 261.552, 245.815 z "/>
<text x="251.23993319295548" y="252.66815306865664" dy="0.3em" style="font-size:10px;fill:black;font-family:Sans;text-anchor:middle;text-align:center">.</text>
</g>
<g>
<path style="fill:rgb(150, 0, 255);fill-opacity:1.0;fill-rule:evenodd;stroke:rgb(0, 0, 0);stroke-width:1.0;" d="M 242.961, 247.451 L 240.76, 251.983 L 224.15, 252.743 L 219.957, 241.918 L 238.388, 231.185 z "/>
<text x="232.3639957315774" y="243.88446565322283" dy="0.3em" style="font-size:10px;fill:black;font-family:Sans;text-anchor:middle;text-align:center">.</text>
</g>
<g>
<path style="fill:rgb(150, 0, 255);fill-opacity:1.0;fill-rule:evenodd;stroke:rgb(0, 0, 0);stroke-width:1.0;" d="M 259.158, 266.118 L 249.768, 271.135 L 245.708, 260.355 L 260.229, 257.03 z "/>
<text x="253.3357483425876" y="263.4543784660222" dy="0.3em" style="font-size:10px;fill:black;font-family:Sans;text-anchor:middle;text-align:center"></text>
</g>
<g>
<path style="fill:rgb(150, 0, 255);fill-opacity:1.0;fill-rule:evenodd;stroke:rgb(0, 0, 0);stroke-width:1.0;" d="M 242.906, 258.393 L 231.13, 270.759 L 224.15, 252.743 L 240.76, 251.983 z "/>
<text x="233.58215042330943" y="258.9678371406943" dy="0.3em" style="font-size:10px;fill:black;font-family:Sans;text-anchor:middle;text-align:center"></text>
</g>
<g>
<path style="fill:rgb(150, 0, 255);fill-opacity:1.0;fill-rule:evenodd;stroke:rgb(0, 0, 0);stroke-width:1.0;" d="M 262.955, 233.917 L 261.552, 245.815 L 242.961, 247.451 L 238.388, 231.185 L 241.548, 229.344 z "/>
<text x="250.62409329548632" y="238.642834950099" dy="0.3em" style="font-size:10px;fill:black;font-family:Sans;text-anchor:middle;text-align:center"></text>
</g>
<g>
<path style="fill:rgb(255, 0, 255);fill-opacity:1.0;fill-rule:evenodd;stroke:rgb(0, 0, 0);stroke-width:1.0;" d="M 97.795, 179.099 L 104.104, 199.858 L 100.793, 202.866 L 64.7068, 192.873 L 80.9397, 169.653 z "/>
<text x="86.08483204561071" y="187.62231511746975" dy="0.3em" style="font-size:10px;fill:black;font-family:Sans;text-anchor:middle;text-align:center">.</text>
</g>
<g>
<path style="fill:rgb(255, 0, 255);fill-opacity:1.0;fill-rule:evenodd;stroke:rgb(0, 0, 0);stroke-width:1.0;" d="M 84.7357, 158.657 L 80.6151, 168.447 L 58.7265, 158.541 L 71.7551, 138.253 z "/>
<text x="72.69971167550172" y="155.09063991684917" dy="0.3em" style="font-size:10px;fill:black;font-family:Sans;text-anchor:middle;text-align:center">.</text>
</g>
<g>
<path style="fill:rgb(255, 0, 255);fill-opacity:1.0;fill-rule:evenodd;stroke:rgb(0, 0, 0);stroke-width:1.0;" d="M 130.007, 167.814 L 125.689, 180.241 L 104.104, 199.858 L 97.795, 179.099 L 115.865, 158.263 z "/>
<text x="113.17946910770789" y="177.64860444144574" dy="0.3em" style="font-size:10px;fill:black;font-family:Sans;text-anchor:middle;text-align:center">.</text>
</g>
<g>
<path style="fill:rgb(255, 0, 255);fill-opacity:1.0;fill-rule:evenodd;stroke:rgb(0, 0, 0);stroke-width:1.0;" d="M 100.752, 148.056 L 84.7357, 158.657 L 71.7551, 138.253 L 74.5727, 133.865 L 78.2724, 132.873 z "/>
<text x="84.85909375511682" y="145.35657772254177" dy="0.3em" style="font-size:10px;fill:black;font-family:Sans;text-anchor:middle;text-align:center"></text>
</g>
<g>
<path style="fill:rgb(255, 0, 255);fill-opacity:1.0;fill-rule:evenodd;stroke:rgb(0, 0, 0);stroke-width:1.0;" d="M 80.6151, 168.447 L 80.9397, 169.653 L 64.7068, 192.873 L 59.22, 191.354 L 52.3461, 168.477 L 58.7265, 158.541 z "/>
<text x="64.88136681543601" y="174.5117681418755" dy="0.3em" style="font-size:10px;fill:black;font-family:Sans;text-anchor:middle;text-align:center"></text>
</g>
<g>
<path style="fill:rgb(255, 0, 255);fill-opacity:1.0;fill-rule:evenodd;stroke:rgb(0, 0, 0);stroke-width:1.0;" d="M 115.865, 158.263 L 97.795, 179.099 L 80.9397, 169.653 L 80.6151, 168.447 L 84.7357, 158.657 L 100.752, 148.056 z "/>
<text x="97.45823217619946" y="163.24021263454463" dy="0.3em" style="font-size:10px;fill:black;font-family:Sans;text-anchor:middle;text-align:center"></text>
</g>
<g>
<path style="fill:rgb(0, 255, 255);fill-opacity:1.0;fill-rule:evenodd;stroke:rgb(0, 0, 0);stroke-width:1.0;" d="M 172.984, 12.2892 L 171.183, 16.9019 L 165.72, 20.2955 L 156.699, 17.3045 L 163.52, 0 L 165.685, 0 z "/>
<text x="165.05891734024917" y="11.436457417074838" dy="0.3em" style="font-size:10px;fill:black;font-family:Sans;text-anchor:middle;text-align:center">.</text>
</g>
<g>
<path style="fill:rgb(0, 255, 255);fill-opacity:1.0;fill-rule:evenodd;stroke:rgb(0, 0, 0);stroke-width:1.0;" d="M 188.188, 28.7465 L 171.183, 16.9019 L 172.984, 12.2892 L 183.583, 8.46206 z "/>
<text x="180.34453764122705" y="17.343725038104875" dy="0.3em" style="font-size:10px;fill:black;font-family:Sans;text-anchor:middle;text-align:center">.</text>
</g>
<g>
<path style="fill:rgb(0, 255, 255);fill-opacity:1.0;fill-rule:evenodd;stroke:rgb(0, 0, 0);stroke-width:1.0;" d="M 188.188, 28.7465 L 188.236, 28.9552 L 167.597, 31.8074 L 165.72, 20.2955 L 171.183, 16.9019 z "/>
<text x="174.32107533682407" y="25.339081725138257" dy="0.3em" style="font-size:10px;fill:black;font-family:Sans;text-anchor:middle;text-align:center">.</text>
</g>
<g>
<path style="fill:rgb(0, 255, 255);fill-opacity:1.0;fill-rule:evenodd;stroke:rgb(0, 0, 0);stroke-width:1.0;" d="M 183.583, 8.46206 L 172.984, 12.2892 L 165.685, 0 L 181.662, 0 z "/>
<text x="175.41729204432968" y="5.029402953738215" dy="0.3em" style="font-size:10px;fill:black;font-family:Sans;text-anchor:middle;text-align:center"></text>
</g>
<g>
<path style="fill:rgb(0, 255, 255);fill-opacity:1.0;fill-rule:evenodd;stroke:rgb(0, 0, 0);stroke-width:1.0;" d="M 165.72, 20.2955 L 167.597, 31.8074 L 163.092, 39.767 L 151.432, 30.6661 L 156.699, 17.3045 z "/>
<text x="160.23444436803996" y="28.051396389578066" dy="0.3em" style="font-size:10px;fill:black;font-family:Sans;text-anchor:middle;text-align:center"></text>
</g>
<g>
<path style="fill:rgb(0, 255, 255);fill-opacity:1.0;fill-rule:evenodd;stroke:rgb(0, 0, 0);stroke-width:1.0;" d="M 189.796, 35.827 L 171.269, 46.1488 L 163.092, 39.767 L 167.597, 31.8074 L 188.236, 28.9552 z "/>
<text x="176.20598143725653" y="36.6124892367581" dy="0.3em" style="font-size:10px;fill:black;font-family:Sans;text-anchor:middle;text-align:center"></text>
</g>
<g>
<path style="fill:rgb(150, 150, 150);fill-opacity:1.0;fill-rule:evenodd;stroke:rgb(0, 0, 0);stroke-width:1.0;" d="M 158.674, 221.811 L 148.532, 229.33 L 126.492, 217.243 L 126.081, 216.735 L 125.435, 215.403 L 125.413, 215.205 L 138.559, 196.461 z "/>
<text x="141.648515344709" y="214.72318411527905" dy="0.3em" style="font-size:10px;fill:black;font-family:Sans;text-anchor:middle;text-align:center">.</text>
</g>
<g>
<path style="fill:rgb(150, 150, 150);fill-opacity:1.0;fill-rule:evenodd;stroke:rgb(0, 0, 0);stroke-width:1.0;" d="M 138.559, 196.461 L 125.413, 215.205 L 102.355, 201.447 L 125.689, 180.241 z "/>
<text x="122.15645397765124" y="198.36668179968743" dy="0.3em" style="font-size:10px;fill:black;font-family:Sans;text-anchor:middle;text-align:center">.</text>
</g>
<g>
<path style="fill:rgb(150, 150, 150);fill-opacity:1.0;fill-rule:evenodd;stroke:rgb(0, 0, 0);stroke-width:1.0;" d="M 148.532, 229.33 L 129.791, 243.223 L 126.622, 241.566 L 126.492, 217.243 z "/>
<text x="134.0174313463139" y="230.44624141716298" dy="0.3em" style="font-size:10px;fill:black;font-family:Sans;text-anchor:middle;text-align:center">.</text>
</g>
<g>
<path style="fill:rgb(150, 150, 150);fill-opacity:1.0;fill-rule:evenodd;stroke:rgb(0, 0, 0);stroke-width:1.0;" d="M 126.492, 217.243 L 126.622, 241.566 L 114.205, 235.074 L 126.081, 216.735 z "/>
<text x="122.43164776172144" y="230.93756306230708" dy="0.3em" style="font-size:10px;fill:black;font-family:Sans;text-anchor:middle;text-align:center"></text>
</g>
<g>
<path style="fill:rgb(150, 150, 150);fill-opacity:1.0;fill-rule:evenodd;stroke:rgb(0, 0, 0);stroke-width:1.0;" d="M 125.413, 215.205 L 125.435, 215.403 L 103.238, 227.914 L 100.793, 202.866 L 102.355, 201.447 z "/>
<text x="109.84979777215797" y="214.61742897262124" dy="0.3em" style="font-size:10px;fill:black;font-family:Sans;text-anchor:middle;text-align:center"></text>
</g>
<g>
<path style="fill:rgb(150, 150, 150);fill-opacity:1.0;fill-rule:evenodd;stroke:rgb(0, 0, 0);stroke-width:1.0;" d="M 126.081, 216.735 L 114.205, 235.074 L 103.385, 229.419 L 103.238, 227.914 L 125.435, 215.403 z "/>
<text x="114.57890334409626" y="226.03935195939445" dy="0.3em" style="font-size:10px;fill:black;font-family:Sans;text-anchor:middle;text-align:center"></text>
</g>
<g>
<path style="fill:rgb(191, 201, 101);fill-opacity:1.0;fill-rule:evenodd;stroke:rgb(0, 0, 0);stroke-width:1.0;" d="M 135.247, 283.541 L 134.39, 285.457 L 125.206, 290.321 L 113.641, 278.123 L 126.832, 269.245 z "/>
<text x="125.1912068503846" y="280.1910391678156" dy="0.3em" style="font-size:10px;fill:black;font-family:Sans;text-anchor:middle;text-align:center">.</text>
</g>
<g>
<path style="fill:rgb(191, 201, 101);fill-opacity:1.0;fill-rule:evenodd;stroke:rgb(0, 0, 0);stroke-width:1.0;" d="M 149.953, 281.381 L 149.666, 300 L 143.249, 300 L 134.39, 285.457 L 135.247, 283.541 L 148.173, 278.345 z "/>
<text x="143.9134549876846" y="289.0638484124193" dy="0.3em" style="font-size:10px;fill:black;font-family:Sans;text-anchor:middle;text-align:center">.</text>
</g>
<g>
<path style="fill:rgb(191, 201, 101);fill-opacity:1.0;fill-rule:evenodd;stroke:rgb(0, 0, 0);stroke-width:1.0;" d="M 125.206, 290.321 L 122.342, 300 L 112.605, 300 L 107.471, 282.275 L 113.641, 278.123 z "/>
<text x="116.13296277724358" y="290.1680124510827" dy="0.3em" style="font-size:10px;fill:black;font-family:Sans;text-anchor:middle;text-align:center">.</text>
</g>
<g>
<path style="fill:rgb(191, 201, 101);fill-opacity:1.0;fill-rule:evenodd;stroke:rgb(0, 0, 0);stroke-width:1.0;" d="M 141.855, 267.564 L 148.173, 278.345 L 135.247, 283.541 L 126.832, 269.245 L 135.242, 263.586 z "/>
<text x="137.23977402037218" y="273.55759539888123" dy="0.3em" style="font-size:10px;fill:black;font-family:Sans;text-anchor:middle;text-align:center"></text>
</g>
<g>
<path style="fill:rgb(191, 201, 101);fill-opacity:1.0;fill-rule:evenodd;stroke:rgb(0, 0, 0);stroke-width:1.0;" d="M 143.249, 300 L 122.342, 300 L 125.206, 290.321 L 134.39, 285.457 z "/>
<text x="132.13730486319207" y="294.5141895037517" dy="0.3em" style="font-size:10px;fill:black;font-family:Sans;text-anchor:middle;text-align:center"></text>
</g>
<g>
<path style="fill:rgb(191, 201, 101);fill-opacity:1.0;fill-rule:evenodd;stroke:rgb(0, 0, 0);stroke-width:1.0;" d="M 112.605, 300 L 98.5794, 300 L 99.9364, 287.346 L 107.471, 282.275 z "/>
<text x="105.11011901649965" y="292.9846210512101" dy="0.3em" style="font-size:10px;fill:black;font-family:Sans;text-anchor:middle;text-align:center"></text>
</g>
<g>
<path style="fill:rgb(125, 65, 15);fill-opacity:1.0;fill-rule:evenodd;stroke:rgb(0, 0, 0);stroke-width:1.0;" d="M 52.3461, 168.477 L 56.7713, 183.204 L 38.7712, 190.403 L 33.1986, 187.529 L 42.6431, 166.115 z "/>
<text x="45.26035794133758" y="178.80783080943655" dy="0.3em" style="font-size:10px;fill:black;font-family:Sans;text-anchor:middle;text-align:center">.</text>
</g>
<g>
<path style="fill:rgb(125, 65, 15);fill-opacity:1.0;fill-rule:evenodd;stroke:rgb(0, 0, 0);stroke-width:1.0;" d="M 59.22, 191.354 L 48.0088, 207.106 L 38.7712, 190.403 L 56.7713, 183.204 z "/>
<text x="49.63223800380714" y="193.6541214098917" dy="0.3em" style="font-size:10px;fill:black;font-family:Sans;text-anchor:middle;text-align:center">.</text>
</g>
<g>
<path style="fill:rgb(125, 65, 15);fill-opacity:1.0;fill-rule:evenodd;stroke:rgb(0, 0, 0);stroke-width:1.0;" d="M 42.6431, 166.115 L 33.1986, 187.529 L 23.6063, 188.81 L 16.933, 159.857 z "/>
<text x="28.89737405897067" y="173.5840491211164" dy="0.3em" style="font-size:10px;fill:black;font-family:Sans;text-anchor:middle;text-align:center">.</text>
</g>
<g>
<path style="fill:rgb(125, 65, 15);fill-opacity:1.0;fill-rule:evenodd;stroke:rgb(0, 0, 0);stroke-width:1.0;" d="M 16.933, 159.857 L 23.6063, 188.81 L 18.3405, 193.731 L 8.32667e-15, 195.386 L 8.32667e-15, 155.735 z "/>
<text x="9.96998240823577" y="176.97229952820928" dy="0.3em" style="font-size:10px;fill:black;font-family:Sans;text-anchor:middle;text-align:center"></text>
</g>
<g>
<path style="fill:rgb(125, 65, 15);fill-opacity:1.0;fill-rule:evenodd;stroke:rgb(0, 0, 0);stroke-width:1.0;" d="M 31.662, 225.244 L 8.32667e-15, 224.835 L 8.32667e-15, 195.386 L 18.3405, 193.731 z "/>
<text x="12.94769945350438" y="211.09532752835085" dy="0.3em" style="font-size:10px;fill:black;font-family:Sans;text-anchor:middle;text-align:center"></text>
</g>
<g>
<path style="fill:rgb(125, 65, 15);fill-opacity:1.0;fill-rule:evenodd;stroke:rgb(0, 0, 0);stroke-width:1.0;" d="M 38.7712, 190.403 L 48.0088, 207.106 L 35.0688, 225.288 L 31.662, 225.244 L 18.3405, 193.731 L 23.6063, 188.81 L 33.1986, 187.529 z "/>
<text x="33.22300765275411" y="204.24777990787894" dy="0.3em" style="font-size:10px;fill:black;font-family:Sans;text-anchor:middle;text-align:center"></text>
</g>
<g>
<path style="fill:rgb(246, 27, 104);fill-opacity:1.0;fill-rule:evenodd;stroke:rgb(0, 0, 0);stroke-width:1.0;" d="M 152.724, 194.865 L 144.586, 204.057 L 129.154, 184.607 L 143.538, 182.395 z "/>
<text x="142.01482766215895" y="191.6246394556001" dy="0.3em" style="font-size:10px;fill:black;font-family:Sans;text-anchor:middle;text-align:center">.</text>
</g>
<g>
<path style="fill:rgb(246, 27, 104);fill-opacity:1.0;fill-rule:evenodd;stroke:rgb(0, 0, 0);stroke-width:1.0;" d="M 182.782, 186.152 L 169.076, 200.939 L 154.548, 194.415 L 163.572, 177.868 z "/>
<text x="167.7685549610334" y="189.50234017816425" dy="0.3em" style="font-size:10px;fill:black;font-family:Sans;text-anchor:middle;text-align:center">.</text>
</g>
<g>
<path style="fill:rgb(246, 27, 104);fill-opacity:1.0;fill-rule:evenodd;stroke:rgb(0, 0, 0);stroke-width:1.0;" d="M 169.076, 200.939 L 173.585, 219.113 L 167.186, 223.061 L 158.674, 221.811 L 144.586, 204.057 L 152.724, 194.865 L 154.548, 194.415 z "/>
<text x="160.12881297457156" y="208.85507682185124" dy="0.3em" style="font-size:10px;fill:black;font-family:Sans;text-anchor:middle;text-align:center">.</text>
</g>
<g>
<path style="fill:rgb(246, 27, 104);fill-opacity:1.0;fill-rule:evenodd;stroke:rgb(0, 0, 0);stroke-width:1.0;" d="M 163.572, 177.868 L 154.548, 194.415 L 152.724, 194.865 L 143.538, 182.395 L 147.223, 170.817 z "/>
<text x="152.71701496074905" y="182.00031733025958" dy="0.3em" style="font-size:10px;fill:black;font-family:Sans;text-anchor:middle;text-align:center"></text>
</g>
<g>
<path style="fill:rgb(246, 27, 104);fill-opacity:1.0;fill-rule:evenodd;stroke:rgb(0, 0, 0);stroke-width:1.0;" d="M 147.223, 170.817 L 143.538, 182.395 L 129.154, 184.607 L 125.689, 180.241 L 130.007, 167.814 L 134.011, 165.119 z "/>
<text x="136.1002277717882" y="175.43800376924355" dy="0.3em" style="font-size:10px;fill:black;font-family:Sans;text-anchor:middle;text-align:center"></text>
</g>
<g>
<path style="fill:rgb(246, 27, 104);fill-opacity:1.0;fill-rule:evenodd;stroke:rgb(0, 0, 0);stroke-width:1.0;" d="M 195.769, 191.753 L 188.65, 209.815 L 173.585, 219.113 L 169.076, 200.939 L 182.782, 186.152 z "/>
<text x="181.64173972612926" y="201.59376340527754" dy="0.3em" style="font-size:10px;fill:black;font-family:Sans;text-anchor:middle;text-align:center"></text>
</g>
<g>
<path style="fill:rgb(119, 57, 35);fill-opacity:1.0;fill-rule:evenodd;stroke:rgb(0, 0, 0);stroke-width:1.0;" d="M 186.001, 300 L 184.369, 300 L 175.211, 287.355 L 184.171, 280.839 z "/>
<text x="181.80104536764475" y="290.04332414521275" dy="0.3em" style="font-size:10px;fill:black;font-family:Sans;text-anchor:middle;text-align:center">.</text>
</g>
<g>
<path style="fill:rgb(119, 57, 35);fill-opacity:1.0;fill-rule:evenodd;stroke:rgb(0, 0, 0);stroke-width:1.0;" d="M 165.708, 292.544 L 165.725, 300 L 149.666, 300 L 149.795, 291.656 L 158.568, 288.077 z "/>
<text x="157.66497754193142" y="294.9716913940146" dy="0.3em" style="font-size:10px;fill:black;font-family:Sans;text-anchor:middle;text-align:center">.</text>
</g>
<g>
<path style="fill:rgb(119, 57, 35);fill-opacity:1.0;fill-rule:evenodd;stroke:rgb(0, 0, 0);stroke-width:1.0;" d="M 158.568, 288.077 L 149.795, 291.656 L 149.953, 281.381 L 158.328, 279.548 z "/>
<text x="154.03801070828942" y="285.24117673452656" dy="0.3em" style="font-size:10px;fill:black;font-family:Sans;text-anchor:middle;text-align:center">.</text>
</g>
<g>
<path style="fill:rgb(119, 57, 35);fill-opacity:1.0;fill-rule:evenodd;stroke:rgb(0, 0, 0);stroke-width:1.0;" d="M 175.211, 287.355 L 184.369, 300 L 165.725, 300 L 165.708, 292.544 L 171.327, 286.764 z "/>
<text x="173.43704261587064" y="294.7199364119867" dy="0.3em" style="font-size:10px;fill:black;font-family:Sans;text-anchor:middle;text-align:center"></text>
</g>
<g>
<path style="fill:rgb(119, 57, 35);fill-opacity:1.0;fill-rule:evenodd;stroke:rgb(0, 0, 0);stroke-width:1.0;" d="M 171.327, 286.764 L 165.708, 292.544 L 158.568, 288.077 L 158.328, 279.548 L 168.474, 277.326 z "/>
<text x="164.54337429890836" y="284.5138784696697" dy="0.3em" style="font-size:10px;fill:black;font-family:Sans;text-anchor:middle;text-align:center"></text>
</g>
<g>
<path style="fill:rgb(119, 57, 35);fill-opacity:1.0;fill-rule:evenodd;stroke:rgb(0, 0, 0);stroke-width:1.0;" d="M 184.171, 280.839 L 175.211, 287.355 L 171.327, 286.764 L 168.474, 277.326 L 183.521, 274.032 z "/>
<text x="176.46401487094514" y="280.39359895179643" dy="0.3em" style="font-size:10px;fill:black;font-family:Sans;text-anchor:middle;text-align:center"></text>
</g>
</svg>