<?xml version="1.0" encoding="iso-8859-1" standalone="no"?>
<!DOCTYPE svg PUBLIC "-//W3C//DTD SVG 1.0//EN" "http://www.w3.org/TR/2001/REC-SVG-20010904/DTD/svg10.dtd">
<svg xmlns="http://www.w3.org/2000/svg" width="300" height="300">
<g>
<path style="fill:rgb(0, 0, 255);fill-opacity:1.0;fill-rule:evenodd;stroke:rgb(0, 0, 0);stroke-width:1.0;" d="M 141.213, 100.894 L 135.799, 118.975 L 115.316, 127.862 L 106.413, 124.053 L 105.393, 88.9064 L 126.857, 79.0824 z "/>
<text x="121.44528020701998" y="104.18316813442657" dy="0.3em" style="font-size:10px;fill:black;font-family:Sans;text-anchor:middle;text-align:center"></text>
</g>
<g>
<path style="fill:rgb(0, 0, 255);fill-opacity:1.0;fill-rule:evenodd;stroke:rgb(0, 0, 0);stroke-width:1.0;" d="M 177.294, 135.511 L 163.88, 141.088 L 135.799, 118.975 L 141.213, 100.894 L 174.924, 96.1847 z "/>
<text x="159.3670517016089" y="116.90751028002356" dy="0.3em" style="font-size:10px;fill:black;font-family:Sans;text-anchor:middle;text-align:center"></text>
</g>
<g>
<path style="fill:rgb(0, 0, 255);fill-opacity:1.0;fill-rule:evenodd;stroke:rgb(0, 0, 0);stroke-width:1.0;" d="M 220.446, 150.318 L 214.908, 182.623 L 185.032, 199.834 L 149.276, 180.241 L 145.425, 171.507 L 163.88, 141.088 L 177.294, 135.511 z "/>
<text x="184.06613198309572" y="166.8070346299784" dy="0.3em" style="font-size:10px;fill:black;font-family:Sans;text-anchor:middle;text-align:center"></text>
</g>
<g>
<path style="fill:rgb(0, 0, 255);fill-opacity:1.0;fill-rule:evenodd;stroke:rgb(0, 0, 0);stroke-width:1.0;" d="M 266.215, 300 L 209.831, 300 L 202.259, 273.618 L 208, 254.202 L 239.986, 245.724 z "/>
<text x="230.7683963235153" y="276.86960109126846" dy="0.3em" style="font-size:10px;fill:black;font-family:Sans;text-anchor:middle;text-align:center"></text>
</g>
<g>
<path style="fill:rgb(0, 0, 255);fill-opacity:1.0;fill-rule:evenodd;stroke:rgb(0, 0, 0);stroke-width:1.0;" d="M 28.0786, 20.19 L 0, 18.4711 L 0, 0 L 33.4284, 0 z "/>
<text x="15.660424845706133" y="9.405433979970521" dy="0.3em" style="font-size:10px;fill:black;font-family:Sans;text-anchor:middle;text-align:center"></text>
</g>
<g>
<path style="fill:rgb(0, 0, 255);fill-opacity:1.0;fill-rule:evenodd;stroke:rgb(0, 0, 0);stroke-width:1.0;" d="M 254.647, 41.5354 L 252.069, 77.4576 L 197.755, 65.3426 L 240.418, 28.1837 z "/>
<text x="233.439052363584" y="55.58925209523621" dy="0.3em" style="font-size:10px;fill:black;font-family:Sans;text-anchor:middle;text-align:center"></text>
</g>
<g>
<path style="fill:rgb(0, 0, 255);fill-opacity:1.0;fill-rule:evenodd;stroke:rgb(0, 0, 0);stroke-width:1.0;" d="M 62.1521, 85.7927 L 84.8053, 129.546 L 70.1674, 150.769 L 54.2898, 154.101 L 48.5128, 147.359 L 39.1881, 111.001 L 60.5651, 85.3218 z "/>
<text x="60.77453700147918" y="122.72007039506077" dy="0.3em" style="font-size:10px;fill:black;font-family:Sans;text-anchor:middle;text-align:center"></text>
</g>
<g>
<path style="fill:rgb(0, 0, 255);fill-opacity:1.0;fill-rule:evenodd;stroke:rgb(0, 0, 0);stroke-width:1.0;" d="M 54.1023, 75.2452 L 60.5651, 85.3218 L 39.1881, 111.001 L 0, 109.227 L 0, 72.8885 z "/>
<text x="26.333350779553747" y="91.06972695722038" dy="0.3em" style="font-size:10px;fill:black;font-family:Sans;text-anchor:middle;text-align:center"></text>
</g>
<g>
<path style="fill:rgb(0, 0, 255);fill-opacity:1.0;fill-rule:evenodd;stroke:rgb(0, 0, 0);stroke-width:1.0;" d="M 39.1881, 111.001 L 48.5128, 147.359 L 0, 138.833 L 0, 109.227 z "/>
<text x="22.638070418428107" y="127.2131033674266" dy="0.3em" style="font-size:10px;fill:black;font-family:Sans;text-anchor:middle;text-align:center"></text>
</g>
<g>
<path style="fill:rgb(0, 0, 255);fill-opacity:1.0;fill-rule:evenodd;stroke:rgb(0, 0, 0);stroke-width:1.0;" d="M 51.7545, 202.89 L 55.5504, 208.092 L 49.8663, 226.167 L 27.4301, 240.229 L 0, 230.316 L 0, 197.792 z "/>
<text x="25.09670041015007" y="217.2280887769144" dy="0.3em" style="font-size:10px;fill:black;font-family:Sans;text-anchor:middle;text-align:center"></text>
</g>
<g>
<path style="fill:rgb(0, 0, 255);fill-opacity:1.0;fill-rule:evenodd;stroke:rgb(0, 0, 0);stroke-width:1.0;" d="M 45.0856, 40.6307 L 34.8698, 36.1541 L 28.0786, 20.19 L 33.4284, 0 L 72.5434, 0 z "/>
<text x="46.391909548016685" y="16.09053290943899" dy="0.3em" style="font-size:10px;fill:black;font-family:Sans;text-anchor:middle;text-align:center"></text>
</g>
<g>
<path style="fill:rgb(0, 0, 255);fill-opacity:1.0;fill-rule:evenodd;stroke:rgb(0, 0, 0);stroke-width:1.0;" d="M 89.798, 35.6265 L 53.828, 54.1831 L 45.0856, 40.6307 L 72.5434, 0 L 75.0678, 0 z "/>
<text x="67.83829083986721" y="29.766589371081757" dy="0.3em" style="font-size:10px;fill:black;font-family:Sans;text-anchor:middle;text-align:center"></text>
</g>
<g>
<path style="fill:rgb(0, 0, 255);fill-opacity:1.0;fill-rule:evenodd;stroke:rgb(0, 0, 0);stroke-width:1.0;" d="M 300, 94.1906 L 300, 155.657 L 228.191, 143.196 L 230.149, 123.609 L 256.916, 86.571 z "/>
<text x="268.7290806618241" y="122.08389721399585" dy="0.3em" style="font-size:10px;fill:black;font-family:Sans;text-anchor:middle;text-align:center"></text>
</g>
<g>
<path style="fill:rgb(0, 0, 255);fill-opacity:1.0;fill-rule:evenodd;stroke:rgb(0, 0, 0);stroke-width:1.0;" d="M 72.6754, 261.276 L 42.8423, 273.447 L 30.311, 264.479 L 27.4301, 240.229 L 49.8663, 226.167 z "/>
<text x="47.130281704476026" y="251.62286274662736" dy="0.3em" style="font-size:10px;fill:black;font-family:Sans;text-anchor:middle;text-align:center"></text>
</g>
<g>
<path style="fill:rgb(0, 0, 255);fill-opacity:1.0;fill-rule:evenodd;stroke:rgb(0, 0, 0);stroke-width:1.0;" d="M 117.544, 41.7072 L 101.133, 42.1124 L 89.798, 35.6265 L 75.0678, 0 L 122.901, 0 z "/>
<text x="101.78322532081482" y="18.41235308719609" dy="0.3em" style="font-size:10px;fill:black;font-family:Sans;text-anchor:middle;text-align:center"></text>
</g>
<g>
<path style="fill:rgb(0, 0, 255);fill-opacity:1.0;fill-rule:evenodd;stroke:rgb(0, 0, 0);stroke-width:1.0;" d="M 300, 155.657 L 300, 208.54 L 252.786, 219.874 L 214.908, 182.623 L 220.446, 150.318 L 228.191, 143.196 z "/>
<text x="259.8325984085488" y="179.9086691067182" dy="0.3em" style="font-size:10px;fill:black;font-family:Sans;text-anchor:middle;text-align:center"></text>
</g>
<g>
<path style="fill:rgb(0, 0, 255);fill-opacity:1.0;fill-rule:evenodd;stroke:rgb(0, 0, 0);stroke-width:1.0;" d="M 101.133, 42.1124 L 83.2743, 81.1299 L 62.1521, 85.7927 L 60.5651, 85.3218 L 54.1023, 75.2452 L 53.828, 54.1831 L 89.798, 35.6265 z "/>
<text x="75.26773574759986" y="61.15350768133799" dy="0.3em" style="font-size:10px;fill:black;font-family:Sans;text-anchor:middle;text-align:center"></text>
</g>
<g>
<path style="fill:rgb(0, 0, 255);fill-opacity:1.0;fill-rule:evenodd;stroke:rgb(0, 0, 0);stroke-width:1.0;" d="M 153.633, 36.868 L 121.895, 44.9273 L 117.544, 41.7072 L 122.901, 0 L 163.792, 0 z "/>
<text x="138.7837358543369" y="20.14098269294047" dy="0.3em" style="font-size:10px;fill:black;font-family:Sans;text-anchor:middle;text-align:center"></text>
</g>
<g>
<path style="fill:rgb(0, 0, 255);fill-opacity:1.0;fill-rule:evenodd;stroke:rgb(0, 0, 0);stroke-width:1.0;" d="M 99.1467, 214.486 L 89.8229, 254.578 L 75.393, 262.001 L 72.6754, 261.276 L 49.8663, 226.167 L 55.5504, 208.092 L 92.6476, 207.763 z "/>
<text x="75.4881740156395" y="230.24212332428525" dy="0.3em" style="font-size:10px;fill:black;font-family:Sans;text-anchor:middle;text-align:center"></text>
</g>
<g>
<path style="fill:rgb(0, 0, 255);fill-opacity:1.0;fill-rule:evenodd;stroke:rgb(0, 0, 0);stroke-width:1.0;" d="M 180.922, 233.246 L 158.168, 269.998 L 130.187, 262.74 L 135.104, 231.133 L 179.245, 229.28 z "/>
<text x="153.00915721873903" y="247.13412526751466" dy="0.3em" style="font-size:10px;fill:black;font-family:Sans;text-anchor:middle;text-align:center"></text>
</g>
<g>
<path style="fill:rgb(0, 0, 255);fill-opacity:1.0;fill-rule:evenodd;stroke:rgb(0, 0, 0);stroke-width:1.0;" d="M 300, 300 L 266.215, 300 L 239.986, 245.724 L 252.786, 219.874 L 300, 208.54 z "/>
<text x="275.52102131499396" y="254.65803430181452" dy="0.3em" style="font-size:10px;fill:black;font-family:Sans;text-anchor:middle;text-align:center"></text>
</g>
<g>
<path style="fill:rgb(0, 0, 255);fill-opacity:1.0;fill-rule:evenodd;stroke:rgb(0, 0, 0);stroke-width:1.0;" d="M 98.9079, 174.158 L 92.6476, 207.763 L 55.5504, 208.092 L 51.7545, 202.89 L 51.2099, 160.405 L 54.2898, 154.101 L 70.1674, 150.769 z "/>
<text x="72.46575058554231" y="182.032982799856" dy="0.3em" style="font-size:10px;fill:black;font-family:Sans;text-anchor:middle;text-align:center"></text>
</g>
<g>
<path style="fill:rgb(0, 0, 255);fill-opacity:1.0;fill-rule:evenodd;stroke:rgb(0, 0, 0);stroke-width:1.0;" d="M 240.418, 28.1837 L 197.755, 65.3426 L 190.333, 66.8604 L 194.216, 24.1855 L 236.995, 18.1596 z "/>
<text x="211.05662192176823" y="38.08107030564942" dy="0.3em" style="font-size:10px;fill:black;font-family:Sans;text-anchor:middle;text-align:center"></text>
</g>
<g>
<path style="fill:rgb(0, 0, 255);fill-opacity:1.0;fill-rule:evenodd;stroke:rgb(0, 0, 0);stroke-width:1.0;" d="M 300, 94.1906 L 256.916, 86.571 L 252.069, 77.4576 L 254.647, 41.5354 L 300, 30.9307 z "/>
<text x="278.14581808834276" y="63.2138291109434" dy="0.3em" style="font-size:10px;fill:black;font-family:Sans;text-anchor:middle;text-align:center"></text>
</g>
<g>
<path style="fill:rgb(0, 0, 255);fill-opacity:1.0;fill-rule:evenodd;stroke:rgb(0, 0, 0);stroke-width:1.0;" d="M 209.831, 300 L 162.88, 300 L 164.837, 281.479 L 202.259, 273.618 z "/>
<text x="186.3530482190017" y="289.0227283136851" dy="0.3em" style="font-size:10px;fill:black;font-family:Sans;text-anchor:middle;text-align:center"></text>
</g>
<g>
<path style="fill:rgb(0, 0, 255);fill-opacity:1.0;fill-rule:evenodd;stroke:rgb(0, 0, 0);stroke-width:1.0;" d="M 180.65, 64.9484 L 128.334, 74.6673 L 121.895, 44.9273 L 153.633, 36.868 z "/>
<text x="147.0552846869182" y="56.39132658606946" dy="0.3em" style="font-size:10px;fill:black;font-family:Sans;text-anchor:middle;text-align:center"></text>
</g>
<g>
<path style="fill:rgb(0, 0, 255);fill-opacity:1.0;fill-rule:evenodd;stroke:rgb(0, 0, 0);stroke-width:1.0;" d="M 208, 254.202 L 202.259, 273.618 L 164.837, 281.479 L 158.168, 269.998 L 180.922, 233.246 z "/>
<text x="183.32730133945927" y="260.4904870640542" dy="0.3em" style="font-size:10px;fill:black;font-family:Sans;text-anchor:middle;text-align:center"></text>
</g>
<g>
<path style="fill:rgb(0, 0, 255);fill-opacity:1.0;fill-rule:evenodd;stroke:rgb(0, 0, 0);stroke-width:1.0;" d="M 28.0786, 20.19 L 34.8698, 36.1541 L 0, 54.3112 L 0, 18.4711 z "/>
<text x="14.046415258238024" y="33.3675227700587" dy="0.3em" style="font-size:10px;fill:black;font-family:Sans;text-anchor:middle;text-align:center"></text>
</g>
<g>
<path style="fill:rgb(0, 0, 255);fill-opacity:1.0;fill-rule:evenodd;stroke:rgb(0, 0, 0);stroke-width:1.0;" d="M 163.88, 141.088 L 145.425, 171.507 L 123.899, 164.056 L 115.316, 127.862 L 135.799, 118.975 z "/>
<text x="137.7860079591387" y="144.6446092596844" dy="0.3em" style="font-size:10px;fill:black;font-family:Sans;text-anchor:middle;text-align:center"></text>
</g>
<g>
<path style="fill:rgb(0, 0, 255);fill-opacity:1.0;fill-rule:evenodd;stroke:rgb(0, 0, 0);stroke-width:1.0;" d="M 252.069, 77.4576 L 256.916, 86.571 L 230.149, 123.609 L 187.998, 76.6267 L 188.517, 68.399 L 190.333, 66.8604 L 197.755, 65.3426 z "/>
<text x="223.21126711704062" y="89.07788593610151" dy="0.3em" style="font-size:10px;fill:black;font-family:Sans;text-anchor:middle;text-align:center"></text>
</g>
<g>
<path style="fill:rgb(255, 255, 255);fill-opacity:1.0;fill-rule:evenodd;stroke:rgb(0, 0, 0);stroke-width:1.0;" d="M 27.4301, 240.229 L 30.311, 264.479 L 0, 277.456 L 0, 230.316 z "/>
<text x="12.921867860595153" y="253.59228025689958" dy="0.3em" style="font-size:10px;fill:black;font-family:Sans;text-anchor:middle;text-align:center"></text>
</g>
<g>
<path style="fill:rgb(255, 255, 255);fill-opacity:1.0;fill-rule:evenodd;stroke:rgb(0, 0, 0);stroke-width:1.0;" d="M 105.393, 88.9064 L 106.413, 124.053 L 84.8053, 129.546 L 62.1521, 85.7927 L 83.2743, 81.1299 z "/>
<text x="88.02406488382104" y="103.32186332755617" dy="0.3em" style="font-size:10px;fill:black;font-family:Sans;text-anchor:middle;text-align:center"></text>
</g>
<g>
<path style="fill:rgb(255, 255, 255);fill-opacity:1.0;fill-rule:evenodd;stroke:rgb(0, 0, 0);stroke-width:1.0;" d="M 48.5128, 147.359 L 54.2898, 154.101 L 51.2099, 160.405 L 0, 177.351 L 0, 138.833 z "/>
<text x="21.548701221633095" y="156.44638517231883" dy="0.3em" style="font-size:10px;fill:black;font-family:Sans;text-anchor:middle;text-align:center"></text>
</g>
<g>
<path style="fill:rgb(255, 255, 255);fill-opacity:1.0;fill-rule:evenodd;stroke:rgb(0, 0, 0);stroke-width:1.0;" d="M 300, 30.9307 L 254.647, 41.5354 L 240.418, 28.1837 L 236.995, 18.1596 L 239.12, 0 L 300, 0 z "/>
<text x="268.83997569078554" y="17.98315471062105" dy="0.3em" style="font-size:10px;fill:black;font-family:Sans;text-anchor:middle;text-align:center"></text>
</g>
<g>
<path style="fill:rgb(255, 200, 150);fill-opacity:1.0;fill-rule:evenodd;stroke:rgb(0, 0, 0);stroke-width:1.0;" d="M 158.168, 269.998 L 164.837, 281.479 L 162.88, 300 L 150.533, 300 L 147.545, 279.205 L 157.934, 269.937 z "/>
<text x="156.43679817588676" y="286.5201656049585" dy="0.3em" style="font-size:10px;fill:black;font-family:Sans;text-anchor:middle;text-align:center">.</text>
</g>
<g>
<path style="fill:rgb(255, 200, 150);fill-opacity:1.0;fill-rule:evenodd;stroke:rgb(0, 0, 0);stroke-width:1.0;" d="M 157.934, 269.937 L 147.545, 279.205 L 141.179, 279.349 L 130.222, 262.749 z "/>
<text x="143.8683305365547" y="271.39735868874857" dy="0.3em" style="font-size:10px;fill:black;font-family:Sans;text-anchor:middle;text-align:center"></text>
</g>
<g>
<path style="fill:rgb(255, 200, 150);fill-opacity:1.0;fill-rule:evenodd;stroke:rgb(0, 0, 0);stroke-width:1.0;" d="M 133.788, 284.494 L 133.212, 288.114 L 118.402, 297.553 L 121.809, 275.616 z "/>
<text x="125.20296246732248" y="286.47550019179755" dy="0.3em" style="font-size:10px;fill:black;font-family:Sans;text-anchor:middle;text-align:center">.</text>
</g>
<g>
<path style="fill:rgb(255, 200, 150);fill-opacity:1.0;fill-rule:evenodd;stroke:rgb(0, 0, 0);stroke-width:1.0;" d="M 142.586, 300 L 118.023, 300 L 118.402, 297.553 L 133.212, 288.114 z "/>
<text x="130.4625593471667" y="295.9558873418626" dy="0.3em" style="font-size:10px;fill:black;font-family:Sans;text-anchor:middle;text-align:center">.</text>
</g>
<g>
<path style="fill:rgb(255, 200, 150);fill-opacity:1.0;fill-rule:evenodd;stroke:rgb(0, 0, 0);stroke-width:1.0;" d="M 150.533, 300 L 142.586, 300 L 133.212, 288.114 L 133.788, 284.494 L 141.179, 279.349 L 147.545, 279.205 z "/>
<text x="142.7387746414039" y="289.4213139986136" dy="0.3em" style="font-size:10px;fill:black;font-family:Sans;text-anchor:middle;text-align:center">.</text>
</g>
<g>
<path style="fill:rgb(255, 200, 150);fill-opacity:1.0;fill-rule:evenodd;stroke:rgb(0, 0, 0);stroke-width:1.0;" d="M 130.222, 262.749 L 141.179, 279.349 L 133.788, 284.494 L 121.809, 275.616 L 123.032, 267.738 L 130.187, 262.74 z "/>
<text x="130.73136665650338" y="274.15145166461883" dy="0.3em" style="font-size:10px;fill:black;font-family:Sans;text-anchor:middle;text-align:center">.</text>
</g>
<g>
<path style="fill:rgb(255, 200, 150);fill-opacity:1.0;fill-rule:evenodd;stroke:rgb(0, 0, 0);stroke-width:1.0;" d="M 99.6361, 258.466 L 93.3995, 271.131 L 77.45, 272.743 L 75.393, 262.001 L 89.8229, 254.578 z "/>
<text x="87.02060520496505" y="264.06931004400036" dy="0.3em" style="font-size:10px;fill:black;font-family:Sans;text-anchor:middle;text-align:center">.</text>
</g>
<g>
<path style="fill:rgb(255, 200, 150);fill-opacity:1.0;fill-rule:evenodd;stroke:rgb(0, 0, 0);stroke-width:1.0;" d="M 123.032, 267.738 L 121.546, 277.306 L 110.32, 277.428 L 107.38, 261.535 z "/>
<text x="115.07652424988153" y="270.5696183382298" dy="0.3em" style="font-size:10px;fill:black;font-family:Sans;text-anchor:middle;text-align:center">.</text>
</g>
<g>
<path style="fill:rgb(255, 200, 150);fill-opacity:1.0;fill-rule:evenodd;stroke:rgb(0, 0, 0);stroke-width:1.0;" d="M 118.023, 300 L 112.903, 300 L 103.864, 283.103 L 110.32, 277.428 L 121.546, 277.306 z "/>
<text x="113.70273097288324" y="287.144468072829" dy="0.3em" style="font-size:10px;fill:black;font-family:Sans;text-anchor:middle;text-align:center">.</text>
</g>
<g>
<path style="fill:rgb(255, 200, 150);fill-opacity:1.0;fill-rule:evenodd;stroke:rgb(0, 0, 0);stroke-width:1.0;" d="M 107.38, 261.535 L 110.32, 277.428 L 103.864, 283.103 L 99.352, 282.269 L 93.3995, 271.131 L 99.6361, 258.466 z "/>
<text x="102.25094581379757" y="271.1967005365237" dy="0.3em" style="font-size:10px;fill:black;font-family:Sans;text-anchor:middle;text-align:center">.</text>
</g>
<g>
<path style="fill:rgb(255, 200, 150);fill-opacity:1.0;fill-rule:evenodd;stroke:rgb(0, 0, 0);stroke-width:1.0;" d="M 99.352, 282.269 L 81.9253, 296.115 L 77.45, 272.743 L 93.3995, 271.131 z "/>
<text x="87.33329230708956" y="281.33388767474696" dy="0.3em" style="font-size:10px;fill:black;font-family:Sans;text-anchor:middle;text-align:center"></text>
</g>
<g>
<path style="fill:rgb(255, 200, 150);fill-opacity:1.0;fill-rule:evenodd;stroke:rgb(0, 0, 0);stroke-width:1.0;" d="M 103.864, 283.103 L 112.903, 300 L 82.6692, 300 L 81.9253, 296.115 L 99.352, 282.269 z "/>
<text x="97.8391723944455" y="293.3750513399482" dy="0.3em" style="font-size:10px;fill:black;font-family:Sans;text-anchor:middle;text-align:center">.</text>
</g>
<g>
<path style="fill:rgb(255, 200, 150);fill-opacity:1.0;fill-rule:evenodd;stroke:rgb(0, 0, 0);stroke-width:1.0;" d="M 34.3839, 182.445 L 32.3606, 192.607 L 15.4977, 191.785 L 14.8976, 186.628 L 28.5637, 176.312 z "/>
<text x="25.484010308023713" y="186.0067387746085" dy="0.3em" style="font-size:10px;fill:black;font-family:Sans;text-anchor:middle;text-align:center">.</text>
</g>
<g>
<path style="fill:rgb(255, 200, 150);fill-opacity:1.0;fill-rule:evenodd;stroke:rgb(0, 0, 0);stroke-width:1.0;" d="M 14.8976, 186.628 L 15.4977, 191.785 L 12.3897, 199.012 L 0, 197.792 L 0, 177.351 L 3.01531, 176.353 z "/>
<text x="6.64202067251761" y="189.03119939404337" dy="0.3em" style="font-size:10px;fill:black;font-family:Sans;text-anchor:middle;text-align:center">.</text>
</g>
<g>
<path style="fill:rgb(255, 200, 150);fill-opacity:1.0;fill-rule:evenodd;stroke:rgb(0, 0, 0);stroke-width:1.0;" d="M 28.5637, 176.312 L 14.8976, 186.628 L 3.01531, 176.353 L 26.7267, 168.506 z "/>
<text x="17.19297257486356" y="177.15869314357732" dy="0.3em" style="font-size:10px;fill:black;font-family:Sans;text-anchor:middle;text-align:center">.</text>
</g>
<g>
<path style="fill:rgb(255, 200, 150);fill-opacity:1.0;fill-rule:evenodd;stroke:rgb(0, 0, 0);stroke-width:1.0;" d="M 51.7545, 202.89 L 35.0155, 201.241 L 32.3606, 192.607 L 34.3839, 182.445 L 51.4672, 180.476 z "/>
<text x="42.833070629990175" y="191.74044606088253" dy="0.3em" style="font-size:10px;fill:black;font-family:Sans;text-anchor:middle;text-align:center">.</text>
</g>
<g>
<path style="fill:rgb(255, 200, 150);fill-opacity:1.0;fill-rule:evenodd;stroke:rgb(0, 0, 0);stroke-width:1.0;" d="M 51.4672, 180.476 L 34.3839, 182.445 L 28.5637, 176.312 L 26.7267, 168.506 L 51.2099, 160.405 z "/>
<text x="40.73658012332449" y="172.4387650663588" dy="0.3em" style="font-size:10px;fill:black;font-family:Sans;text-anchor:middle;text-align:center">.</text>
</g>
<g>
<path style="fill:rgb(255, 200, 150);fill-opacity:1.0;fill-rule:evenodd;stroke:rgb(0, 0, 0);stroke-width:1.0;" d="M 32.3606, 192.607 L 35.0155, 201.241 L 12.3897, 199.012 L 15.4977, 191.785 z "/>
<text x="24.00925864471051" y="196.37050224903447" dy="0.3em" style="font-size:10px;fill:black;font-family:Sans;text-anchor:middle;text-align:center">.</text>
</g>
<g>
<path style="fill:rgb(255, 200, 150);fill-opacity:1.0;fill-rule:evenodd;stroke:rgb(0, 0, 0);stroke-width:1.0;" d="M 175.471, 31.4579 L 175.825, 45.1406 L 168.36, 52.1748 L 153.633, 36.868 L 155.655, 29.5296 z "/>
<text x="166.03356525873744" y="38.91134676914482" dy="0.3em" style="font-size:10px;fill:black;font-family:Sans;text-anchor:middle;text-align:center">.</text>
</g>
<g>
<path style="fill:rgb(255, 200, 150);fill-opacity:1.0;fill-rule:evenodd;stroke:rgb(0, 0, 0);stroke-width:1.0;" d="M 192.037, 48.1287 L 175.825, 45.1406 L 175.471, 31.4579 L 176.82, 29.9059 L 193.722, 29.6056 z "/>
<text x="184.58690302589065" y="38.09342657538288" dy="0.3em" style="font-size:10px;fill:black;font-family:Sans;text-anchor:middle;text-align:center">.</text>
</g>
<g>
<path style="fill:rgb(255, 200, 150);fill-opacity:1.0;fill-rule:evenodd;stroke:rgb(0, 0, 0);stroke-width:1.0;" d="M 175.883, 16.9969 L 176.82, 29.9059 L 175.471, 31.4579 L 155.655, 29.5296 L 160.272, 12.7744 z "/>
<text x="166.80525041608504" y="23.01828888644492" dy="0.3em" style="font-size:10px;fill:black;font-family:Sans;text-anchor:middle;text-align:center"></text>
</g>
<g>
<path style="fill:rgb(255, 200, 150);fill-opacity:1.0;fill-rule:evenodd;stroke:rgb(0, 0, 0);stroke-width:1.0;" d="M 184.117, 9.15211 L 175.883, 16.9969 L 160.272, 12.7744 L 163.792, 0 L 177.969, 0 z "/>
<text x="171.81074468889403" y="7.893369112140488" dy="0.3em" style="font-size:10px;fill:black;font-family:Sans;text-anchor:middle;text-align:center">.</text>
</g>
<g>
<path style="fill:rgb(255, 200, 150);fill-opacity:1.0;fill-rule:evenodd;stroke:rgb(0, 0, 0);stroke-width:1.0;" d="M 194.216, 24.1855 L 193.722, 29.6056 L 176.82, 29.9059 L 175.883, 16.9969 L 184.117, 9.15211 z "/>
<text x="184.28509883962062" y="21.751115327569416" dy="0.3em" style="font-size:10px;fill:black;font-family:Sans;text-anchor:middle;text-align:center">.</text>
</g>
<g>
<path style="fill:rgb(255, 200, 150);fill-opacity:1.0;fill-rule:evenodd;stroke:rgb(0, 0, 0);stroke-width:1.0;" d="M 192.037, 48.1287 L 190.333, 66.8604 L 188.517, 68.399 L 180.65, 64.9484 L 168.36, 52.1748 L 175.825, 45.1406 z "/>
<text x="182.15126715139772" y="55.398695131065615" dy="0.3em" style="font-size:10px;fill:black;font-family:Sans;text-anchor:middle;text-align:center">.</text>
</g>
<g>
<path style="fill:rgb(255, 0, 0);fill-opacity:1.0;fill-rule:evenodd;stroke:rgb(0, 0, 0);stroke-width:1.0;" d="M 148.905, 202.519 L 153.352, 210.042 L 132.156, 227.347 L 124.552, 217.578 L 138.151, 197.041 z "/>
<text x="138.43878109667997" y="211.76844744942738" dy="0.3em" style="font-size:10px;fill:black;font-family:Sans;text-anchor:middle;text-align:center">.</text>
</g>
<g>
<path style="fill:rgb(255, 0, 0);fill-opacity:1.0;fill-rule:evenodd;stroke:rgb(0, 0, 0);stroke-width:1.0;" d="M 168.823, 190.952 L 166.939, 206.307 L 157.878, 211.826 L 153.352, 210.042 L 148.905, 202.519 L 160.871, 186.594 z "/>
<text x="159.84822976050597" y="199.87913836642696" dy="0.3em" style="font-size:10px;fill:black;font-family:Sans;text-anchor:middle;text-align:center">.</text>
</g>
<g>
<path style="fill:rgb(255, 0, 0);fill-opacity:1.0;fill-rule:evenodd;stroke:rgb(0, 0, 0);stroke-width:1.0;" d="M 157.878, 211.826 L 164.292, 229.908 L 135.104, 231.133 L 132.156, 227.347 L 153.352, 210.042 z "/>
<text x="149.81918129157648" y="222.98355108225965" dy="0.3em" style="font-size:10px;fill:black;font-family:Sans;text-anchor:middle;text-align:center">.</text>
</g>
<g>
<path style="fill:rgb(255, 0, 0);fill-opacity:1.0;fill-rule:evenodd;stroke:rgb(0, 0, 0);stroke-width:1.0;" d="M 182.885, 210.759 L 179.245, 229.28 L 164.292, 229.908 L 157.878, 211.826 L 166.939, 206.307 z "/>
<text x="170.75218487787" y="218.18013436183878" dy="0.3em" style="font-size:10px;fill:black;font-family:Sans;text-anchor:middle;text-align:center"></text>
</g>
<g>
<path style="fill:rgb(255, 0, 0);fill-opacity:1.0;fill-rule:evenodd;stroke:rgb(0, 0, 0);stroke-width:1.0;" d="M 185.032, 199.834 L 182.885, 210.759 L 166.939, 206.307 L 168.823, 190.952 z "/>
<text x="175.5148806595013" y="201.73118350120816" dy="0.3em" style="font-size:10px;fill:black;font-family:Sans;text-anchor:middle;text-align:center"></text>
</g>
<g>
<path style="fill:rgb(255, 0, 0);fill-opacity:1.0;fill-rule:evenodd;stroke:rgb(0, 0, 0);stroke-width:1.0;" d="M 160.871, 186.594 L 148.905, 202.519 L 138.151, 197.041 L 149.276, 180.241 z "/>
<text x="149.3743150446935" y="191.45989435396478" dy="0.3em" style="font-size:10px;fill:black;font-family:Sans;text-anchor:middle;text-align:center"></text>
</g>
<g>
<path style="fill:rgb(255, 127, 0);fill-opacity:1.0;fill-rule:evenodd;stroke:rgb(0, 0, 0);stroke-width:1.0;" d="M 200.678, 9.91067 L 193.828, 23.6091 L 185.41, 11.0776 L 198.457, 5.09287 z "/>
<text x="193.72907767456172" y="13.170878710881642" dy="0.3em" style="font-size:10px;fill:black;font-family:Sans;text-anchor:middle;text-align:center">.</text>
</g>
<g>
<path style="fill:rgb(255, 127, 0);fill-opacity:1.0;fill-rule:evenodd;stroke:rgb(0, 0, 0);stroke-width:1.0;" d="M 198.457, 5.09287 L 185.41, 11.0776 L 177.969, 0 L 199.014, 0 z "/>
<text x="188.91918178481285" y="4.054184131214546" dy="0.3em" style="font-size:10px;fill:black;font-family:Sans;text-anchor:middle;text-align:center">.</text>
</g>
<g>
<path style="fill:rgb(255, 127, 0);fill-opacity:1.0;fill-rule:evenodd;stroke:rgb(0, 0, 0);stroke-width:1.0;" d="M 211.335, 14.7183 L 212.372, 21.628 L 194.216, 24.1855 L 193.828, 23.6091 L 200.678, 9.91067 z "/>
<text x="203.46532013601012" y="17.917977971082266" dy="0.3em" style="font-size:10px;fill:black;font-family:Sans;text-anchor:middle;text-align:center">.</text>
</g>
<g>
<path style="fill:rgb(255, 127, 0);fill-opacity:1.0;fill-rule:evenodd;stroke:rgb(0, 0, 0);stroke-width:1.0;" d="M 236.995, 18.1596 L 231.936, 18.8722 L 219.019, 4.33008 L 219.212, 0 L 239.12, 0 z "/>
<text x="230.36002604710094" y="7.494443488670012" dy="0.3em" style="font-size:10px;fill:black;font-family:Sans;text-anchor:middle;text-align:center"></text>
</g>
<g>
<path style="fill:rgb(255, 127, 0);fill-opacity:1.0;fill-rule:evenodd;stroke:rgb(0, 0, 0);stroke-width:1.0;" d="M 219.019, 4.33008 L 211.335, 14.7183 L 200.678, 9.91067 L 198.457, 5.09287 L 199.014, 0 L 219.212, 0 z "/>
<text x="208.62411148536017" y="5.744318962244957" dy="0.3em" style="font-size:10px;fill:black;font-family:Sans;text-anchor:middle;text-align:center"></text>
</g>
<g>
<path style="fill:rgb(255, 127, 0);fill-opacity:1.0;fill-rule:evenodd;stroke:rgb(0, 0, 0);stroke-width:1.0;" d="M 231.936, 18.8722 L 212.372, 21.628 L 211.335, 14.7183 L 219.019, 4.33008 z "/>
<text x="219.9666080840839" y="14.713117104728164" dy="0.3em" style="font-size:10px;fill:black;font-family:Sans;text-anchor:middle;text-align:center"></text>
</g>
<g>
<path style="fill:rgb(255, 255, 0);fill-opacity:1.0;fill-rule:evenodd;stroke:rgb(0, 0, 0);stroke-width:1.0;" d="M 204.721, 95.2673 L 193.991, 101.651 L 177.88, 91.7626 L 187.998, 76.6267 z "/>
<text x="190.84120519920896" y="90.5641350179455" dy="0.3em" style="font-size:10px;fill:black;font-family:Sans;text-anchor:middle;text-align:center">.</text>
</g>
<g>
<path style="fill:rgb(255, 255, 0);fill-opacity:1.0;fill-rule:evenodd;stroke:rgb(0, 0, 0);stroke-width:1.0;" d="M 193.991, 101.651 L 191.047, 116.574 L 176.167, 116.817 L 174.924, 96.1847 L 177.88, 91.7626 z "/>
<text x="183.45419731938526" y="105.82316696395381" dy="0.3em" style="font-size:10px;fill:black;font-family:Sans;text-anchor:middle;text-align:center">.</text>
</g>
<g>
<path style="fill:rgb(255, 255, 0);fill-opacity:1.0;fill-rule:evenodd;stroke:rgb(0, 0, 0);stroke-width:1.0;" d="M 220.529, 112.887 L 207.673, 121.397 L 192.443, 117.956 L 191.047, 116.574 L 193.991, 101.651 L 204.721, 95.2673 z "/>
<text x="204.16910766662787" y="109.74658188645765" dy="0.3em" style="font-size:10px;fill:black;font-family:Sans;text-anchor:middle;text-align:center">.</text>
</g>
<g>
<path style="fill:rgb(255, 255, 0);fill-opacity:1.0;fill-rule:evenodd;stroke:rgb(0, 0, 0);stroke-width:1.0;" d="M 207.673, 121.397 L 207.646, 145.926 L 189.175, 139.588 L 192.443, 117.956 z "/>
<text x="199.32345732816347" y="131.63582568209043" dy="0.3em" style="font-size:10px;fill:black;font-family:Sans;text-anchor:middle;text-align:center"></text>
</g>
<g>
<path style="fill:rgb(255, 255, 0);fill-opacity:1.0;fill-rule:evenodd;stroke:rgb(0, 0, 0);stroke-width:1.0;" d="M 230.149, 123.609 L 228.191, 143.196 L 220.446, 150.318 L 207.646, 145.926 L 207.673, 121.397 L 220.529, 112.887 z "/>
<text x="218.3343983517349" y="132.23548668910848" dy="0.3em" style="font-size:10px;fill:black;font-family:Sans;text-anchor:middle;text-align:center"></text>
</g>
<g>
<path style="fill:rgb(255, 255, 0);fill-opacity:1.0;fill-rule:evenodd;stroke:rgb(0, 0, 0);stroke-width:1.0;" d="M 192.443, 117.956 L 189.175, 139.588 L 177.294, 135.511 L 176.167, 116.817 L 191.047, 116.574 z "/>
<text x="184.10200705679847" y="126.65927332532742" dy="0.3em" style="font-size:10px;fill:black;font-family:Sans;text-anchor:middle;text-align:center"></text>
</g>
<g>
<path style="fill:rgb(0, 255, 0);fill-opacity:1.0;fill-rule:evenodd;stroke:rgb(0, 0, 0);stroke-width:1.0;" d="M 30.7251, 287.048 L 35.1378, 300 L 15.2824, 300 L 16.0484, 294.709 L 24.3356, 284.496 z "/>
<text x="25.252756423207288" y="293.93579996766846" dy="0.3em" style="font-size:10px;fill:black;font-family:Sans;text-anchor:middle;text-align:center">.</text>
</g>
<g>
<path style="fill:rgb(0, 255, 0);fill-opacity:1.0;fill-rule:evenodd;stroke:rgb(0, 0, 0);stroke-width:1.0;" d="M 42.8423, 273.447 L 42.2776, 282.012 L 30.7251, 287.048 L 24.3356, 284.496 L 23.6697, 281.878 L 34.9272, 267.783 z "/>
<text x="34.0951865296107" y="278.39526059988646" dy="0.3em" style="font-size:10px;fill:black;font-family:Sans;text-anchor:middle;text-align:center">.</text>
</g>
<g>
<path style="fill:rgb(0, 255, 0);fill-opacity:1.0;fill-rule:evenodd;stroke:rgb(0, 0, 0);stroke-width:1.0;" d="M 23.6697, 281.878 L 24.3356, 284.496 L 16.0484, 294.709 L 0.495495, 277.244 L 12.3989, 272.148 z "/>
<text x="13.433910623794715" y="282.30083293064445" dy="0.3em" style="font-size:10px;fill:black;font-family:Sans;text-anchor:middle;text-align:center">.</text>
</g>
<g>
<path style="fill:rgb(0, 255, 0);fill-opacity:1.0;fill-rule:evenodd;stroke:rgb(0, 0, 0);stroke-width:1.0;" d="M 41.0916, 300 L 35.1378, 300 L 30.7251, 287.048 L 42.2776, 282.012 z "/>
<text x="37.373505581454246" y="291.3443023149172" dy="0.3em" style="font-size:10px;fill:black;font-family:Sans;text-anchor:middle;text-align:center"></text>
</g>
<g>
<path style="fill:rgb(0, 255, 0);fill-opacity:1.0;fill-rule:evenodd;stroke:rgb(0, 0, 0);stroke-width:1.0;" d="M 16.0484, 294.709 L 15.2824, 300 L 0, 300 L 0, 277.456 L 0.495495, 277.244 z "/>
<text x="6.2599207595459765" y="291.8586928022946" dy="0.3em" style="font-size:10px;fill:black;font-family:Sans;text-anchor:middle;text-align:center"></text>
</g>
<g>
<path style="fill:rgb(0, 255, 0);fill-opacity:1.0;fill-rule:evenodd;stroke:rgb(0, 0, 0);stroke-width:1.0;" d="M 34.9272, 267.783 L 23.6697, 281.878 L 12.3989, 272.148 L 30.311, 264.479 z "/>
<text x="24.24206012193825" y="272.42500186641985" dy="0.3em" style="font-size:10px;fill:black;font-family:Sans;text-anchor:middle;text-align:center"></text>
</g>
<g>
<path style="fill:rgb(150, 0, 255);fill-opacity:1.0;fill-rule:evenodd;stroke:rgb(0, 0, 0);stroke-width:1.0;" d="M 244.462, 236.684 L 239.986, 245.724 L 213.724, 252.685 L 224.447, 228.342 z "/>
<text x="228.90886394620134" y="240.7633066564917" dy="0.3em" style="font-size:10px;fill:black;font-family:Sans;text-anchor:middle;text-align:center">.</text>
</g>
<g>
<path style="fill:rgb(150, 0, 255);fill-opacity:1.0;fill-rule:evenodd;stroke:rgb(0, 0, 0);stroke-width:1.0;" d="M 252.786, 219.874 L 244.462, 236.684 L 224.447, 228.342 L 223.494, 227.007 L 230.1, 197.564 z "/>
<text x="237.0271376532723" y="219.50635077801866" dy="0.3em" style="font-size:10px;fill:black;font-family:Sans;text-anchor:middle;text-align:center">.</text>
</g>
<g>
<path style="fill:rgb(150, 0, 255);fill-opacity:1.0;fill-rule:evenodd;stroke:rgb(0, 0, 0);stroke-width:1.0;" d="M 223.494, 227.007 L 224.447, 228.342 L 213.724, 252.685 L 208, 254.202 L 204.043, 251.14 L 204.018, 224.519 z "/>
<text x="211.92301610245943" y="237.75283084613753" dy="0.3em" style="font-size:10px;fill:black;font-family:Sans;text-anchor:middle;text-align:center">.</text>
</g>
<g>
<path style="fill:rgb(150, 0, 255);fill-opacity:1.0;fill-rule:evenodd;stroke:rgb(0, 0, 0);stroke-width:1.0;" d="M 200.37, 221.14 L 204.018, 224.519 L 204.043, 251.14 L 180.922, 233.246 L 179.245, 229.28 L 181.405, 218.289 z "/>
<text x="193.37800034471633" y="231.67893922561007" dy="0.3em" style="font-size:10px;fill:black;font-family:Sans;text-anchor:middle;text-align:center"></text>
</g>
<g>
<path style="fill:rgb(150, 0, 255);fill-opacity:1.0;fill-rule:evenodd;stroke:rgb(0, 0, 0);stroke-width:1.0;" d="M 230.1, 197.564 L 223.494, 227.007 L 204.018, 224.519 L 200.37, 221.14 L 221.651, 189.254 z "/>
<text x="217.36032597573347" y="211.06061745968728" dy="0.3em" style="font-size:10px;fill:black;font-family:Sans;text-anchor:middle;text-align:center"></text>
</g>
<g>
<path style="fill:rgb(150, 0, 255);fill-opacity:1.0;fill-rule:evenodd;stroke:rgb(0, 0, 0);stroke-width:1.0;" d="M 221.651, 189.254 L 200.37, 221.14 L 181.405, 218.289 L 185.032, 199.834 L 214.908, 182.623 z "/>
<text x="200.30298332035798" y="203.07167636964795" dy="0.3em" style="font-size:10px;fill:black;font-family:Sans;text-anchor:middle;text-align:center"></text>
</g>
<g>
<path style="fill:rgb(255, 0, 255);fill-opacity:1.0;fill-rule:evenodd;stroke:rgb(0, 0, 0);stroke-width:1.0;" d="M 97.9381, 60.1916 L 103.455, 73.8708 L 96.6918, 85.8472 L 83.2743, 81.1299 L 93.8604, 58.0018 z "/>
<text x="94.16138859179952" y="73.36857098518614" dy="0.3em" style="font-size:10px;fill:black;font-family:Sans;text-anchor:middle;text-align:center">.</text>
</g>
<g>
<path style="fill:rgb(255, 0, 255);fill-opacity:1.0;fill-rule:evenodd;stroke:rgb(0, 0, 0);stroke-width:1.0;" d="M 116.718, 62.124 L 114.128, 73.4766 L 103.455, 73.8708 L 97.9381, 60.1916 L 111.264, 58.0399 z "/>
<text x="107.93412108605186" y="65.81829215605993" dy="0.3em" style="font-size:10px;fill:black;font-family:Sans;text-anchor:middle;text-align:center">.</text>
</g>
<g>
<path style="fill:rgb(255, 0, 255);fill-opacity:1.0;fill-rule:evenodd;stroke:rgb(0, 0, 0);stroke-width:1.0;" d="M 121.314, 81.6191 L 105.393, 88.9064 L 96.6918, 85.8472 L 103.455, 73.8708 L 114.128, 73.4766 z "/>
<text x="108.42258070503328" y="80.85562487216453" dy="0.3em" style="font-size:10px;fill:black;font-family:Sans;text-anchor:middle;text-align:center">.</text>
</g>
<g>
<path style="fill:rgb(255, 0, 255);fill-opacity:1.0;fill-rule:evenodd;stroke:rgb(0, 0, 0);stroke-width:1.0;" d="M 111.264, 58.0399 L 97.9381, 60.1916 L 93.8604, 58.0018 L 101.133, 42.1124 L 114.631, 41.7791 z "/>
<text x="104.8460280172187" y="50.93221698251566" dy="0.3em" style="font-size:10px;fill:black;font-family:Sans;text-anchor:middle;text-align:center"></text>
</g>
<g>
<path style="fill:rgb(255, 0, 255);fill-opacity:1.0;fill-rule:evenodd;stroke:rgb(0, 0, 0);stroke-width:1.0;" d="M 128.334, 74.6673 L 126.857, 79.0824 L 121.314, 81.6191 L 114.128, 73.4766 L 116.718, 62.124 L 125.269, 60.5137 z "/>
<text x="121.5238783692068" y="70.86683437798068" dy="0.3em" style="font-size:10px;fill:black;font-family:Sans;text-anchor:middle;text-align:center"></text>
</g>
<g>
<path style="fill:rgb(255, 0, 255);fill-opacity:1.0;fill-rule:evenodd;stroke:rgb(0, 0, 0);stroke-width:1.0;" d="M 121.895, 44.9273 L 125.269, 60.5137 L 116.718, 62.124 L 111.264, 58.0399 L 114.631, 41.7791 L 117.544, 41.7072 z "/>
<text x="118.08377013253784" y="52.793525905564934" dy="0.3em" style="font-size:10px;fill:black;font-family:Sans;text-anchor:middle;text-align:center"></text>
</g>
<g>
<path style="fill:rgb(0, 255, 255);fill-opacity:1.0;fill-rule:evenodd;stroke:rgb(0, 0, 0);stroke-width:1.0;" d="M 53.3271, 275.922 L 42.3456, 280.981 L 42.8423, 273.447 L 51.693, 269.836 z "/>
<text x="47.501873306312184" y="275.1973535599832" dy="0.3em" style="font-size:10px;fill:black;font-family:Sans;text-anchor:middle;text-align:center">.</text>
</g>
<g>
<path style="fill:rgb(0, 255, 255);fill-opacity:1.0;fill-rule:evenodd;stroke:rgb(0, 0, 0);stroke-width:1.0;" d="M 82.6692, 300 L 62.3615, 300 L 61.5285, 287.491 L 79.1958, 281.86 z "/>
<text x="72.06500358897989" y="292.3693478037824" dy="0.3em" style="font-size:10px;fill:black;font-family:Sans;text-anchor:middle;text-align:center">.</text>
</g>
<g>
<path style="fill:rgb(0, 255, 255);fill-opacity:1.0;fill-rule:evenodd;stroke:rgb(0, 0, 0);stroke-width:1.0;" d="M 61.5285, 287.491 L 62.3615, 300 L 41.0916, 300 L 41.8148, 289.032 L 60.3042, 286.214 z "/>
<text x="52.07132554187371" y="293.8436438861607" dy="0.3em" style="font-size:10px;fill:black;font-family:Sans;text-anchor:middle;text-align:center">.</text>
</g>
<g>
<path style="fill:rgb(0, 255, 255);fill-opacity:1.0;fill-rule:evenodd;stroke:rgb(0, 0, 0);stroke-width:1.0;" d="M 75.393, 262.001 L 79.1958, 281.86 L 61.5285, 287.491 L 60.3042, 286.214 L 59.0567, 281.257 L 71.9455, 261.574 L 72.6754, 261.276 z "/>
<text x="69.88934511092087" y="276.0122031927791" dy="0.3em" style="font-size:10px;fill:black;font-family:Sans;text-anchor:middle;text-align:center"></text>
</g>
<g>
<path style="fill:rgb(0, 255, 255);fill-opacity:1.0;fill-rule:evenodd;stroke:rgb(0, 0, 0);stroke-width:1.0;" d="M 59.0567, 281.257 L 53.3271, 275.922 L 51.693, 269.836 L 71.9455, 261.574 z "/>
<text x="60.388504518849444" y="271.2819789471709" dy="0.3em" style="font-size:10px;fill:black;font-family:Sans;text-anchor:middle;text-align:center"></text>
</g>
<g>
<path style="fill:rgb(0, 255, 255);fill-opacity:1.0;fill-rule:evenodd;stroke:rgb(0, 0, 0);stroke-width:1.0;" d="M 59.0567, 281.257 L 60.3042, 286.214 L 41.8148, 289.032 L 42.3456, 280.981 L 53.3271, 275.922 z "/>
<text x="50.59257875529459" y="283.0739367537938" dy="0.3em" style="font-size:10px;fill:black;font-family:Sans;text-anchor:middle;text-align:center"></text>
</g>
<g>
<path style="fill:rgb(150, 150, 150);fill-opacity:1.0;fill-rule:evenodd;stroke:rgb(0, 0, 0);stroke-width:1.0;" d="M 96.6917, 144.723 L 98.0859, 152.099 L 85.5611, 163.296 L 74.0835, 153.956 L 92.3519, 141.043 z "/>
<text x="87.52981720809485" y="152.20234651978546" dy="0.3em" style="font-size:10px;fill:black;font-family:Sans;text-anchor:middle;text-align:center">.</text>
</g>
<g>
<path style="fill:rgb(150, 150, 150);fill-opacity:1.0;fill-rule:evenodd;stroke:rgb(0, 0, 0);stroke-width:1.0;" d="M 105.074, 156.854 L 107.746, 170.585 L 98.9079, 174.158 L 85.5611, 163.296 L 98.0859, 152.099 z "/>
<text x="98.1561850090065" y="163.54242489350048" dy="0.3em" style="font-size:10px;fill:black;font-family:Sans;text-anchor:middle;text-align:center">.</text>
</g>
<g>
<path style="fill:rgb(150, 150, 150);fill-opacity:1.0;fill-rule:evenodd;stroke:rgb(0, 0, 0);stroke-width:1.0;" d="M 92.3519, 141.043 L 74.0835, 153.956 L 70.1674, 150.769 L 84.8053, 129.546 L 87.3859, 128.89 z "/>
<text x="82.03863130927253" y="141.79350859665607" dy="0.3em" style="font-size:10px;fill:black;font-family:Sans;text-anchor:middle;text-align:center">.</text>
</g>
<g>
<path style="fill:rgb(150, 150, 150);fill-opacity:1.0;fill-rule:evenodd;stroke:rgb(0, 0, 0);stroke-width:1.0;" d="M 123.899, 164.056 L 107.746, 170.585 L 105.074, 156.854 L 120.355, 149.11 z "/>
<text x="114.41167601244538" y="160.13260472573674" dy="0.3em" style="font-size:10px;fill:black;font-family:Sans;text-anchor:middle;text-align:center"></text>
</g>
<g>
<path style="fill:rgb(150, 150, 150);fill-opacity:1.0;fill-rule:evenodd;stroke:rgb(0, 0, 0);stroke-width:1.0;" d="M 120.355, 149.11 L 105.074, 156.854 L 98.0859, 152.099 L 96.6917, 144.723 L 117.003, 134.974 z "/>
<text x="108.89890985098985" y="146.5092493125049" dy="0.3em" style="font-size:10px;fill:black;font-family:Sans;text-anchor:middle;text-align:center"></text>
</g>
<g>
<path style="fill:rgb(150, 150, 150);fill-opacity:1.0;fill-rule:evenodd;stroke:rgb(0, 0, 0);stroke-width:1.0;" d="M 115.316, 127.862 L 117.003, 134.974 L 96.6917, 144.723 L 92.3519, 141.043 L 87.3859, 128.89 L 106.413, 124.053 z "/>
<text x="102.02556720790709" y="133.4076436317442" dy="0.3em" style="font-size:10px;fill:black;font-family:Sans;text-anchor:middle;text-align:center"></text>
</g>
<g>
<path style="fill:rgb(73, 125, 75);fill-opacity:1.0;fill-rule:evenodd;stroke:rgb(0, 0, 0);stroke-width:1.0;" d="M 124.552, 217.578 L 135.104, 231.133 L 133.368, 242.295 L 118.888, 243.534 L 113.862, 231.579 L 121.394, 217.194 z "/>
<text x="124.54740659856841" y="231.9727667494792" dy="0.3em" style="font-size:10px;fill:black;font-family:Sans;text-anchor:middle;text-align:center">.</text>
</g>
<g>
<path style="fill:rgb(73, 125, 75);fill-opacity:1.0;fill-rule:evenodd;stroke:rgb(0, 0, 0);stroke-width:1.0;" d="M 125.271, 266.174 L 123.032, 267.738 L 104.031, 260.208 L 109.844, 249.595 L 116.415, 246.928 z "/>
<text x="114.85340358562516" y="257.8210619845561" dy="0.3em" style="font-size:10px;fill:black;font-family:Sans;text-anchor:middle;text-align:center">.</text>
</g>
<g>
<path style="fill:rgb(73, 125, 75);fill-opacity:1.0;fill-rule:evenodd;stroke:rgb(0, 0, 0);stroke-width:1.0;" d="M 109.844, 249.595 L 104.031, 260.208 L 89.8229, 254.578 L 93.8344, 237.329 z "/>
<text x="99.05959307244348" y="249.9176667166029" dy="0.3em" style="font-size:10px;fill:black;font-family:Sans;text-anchor:middle;text-align:center">.</text>
</g>
<g>
<path style="fill:rgb(73, 125, 75);fill-opacity:1.0;fill-rule:evenodd;stroke:rgb(0, 0, 0);stroke-width:1.0;" d="M 121.394, 217.194 L 113.862, 231.579 L 95.0237, 232.215 L 99.1467, 214.486 z "/>
<text x="107.13200294703363" y="223.5562283057417" dy="0.3em" style="font-size:10px;fill:black;font-family:Sans;text-anchor:middle;text-align:center"></text>
</g>
<g>
<path style="fill:rgb(73, 125, 75);fill-opacity:1.0;fill-rule:evenodd;stroke:rgb(0, 0, 0);stroke-width:1.0;" d="M 130.187, 262.74 L 125.271, 266.174 L 116.415, 246.928 L 118.888, 243.534 L 133.368, 242.295 z "/>
<text x="125.64068527153373" y="252.04653804772892" dy="0.3em" style="font-size:10px;fill:black;font-family:Sans;text-anchor:middle;text-align:center"></text>
</g>
<g>
<path style="fill:rgb(73, 125, 75);fill-opacity:1.0;fill-rule:evenodd;stroke:rgb(0, 0, 0);stroke-width:1.0;" d="M 118.888, 243.534 L 116.415, 246.928 L 109.844, 249.595 L 93.8344, 237.329 L 95.0237, 232.215 L 113.862, 231.579 z "/>
<text x="107.25887314299968" y="239.23860052327385" dy="0.3em" style="font-size:10px;fill:black;font-family:Sans;text-anchor:middle;text-align:center"></text>
</g>
<g>
<path style="fill:rgb(243, 157, 241);fill-opacity:1.0;fill-rule:evenodd;stroke:rgb(0, 0, 0);stroke-width:1.0;" d="M 17.9253, 60.1161 L 16.9146, 62.1961 L 0, 62.8565 L 0, 54.3112 L 12.3941, 47.8574 z "/>
<text x="8.558950747019582" y="56.83684660621404" dy="0.3em" style="font-size:10px;fill:black;font-family:Sans;text-anchor:middle;text-align:center">.</text>
</g>
<g>
<path style="fill:rgb(243, 157, 241);fill-opacity:1.0;fill-rule:evenodd;stroke:rgb(0, 0, 0);stroke-width:1.0;" d="M 53.828, 54.1831 L 54.1023, 75.2452 L 36.9978, 74.5001 L 34.7467, 57.526 L 51.1518, 50.0346 z "/>
<text x="45.37056464909676" y="63.875962117676714" dy="0.3em" style="font-size:10px;fill:black;font-family:Sans;text-anchor:middle;text-align:center">.</text>
</g>
<g>
<path style="fill:rgb(243, 157, 241);fill-opacity:1.0;fill-rule:evenodd;stroke:rgb(0, 0, 0);stroke-width:1.0;" d="M 31.8442, 55.9468 L 17.9253, 60.1161 L 12.3941, 47.8574 L 26.9697, 40.2678 z "/>
<text x="22.46440717302646" y="50.81456351563716" dy="0.3em" style="font-size:10px;fill:black;font-family:Sans;text-anchor:middle;text-align:center">.</text>
</g>
<g>
<path style="fill:rgb(243, 157, 241);fill-opacity:1.0;fill-rule:evenodd;stroke:rgb(0, 0, 0);stroke-width:1.0;" d="M 34.7467, 57.526 L 36.9978, 74.5001 L 18.4745, 73.6932 L 16.9146, 62.1961 L 17.9253, 60.1161 L 31.8442, 55.9468 z "/>
<text x="27.183604545001618" y="66.01119426286313" dy="0.3em" style="font-size:10px;fill:black;font-family:Sans;text-anchor:middle;text-align:center"></text>
</g>
<g>
<path style="fill:rgb(243, 157, 241);fill-opacity:1.0;fill-rule:evenodd;stroke:rgb(0, 0, 0);stroke-width:1.0;" d="M 18.4745, 73.6932 L 0, 72.8885 L 0, 62.8565 L 16.9146, 62.1961 z "/>
<text x="9.052474793539892" y="67.98312030143838" dy="0.3em" style="font-size:10px;fill:black;font-family:Sans;text-anchor:middle;text-align:center"></text>
</g>
<g>
<path style="fill:rgb(243, 157, 241);fill-opacity:1.0;fill-rule:evenodd;stroke:rgb(0, 0, 0);stroke-width:1.0;" d="M 45.0856, 40.6307 L 51.1518, 50.0346 L 34.7467, 57.526 L 31.8442, 55.9468 L 26.9697, 40.2678 L 34.8698, 36.1541 z "/>
<text x="37.91541838134391" y="46.60873628407271" dy="0.3em" style="font-size:10px;fill:black;font-family:Sans;text-anchor:middle;text-align:center"></text>
</g>
<g>
<path style="fill:rgb(38, 192, 22);fill-opacity:1.0;fill-rule:evenodd;stroke:rgb(0, 0, 0);stroke-width:1.0;" d="M 145.425, 171.507 L 149.276, 180.241 L 138.027, 197.229 L 130.386, 186.418 L 140.169, 169.688 z "/>
<text x="139.97199455462143" y="182.65592491348394" dy="0.3em" style="font-size:10px;fill:black;font-family:Sans;text-anchor:middle;text-align:center">.</text>
</g>
<g>
<path style="fill:rgb(38, 192, 22);fill-opacity:1.0;fill-rule:evenodd;stroke:rgb(0, 0, 0);stroke-width:1.0;" d="M 130.386, 186.418 L 138.027, 197.229 L 134.398, 202.709 L 114.179, 201.163 L 110.946, 192.988 L 120.696, 183.806 z "/>
<text x="124.30377157327045" y="194.29808778813418" dy="0.3em" style="font-size:10px;fill:black;font-family:Sans;text-anchor:middle;text-align:center">.</text>
</g>
<g>
<path style="fill:rgb(38, 192, 22);fill-opacity:1.0;fill-rule:evenodd;stroke:rgb(0, 0, 0);stroke-width:1.0;" d="M 110.946, 192.988 L 114.179, 201.163 L 109.728, 215.774 L 99.1467, 214.486 L 92.6476, 207.763 L 96.2, 188.694 z "/>
<text x="103.27214086740717" y="202.64557521158548" dy="0.3em" style="font-size:10px;fill:black;font-family:Sans;text-anchor:middle;text-align:center">.</text>
</g>
<g>
<path style="fill:rgb(38, 192, 22);fill-opacity:1.0;fill-rule:evenodd;stroke:rgb(0, 0, 0);stroke-width:1.0;" d="M 120.696, 183.806 L 110.946, 192.988 L 96.2, 188.694 L 98.9079, 174.158 L 116.314, 167.122 z "/>
<text x="108.67325325277818" y="180.796422522293" dy="0.3em" style="font-size:10px;fill:black;font-family:Sans;text-anchor:middle;text-align:center"></text>
</g>
<g>
<path style="fill:rgb(38, 192, 22);fill-opacity:1.0;fill-rule:evenodd;stroke:rgb(0, 0, 0);stroke-width:1.0;" d="M 140.169, 169.688 L 130.386, 186.418 L 120.696, 183.806 L 116.314, 167.122 L 123.899, 164.056 z "/>
<text x="127.19425771882557" y="174.43451196653717" dy="0.3em" style="font-size:10px;fill:black;font-family:Sans;text-anchor:middle;text-align:center"></text>
</g>
<g>
<path style="fill:rgb(38, 192, 22);fill-opacity:1.0;fill-rule:evenodd;stroke:rgb(0, 0, 0);stroke-width:1.0;" d="M 134.398, 202.709 L 124.552, 217.578 L 109.728, 215.774 L 114.179, 201.163 z "/>
<text x="120.95870785199007" y="208.9599726432422" dy="0.3em" style="font-size:10px;fill:black;font-family:Sans;text-anchor:middle;text-align:center"></text>
</g>
<g>
<path style="fill:rgb(155, 181, 177);fill-opacity:1.0;fill-rule:evenodd;stroke:rgb(0, 0, 0);stroke-width:1.0;" d="M 188.517, 68.399 L 187.998, 76.6267 L 186.412, 78.9993 L 164.645, 78.2907 L 157.803, 69.1929 L 180.65, 64.9484 z "/>
<text x="175.02866505771593" y="72.41638784392313" dy="0.3em" style="font-size:10px;fill:black;font-family:Sans;text-anchor:middle;text-align:center">.</text>
</g>
<g>
<path style="fill:rgb(155, 181, 177);fill-opacity:1.0;fill-rule:evenodd;stroke:rgb(0, 0, 0);stroke-width:1.0;" d="M 147.107, 85.1092 L 139.86, 84.7645 L 136.764, 73.1013 L 157.451, 69.2582 z "/>
<text x="145.79036967930782" y="76.98369155562371" dy="0.3em" style="font-size:10px;fill:black;font-family:Sans;text-anchor:middle;text-align:center">.</text>
</g>
<g>
<path style="fill:rgb(155, 181, 177);fill-opacity:1.0;fill-rule:evenodd;stroke:rgb(0, 0, 0);stroke-width:1.0;" d="M 139.86, 84.7645 L 133.75, 89.5553 L 126.857, 79.0824 L 128.334, 74.6673 L 136.764, 73.1013 z "/>
<text x="133.62284100686492" y="80.54152466511454" dy="0.3em" style="font-size:10px;fill:black;font-family:Sans;text-anchor:middle;text-align:center">.</text>
</g>
<g>
<path style="fill:rgb(155, 181, 177);fill-opacity:1.0;fill-rule:evenodd;stroke:rgb(0, 0, 0);stroke-width:1.0;" d="M 147.107, 85.1092 L 155.057, 98.9603 L 141.213, 100.894 L 133.75, 89.5553 L 139.86, 84.7645 z "/>
<text x="144.08357799248478" y="92.90601725773676" dy="0.3em" style="font-size:10px;fill:black;font-family:Sans;text-anchor:middle;text-align:center"></text>
</g>
<g>
<path style="fill:rgb(155, 181, 177);fill-opacity:1.0;fill-rule:evenodd;stroke:rgb(0, 0, 0);stroke-width:1.0;" d="M 186.412, 78.9993 L 174.924, 96.1847 L 164.336, 97.6639 L 164.645, 78.2907 z "/>
<text x="172.76060423995702" y="86.66117677434045" dy="0.3em" style="font-size:10px;fill:black;font-family:Sans;text-anchor:middle;text-align:center"></text>
</g>
<g>
<path style="fill:rgb(155, 181, 177);fill-opacity:1.0;fill-rule:evenodd;stroke:rgb(0, 0, 0);stroke-width:1.0;" d="M 164.645, 78.2907 L 164.336, 97.6639 L 155.057, 98.9603 L 147.107, 85.1092 L 157.451, 69.2582 L 157.803, 69.1929 z "/>
<text x="157.36496439853258" y="85.47723937145123" dy="0.3em" style="font-size:10px;fill:black;font-family:Sans;text-anchor:middle;text-align:center"></text>
</g>
</svg>